<svg xmlns="http://www.w3.org/2000/svg" viewBox="0 0 363.98 151.95"><title>Artboard 5</title><path d="M49.48,67.06h0L61.8,25.76,13.13,41.53h0l0,51.17,48.65,15.85L91.83,67.18h0l-30-41.42Zm8.65,29.3L24.19,84.87h0V49.3h0L58,38.59,54.81,49.2,33.5,55.83h0V78.32h0l21.4,7L68.83,67.11l11.82,0Z" style="fill:#ddc251"/><polygon points="49.48 67.06 91.84 67.18 61.8 25.76 49.48 67.06" style="fill:#f6e976"/><polygon points="57.97 38.59 54.81 49.2 33.49 55.83 49.48 67.06 61.8 25.76 13.12 41.53 24.19 49.3 57.97 38.59" style="fill:#fff9c3"/><polygon points="49.49 67.06 33.5 55.83 33.49 55.84 33.49 78.33 49.49 67.06" style="fill:#bd982c"/><polygon points="24.19 84.87 24.19 49.3 24.19 49.3 13.12 41.53 13.08 92.7 24.19 84.87 24.19 84.87" style="fill:#bd982c"/><polygon points="49.48 67.06 33.49 78.32 33.49 78.33 54.88 85.36 49.48 67.06" style="fill:#76581d"/><polygon points="24.19 84.87 13.08 92.7 61.73 108.55 58.13 96.36 24.19 84.87" style="fill:#76581d"/><polygon points="68.86 67.11 80.65 67.15 58.13 96.36 58.13 96.36 61.73 108.55 91.84 67.18 68.86 67.11" style="fill:#ddc251"/><polygon points="49.48 67.06 54.88 85.36 54.88 85.36 68.83 67.11 49.48 67.06" style="fill:#ddc251"/><path d="M110.52,50.82a1.67,1.67,0,0,1,3.35,0,1.62,1.62,0,0,1-1,1.47l5.34,11.58h-1l-1.52-3.35h-7.05l-1.52,3.35h-.92l5.34-11.58A1.62,1.62,0,0,1,110.52,50.82Zm1.66,2L109,59.72h6.3Zm0-3a1.06,1.06,0,1,0,1.06,1.06A1.06,1.06,0,0,0,112.19,49.76Z" style="fill:#fff"/><path d="M129.08,63.86l-3.81-5h-3.91v5h-.89v-12h5c2.58,0,4.27,1.4,4.27,3.4v0c0,2-1.49,3.14-3.5,3.42l3.94,5.11Zm-.21-8.52c0-1.6-1.26-2.61-3.43-2.61h-4.08v5.38h4c2,0,3.48-1,3.48-2.73Z" style="fill:#fff"/><path d="M132.67,63.86v-12h8.5v.82h-7.62v4.7h6.85v.82h-6.85V63h7.7v.82Z" style="fill:#fff"/><path d="M148.29,52.73V63.86h-.89V52.73h-4.17v-.82h9.22v.82Z" style="fill:#fff"/><path d="M158.66,64a6.8,6.8,0,0,1-4.81-1.91l.58-.67a5.8,5.8,0,0,0,4.29,1.78c1.79,0,3-1,3-2.37v0c0-1.26-.67-2-3.38-2.54-2.87-.58-4-1.55-4-3.36v0c0-1.78,1.62-3.14,3.84-3.14a6,6,0,0,1,4.1,1.45l-.56.7a5.15,5.15,0,0,0-3.57-1.35c-1.76,0-2.92,1-2.92,2.25v0c0,1.26.65,2,3.48,2.61s3.93,1.55,3.93,3.29v0C162.62,62.7,161,64,158.66,64Z" style="fill:#fff"/><path d="M170.43,63.86v-12h.89v12Z" style="fill:#fff"/><path d="M184.14,63.86l-8.42-10.62V63.86h-.85v-12h.84l8.25,10.4V51.91h.85v12Z" style="fill:#fff"/><path d="M197.59,63.86l-8.42-10.62V63.86h-.85v-12h.84l8.25,10.4V51.91h.85v12Z" style="fill:#fff"/><path d="M207.15,64.07a6,6,0,0,1-6-6.15v0a6,6,0,1,1,12,0s0,0,0,0A6,6,0,0,1,207.15,64.07Zm5.1-6.18a5.17,5.17,0,0,0-5.1-5.38,5.12,5.12,0,0,0-5.07,5.34v0a5.17,5.17,0,0,0,5.11,5.38,5.12,5.12,0,0,0,5.07-5.34Z" style="fill:#fff"/><path d="M220.31,63.95h-.79l-5.26-12h1l4.68,11,4.7-11h.94Z" style="fill:#fff"/><path d="M236.47,63.86,235,60.52H227.9l-1.52,3.35h-.92l5.57-12h.85l5.57,12Zm-5-11.06-3.16,6.92h6.3Z" style="fill:#fff"/><path d="M242.25,52.73V63.86h-.89V52.73H237.2v-.82h9.22v.82Z" style="fill:#fff"/><path d="M253.42,64.07a6,6,0,0,1-6-6.15v0a6,6,0,1,1,12,0s0,0,0,0A6,6,0,0,1,253.42,64.07Zm5.11-6.18a5.17,5.17,0,0,0-5.11-5.38,5.12,5.12,0,0,0-5.07,5.34v0a5.17,5.17,0,0,0,5.11,5.38,5.12,5.12,0,0,0,5.07-5.34Zm-7.07-7.09V49.44h1.18V50.8Zm2.78,0V49.44h1.18V50.8Z" style="fill:#fff"/><path d="M270.94,63.86l-3.81-5h-3.91v5h-.89v-12h5c2.58,0,4.27,1.4,4.27,3.4v0c0,2-1.49,3.14-3.5,3.42l3.94,5.11Zm-.21-8.52c0-1.6-1.26-2.61-3.43-2.61h-4.08v5.38h4c2,0,3.48-1,3.48-2.73Z" style="fill:#fff"/><path d="M279.41,54.75l-.67-.44c1-1.59,2.15-2.56,4.25-2.56a3.35,3.35,0,0,1,3.55,3.3c0,1.66-.89,2.75-3,4.66L279.9,63h6.76v.85H278.5V63.2l4.46-4c2-1.79,2.65-2.82,2.65-4.08a2.58,2.58,0,0,0-2.7-2.56C281.39,52.53,280.4,53.31,279.41,54.75Z" style="fill:#fff"/><path d="M293.52,64.07c-3,0-4.93-2.85-4.93-6.16s1.93-6.2,5-6.2,4.93,2.85,4.93,6.16S296.56,64.07,293.52,64.07Zm0-11.56c-2.48,0-4,2.56-4,5.36s1.57,5.4,4,5.4,4-2.56,4-5.36S296,52.51,293.52,52.51Z" style="fill:#fff"/><path d="M302.37,51.83h.68v12h-.87V52.75l-2.3.79-.24-.7Z" style="fill:#fff"/><path d="M310.27,64c-2.51,0-4.44-1.38-4.44-3.38,0-1.42,1.14-2.48,2.65-3a3.11,3.11,0,0,1-2.24-2.8c0-1.88,2-3.14,4-3.14s4,1.26,4,3.14a3.11,3.11,0,0,1-2.24,2.8c1.5.5,2.65,1.55,2.65,3C314.71,62.65,312.78,64,310.27,64Zm0-5.92c-1.95,0-3.52,1.08-3.52,2.58s1.31,2.54,3.52,2.54,3.52-1.18,3.52-2.54S312.21,58.11,310.27,58.11Zm0-5.57c-1.74,0-3.11,1-3.11,2.34s1.42,2.48,3.11,2.48,3.11-1,3.11-2.48S312,52.54,310.27,52.54Z" style="fill:#fff"/><path d="M112.25,45.72l-5.16-6.51v6.51h-.52V38.39h.51l5.06,6.38V38.39h.52v7.33Z" style="fill:#939598"/><path d="M118.18,45.85a3.65,3.65,0,0,1-3.67-3.77v0a3.69,3.69,0,1,1,7.37,0s0,0,0,0A3.69,3.69,0,0,1,118.18,45.85Zm3.13-3.79a3.17,3.17,0,0,0-3.13-3.3A3.14,3.14,0,0,0,115.08,42v0a3.17,3.17,0,0,0,3.13,3.3,3.14,3.14,0,0,0,3.11-3.28Z" style="fill:#939598"/><path d="M130.09,45.72V39.36l-2.9,4.22h0l-2.9-4.22v6.36h-.52V38.39h.51l2.94,4.33,2.94-4.33h.51v7.33Z" style="fill:#939598"/><path d="M132.88,45.72V38.39h.54v7.33Z" style="fill:#939598"/><path d="M141.36,45.72l-5.16-6.51v6.51h-.52V38.39h.51l5.06,6.38V38.39h.52v7.33Z" style="fill:#939598"/><path d="M143.94,45.72V38.39h5.21v.5h-4.67v2.88h4.2v.5h-4.2v2.94h4.72v.5Z" style="fill:#939598"/><path d="M156.22,45.72l-2.33-3h-2.4v3h-.54V38.39H154c1.58,0,2.62.86,2.62,2.08v0c0,1.22-.91,1.93-2.15,2.09l2.42,3.13Zm-.13-5.22c0-1-.77-1.6-2.1-1.6h-2.5v3.3H154c1.23,0,2.14-.62,2.14-1.67Z" style="fill:#939598"/><path d="M164.63,45.72l-.93-2.05h-4.32l-.93,2.05h-.57l3.41-7.38h.52l3.41,7.38Zm-3.09-6.78-1.94,4.24h3.86Z" style="fill:#939598"/><path d="M169.21,45.72h-2.44V38.39h2.44A3.65,3.65,0,0,1,173.11,42v0A3.67,3.67,0,0,1,169.21,45.72Zm3.33-3.66a3.13,3.13,0,0,0-3.33-3.16h-1.89v6.32h1.89a3.11,3.11,0,0,0,3.33-3.14Z" style="fill:#939598"/><path d="M180.67,38.9v6.83h-.54V38.9h-2.55v-.5h5.65v.5Z" style="fill:#939598"/><path d="M184.95,45.72V38.39h.54v7.33Z" style="fill:#939598"/><path d="M187.74,45.72V38.39h.54v6.83h4.3v.5Z" style="fill:#939598"/><path d="M194.22,45.72V38.39h.54v6.83h4.3v.5Z" style="fill:#939598"/><path d="M105.6,137.09v0a5.26,5.26,0,0,1,5.46-5.27,5.91,5.91,0,0,1,4.11,1.48l-1.65,2a3.58,3.58,0,0,0-2.45-1,2.66,2.66,0,0,0-2.59,2.78v0a2.68,2.68,0,0,0,2.75,2.81,2.87,2.87,0,0,0,1.62-.42v-1.23h-2V136.2h4.66v4.56a6.85,6.85,0,0,1-4.4,1.56A5.21,5.21,0,0,1,105.6,137.09Z" style="fill:#fff"/><path d="M116.9,137.68V132h2.85v5.63c0,1.46.74,2.16,1.87,2.16s1.87-.67,1.87-2.09V132h2.85v5.62c0,3.27-1.87,4.71-4.75,4.71S116.9,140.85,116.9,137.68Z" style="fill:#fff"/><path d="M127.68,132h2.81v7.67h4.91v2.46h-7.72Z" style="fill:#fff"/><path d="M136.24,132h3.91c3.62,0,5.72,2.09,5.72,5v0c0,2.93-2.13,5.1-5.78,5.1h-3.85Zm4,7.65a2.49,2.49,0,0,0,2.8-2.56v0a2.49,2.49,0,0,0-2.8-2.56h-1.14v5.16Z" style="fill:#fff"/><path d="M146.23,140.62l1.56-1.87a5.22,5.22,0,0,0,3.29,1.22c.75,0,1.16-.26,1.16-.69v0c0-.42-.33-.65-1.71-1-2.16-.49-3.82-1.1-3.82-3.19v0c0-1.88,1.49-3.24,3.92-3.24a6.38,6.38,0,0,1,4.17,1.35l-1.4,2a5.08,5.08,0,0,0-2.84-1c-.68,0-1,.29-1,.65v0c0,.46.35.67,1.75,1,2.33.51,3.78,1.26,3.78,3.16v0c0,2.07-1.64,3.3-4.1,3.3A7.08,7.08,0,0,1,146.23,140.62Z" style="fill:#fff"/><path d="M158.63,134.45h-3V132h8.89v2.46h-3v7.67h-2.81Z" style="fill:#fff"/><path d="M171.48,131.92h-2.71l-4.32,10.21h3l.72-1.81H172l.74,1.81h3ZM169,138.13l1.14-2.88,1.13,2.88Z" style="fill:#fff"/><path d="M176.54,132h2.62l4.17,5.36V132h2.78v10.14h-2.46l-4.33-5.56v5.56h-2.78Z" style="fill:#fff"/><path d="M187.28,132h2.81v4.11l3.49-4.11h3.33l-3.84,4.36,4,5.78h-3.37l-2.55-3.76-1,1.14v2.62h-2.81Z" style="fill:#fff"/><circle cx="166.41" cy="133.23" r="1.25" style="fill:#fff"/><circle cx="173.86" cy="133.23" r="1.25" style="fill:#fff"/><line x1="105.91" y1="122.01" x2="141.53" y2="122.01" style="fill:none;stroke:#fff;stroke-miterlimit:10;stroke-width:0.5px"/><path d="M104.87,23.83a7,7,0,0,1,1.26-2.37,6.08,6.08,0,0,1,2.11-1.64,7.41,7.41,0,0,1,5.89,0,6.1,6.1,0,0,1,2.1,1.64,7,7,0,0,1,1.26,2.37,9.68,9.68,0,0,1,0,5.64,6.94,6.94,0,0,1-1.26,2.36,6.14,6.14,0,0,1-2.1,1.63,7.41,7.41,0,0,1-5.89,0,6.11,6.11,0,0,1-2.11-1.63,6.93,6.93,0,0,1-1.26-2.36,9.68,9.68,0,0,1,0-5.64Zm1.25,5.11a6.14,6.14,0,0,0,1,2,4.83,4.83,0,0,0,1.67,1.43,5.15,5.15,0,0,0,2.44.54,5.09,5.09,0,0,0,2.43-.54A4.86,4.86,0,0,0,115.28,31a6.15,6.15,0,0,0,1-2,8.66,8.66,0,0,0,0-4.59,6.17,6.17,0,0,0-1-2,4.87,4.87,0,0,0-1.66-1.43,5.09,5.09,0,0,0-2.43-.54,5.15,5.15,0,0,0-2.44.54,4.83,4.83,0,0,0-1.67,1.43,6.16,6.16,0,0,0-1,2,8.65,8.65,0,0,0,0,4.59Z" style="fill:#fff"/><path d="M126.37,19.51a5.29,5.29,0,0,1,1.74.27,3.67,3.67,0,0,1,1.34.8,3.54,3.54,0,0,1,.86,1.29,5.08,5.08,0,0,1,0,3.44,3.54,3.54,0,0,1-.86,1.29,3.66,3.66,0,0,1-1.34.8,5.29,5.29,0,0,1-1.74.27h-5v6.12H120V19.51Zm-.3,7a3.52,3.52,0,0,0,2.3-.72,2.68,2.68,0,0,0,.88-2.2,2.68,2.68,0,0,0-.88-2.2,3.52,3.52,0,0,0-2.3-.72h-4.68v5.84Z" style="fill:#fff"/><path d="M142.49,19.51v1.16H134v5.16h8V27h-8v5.64h8.6v1.16h-10V19.51Z" style="fill:#fff"/><path d="M151,19.51a6.21,6.21,0,0,1,1.67.22,4,4,0,0,1,1.38.67,3.24,3.24,0,0,1,.94,1.16,3.74,3.74,0,0,1,.35,1.67,4,4,0,0,1-.7,2.36,3.19,3.19,0,0,1-2.08,1.28v0a3.18,3.18,0,0,1,1.16.37,2.33,2.33,0,0,1,.75.69,2.85,2.85,0,0,1,.42,1,7.16,7.16,0,0,1,.17,1.19q0,.36,0,.88t.08,1a6.45,6.45,0,0,0,.19,1,1.9,1.9,0,0,0,.35.73h-1.5a1.75,1.75,0,0,1-.19-.49,4.29,4.29,0,0,1-.1-.6q0-.31-.05-.61c0-.2,0-.37,0-.52q0-.76-.13-1.51a4.14,4.14,0,0,0-.38-1.34,2.37,2.37,0,0,0-.84-1,2.54,2.54,0,0,0-1.51-.32h-5.16v6.34h-1.36V19.51Zm-.1,6.78a3.64,3.64,0,0,0,1.18-.19,2.94,2.94,0,0,0,1-.55,2.7,2.7,0,0,0,.67-.87,2.63,2.63,0,0,0,.25-1.17,2.81,2.81,0,0,0-.76-2.08,3.16,3.16,0,0,0-2.32-.76h-5.08v5.62Z" style="fill:#fff"/><path d="M163.53,19.51l5.6,14.28h-1.46l-1.74-4.44h-6.5l-1.72,4.44h-1.44L162,19.51Zm1.94,8.68-2.76-7.32-2.86,7.32Z" style="fill:#fff"/><path d="M178.85,19.51v1.16h-5V33.79h-1.36V20.67h-5V19.51Z" style="fill:#fff"/><path d="M181.65,19.51V33.79h-1.36V19.51Z" style="fill:#fff"/><path d="M184.29,23.83a7,7,0,0,1,1.26-2.37,6.07,6.07,0,0,1,2.11-1.64,7.42,7.42,0,0,1,5.89,0,6.1,6.1,0,0,1,2.1,1.64,7,7,0,0,1,1.26,2.37,9.68,9.68,0,0,1,0,5.64,6.93,6.93,0,0,1-1.26,2.36,6.14,6.14,0,0,1-2.1,1.63,7.42,7.42,0,0,1-5.89,0,6.11,6.11,0,0,1-2.11-1.63,6.93,6.93,0,0,1-1.26-2.36,9.68,9.68,0,0,1,0-5.64Zm1.25,5.11a6.17,6.17,0,0,0,1,2,4.83,4.83,0,0,0,1.67,1.43,5.15,5.15,0,0,0,2.44.54,5.09,5.09,0,0,0,2.43-.54A4.85,4.85,0,0,0,194.7,31a6.15,6.15,0,0,0,1-2,8.63,8.63,0,0,0,0-4.59,6.17,6.17,0,0,0-1-2A4.86,4.86,0,0,0,193,20.91a5.08,5.08,0,0,0-2.43-.54,5.14,5.14,0,0,0-2.44.54,4.84,4.84,0,0,0-1.67,1.43,6.19,6.19,0,0,0-1,2,8.66,8.66,0,0,0,0,4.59Z" style="fill:#fff"/><path d="M200.95,19.51l8.32,12.08h0V19.51h1.36V33.79h-1.52l-8.32-12.08h0V33.79h-1.36V19.51Z" style="fill:#fff"/><path d="M214.51,30.93a3,3,0,0,0,1,1.18,4.12,4.12,0,0,0,1.49.63,8.52,8.52,0,0,0,1.84.19,5.19,5.19,0,0,0,1.22-.16,4.25,4.25,0,0,0,1.23-.51,3.13,3.13,0,0,0,.95-.9,2.28,2.28,0,0,0,.38-1.33,2,2,0,0,0-.27-1,2.46,2.46,0,0,0-.7-.74,4.12,4.12,0,0,0-1-.49,9.27,9.27,0,0,0-1-.31l-3.18-.78a9.39,9.39,0,0,1-1.21-.4,3.43,3.43,0,0,1-1-.64,3,3,0,0,1-.71-1,3.34,3.34,0,0,1-.27-1.42,4.51,4.51,0,0,1,.2-1.22,3.38,3.38,0,0,1,.75-1.32,4.37,4.37,0,0,1,1.51-1,6.05,6.05,0,0,1,2.46-.43,7.18,7.18,0,0,1,2,.28,5,5,0,0,1,1.68.84,4,4,0,0,1,1.58,3.32h-1.36a3.31,3.31,0,0,0-.37-1.43,3.2,3.2,0,0,0-.86-1,3.77,3.77,0,0,0-1.22-.62,5,5,0,0,0-1.45-.21,6,6,0,0,0-1.35.15,3.4,3.4,0,0,0-1.14.48,2.49,2.49,0,0,0-.79.87,2.73,2.73,0,0,0-.3,1.34,2.07,2.07,0,0,0,.17.87,1.84,1.84,0,0,0,.47.63,2.49,2.49,0,0,0,.69.42,5.22,5.22,0,0,0,.83.26l3.48.86a10,10,0,0,1,1.43.49,4.74,4.74,0,0,1,1.18.72,3,3,0,0,1,.8,1.05A3.52,3.52,0,0,1,224,30a5.45,5.45,0,0,1,0,.64,3.21,3.21,0,0,1-.24.85,4.25,4.25,0,0,1-.54.91,3.41,3.41,0,0,1-1,.83,5.55,5.55,0,0,1-1.51.6,8.82,8.82,0,0,1-2.16.23,9,9,0,0,1-2.34-.29,5,5,0,0,1-1.84-.89,3.91,3.91,0,0,1-1.17-1.54,5,5,0,0,1-.35-2.26h1.36A4,4,0,0,0,214.51,30.93Z" style="fill:#fff"/><path d="M227.49,19.51v7.68l8.3-7.68h1.84l-6.38,5.9,6.68,8.38h-1.76l-5.94-7.44-2.74,2.54v4.9h-1.36V19.51Z" style="fill:#fff"/><path d="M238.75,23.83A7,7,0,0,1,240,21.46a6.07,6.07,0,0,1,2.11-1.64,7.42,7.42,0,0,1,5.89,0,6.1,6.1,0,0,1,2.1,1.64,7,7,0,0,1,1.26,2.37,9.68,9.68,0,0,1,0,5.64,6.93,6.93,0,0,1-1.26,2.36,6.14,6.14,0,0,1-2.1,1.63,7.42,7.42,0,0,1-5.89,0A6.11,6.11,0,0,1,240,31.83a6.93,6.93,0,0,1-1.26-2.36,9.68,9.68,0,0,1,0-5.64ZM240,28.94a6.17,6.17,0,0,0,1,2,4.83,4.83,0,0,0,1.67,1.43,5.15,5.15,0,0,0,2.44.54,5.09,5.09,0,0,0,2.43-.54A4.85,4.85,0,0,0,249.16,31a6.15,6.15,0,0,0,1-2,8.63,8.63,0,0,0,0-4.59,6.17,6.17,0,0,0-1-2,4.86,4.86,0,0,0-1.66-1.43,5.08,5.08,0,0,0-2.43-.54,5.14,5.14,0,0,0-2.44.54A4.84,4.84,0,0,0,241,22.34a6.19,6.19,0,0,0-1,2,8.66,8.66,0,0,0,0,4.59Z" style="fill:#fff"/><path d="M255.27,19.51V32.63h8v1.16h-9.36V19.51Z" style="fill:#fff"/><path d="M266,19.51V32.63h8v1.16h-9.36V19.51Z" style="fill:#fff"/><path d="M285.25,19.51v1.16h-8.5v5.16h8V27h-8v5.64h8.6v1.16h-10V19.51Z" style="fill:#fff"/><path d="M288.75,19.51l8.32,12.08h0V19.51h1.36V33.79h-1.52l-8.32-12.08h0V33.79h-1.36V19.51Z" style="fill:#fff"/><path d="M111.09,77.15a5,5,0,0,1,1.34.18,3.22,3.22,0,0,1,1.1.54,2.59,2.59,0,0,1,.75.93,3,3,0,0,1,.28,1.34A3.21,3.21,0,0,1,114,82a2.55,2.55,0,0,1-1.66,1v0a2.55,2.55,0,0,1,.93.3,1.86,1.86,0,0,1,.6.55,2.29,2.29,0,0,1,.34.78,5.69,5.69,0,0,1,.14,1c0,.19,0,.43,0,.7s0,.56.06.84a5.23,5.23,0,0,0,.15.8,1.53,1.53,0,0,0,.28.58h-1.2a1.44,1.44,0,0,1-.15-.39,3.6,3.6,0,0,1-.08-.48c0-.17,0-.33,0-.49s0-.3,0-.42q0-.61-.1-1.21a3.31,3.31,0,0,0-.3-1.07,1.9,1.9,0,0,0-.67-.76,2,2,0,0,0-1.21-.26h-4.13v5.07h-1.09V77.15ZM111,82.58a2.91,2.91,0,0,0,.94-.15,2.35,2.35,0,0,0,.78-.44,2.17,2.17,0,0,0,.54-.7,2.1,2.1,0,0,0,.2-.94,2.25,2.25,0,0,0-.61-1.66,2.53,2.53,0,0,0-1.86-.61h-4.06v4.5Z" style="fill:#fff"/><path d="M116.26,80.61a5.64,5.64,0,0,1,1-1.9A4.86,4.86,0,0,1,119,77.4a5.93,5.93,0,0,1,4.71,0,4.88,4.88,0,0,1,1.68,1.31,5.63,5.63,0,0,1,1,1.9,7.74,7.74,0,0,1,0,4.51,5.53,5.53,0,0,1-1,1.89,4.92,4.92,0,0,1-1.68,1.3,5.94,5.94,0,0,1-4.71,0,4.9,4.9,0,0,1-1.69-1.3,5.55,5.55,0,0,1-1-1.89,7.74,7.74,0,0,1,0-4.51Zm1,4.09a4.9,4.9,0,0,0,.77,1.62,3.86,3.86,0,0,0,1.34,1.14,4.12,4.12,0,0,0,2,.43,4.07,4.07,0,0,0,1.94-.43,3.89,3.89,0,0,0,1.33-1.14,4.91,4.91,0,0,0,.77-1.62,6.92,6.92,0,0,0,0-3.67,4.92,4.92,0,0,0-.77-1.61,3.89,3.89,0,0,0-1.33-1.14,4.07,4.07,0,0,0-1.94-.43,4.12,4.12,0,0,0-2,.43A3.86,3.86,0,0,0,118,79.42a4.9,4.9,0,0,0-.77,1.61,6.92,6.92,0,0,0,0,3.67Zm2.09-10.34h1.09V76h-1.09Zm2.83,0h1.09V76h-1.09Z" style="fill:#fff"/><path d="M129.17,86.29a2.42,2.42,0,0,0,.79.94,3.32,3.32,0,0,0,1.19.5,6.8,6.8,0,0,0,1.47.15,4.14,4.14,0,0,0,1-.13,3.39,3.39,0,0,0,1-.41,2.5,2.5,0,0,0,.76-.72,1.83,1.83,0,0,0,.3-1.06,1.56,1.56,0,0,0-.22-.83,2,2,0,0,0-.56-.59,3.31,3.31,0,0,0-.76-.39,7.77,7.77,0,0,0-.82-.25l-2.54-.62a7.58,7.58,0,0,1-1-.32A2.76,2.76,0,0,1,129,82a2.43,2.43,0,0,1-.57-.78,2.68,2.68,0,0,1-.22-1.14,3.62,3.62,0,0,1,.16-1,2.72,2.72,0,0,1,.6-1.06,3.5,3.5,0,0,1,1.21-.84,4.85,4.85,0,0,1,2-.34,5.78,5.78,0,0,1,1.62.22,4,4,0,0,1,1.34.67,3.23,3.23,0,0,1,1.26,2.66h-1.09a2.64,2.64,0,0,0-.3-1.14,2.56,2.56,0,0,0-.69-.82,3,3,0,0,0-1-.5,4,4,0,0,0-1.16-.17,4.77,4.77,0,0,0-1.08.12,2.71,2.71,0,0,0-.91.38,2,2,0,0,0-.63.7,2.18,2.18,0,0,0-.24,1.07,1.65,1.65,0,0,0,.14.7,1.47,1.47,0,0,0,.38.5,2,2,0,0,0,.55.34,4.29,4.29,0,0,0,.66.21l2.78.69a8.08,8.08,0,0,1,1.14.39,3.8,3.8,0,0,1,.94.58,2.44,2.44,0,0,1,.64.84,2.82,2.82,0,0,1,.23,1.2,4.43,4.43,0,0,1,0,.51,2.6,2.6,0,0,1-.19.68,3.42,3.42,0,0,1-.43.73,2.72,2.72,0,0,1-.77.66,4.43,4.43,0,0,1-1.21.48,7.1,7.1,0,0,1-1.73.18,7.22,7.22,0,0,1-1.87-.23,4,4,0,0,1-1.47-.71,3.13,3.13,0,0,1-.94-1.23,4,4,0,0,1-.28-1.81h1.09A3.22,3.22,0,0,0,129.17,86.29Z" style="fill:#fff"/><path d="M146.29,77.15v.93h-4v10.5h-1.09V78.08h-4v-.93Z" style="fill:#fff"/><path d="M150.84,77.15l4.48,11.42h-1.17L152.76,85h-5.2l-1.38,3.55H145l4.59-11.42Zm1.55,6.94-2.21-5.86-2.29,5.86Z" style="fill:#fff"/><path d="M165.87,77.15a4.25,4.25,0,0,1,1.39.22,2.93,2.93,0,0,1,1.07.64,2.85,2.85,0,0,1,.69,1,4.06,4.06,0,0,1,0,2.75,2.84,2.84,0,0,1-.69,1,2.93,2.93,0,0,1-1.07.64,4.22,4.22,0,0,1-1.39.22h-4v4.9H160.8V77.15Zm-.24,5.6a2.81,2.81,0,0,0,1.84-.58,2.55,2.55,0,0,0,0-3.52,2.82,2.82,0,0,0-1.84-.58h-3.74v4.67Z" style="fill:#fff"/><path d="M169.64,88.58l4.59-10.94h1.22l4.48,10.94h-1.17l-1.34-3.39h-5.26l-1.36,3.39Zm2.88-4.32H177l-2.26-5.68Zm.56-8.93a1.74,1.74,0,0,0,.13.66,1.65,1.65,0,0,0,.36.54,1.74,1.74,0,0,0,.54.37,1.69,1.69,0,0,0,1.33,0,1.74,1.74,0,0,0,.91-.91,1.69,1.69,0,0,0,0-1.33,1.74,1.74,0,0,0-.91-.91,1.69,1.69,0,0,0-1.33,0,1.75,1.75,0,0,0-.54.37,1.66,1.66,0,0,0-.36.54A1.74,1.74,0,0,0,173.07,75.33Zm.61,0a1.06,1.06,0,1,1,.31.78A1.05,1.05,0,0,1,173.68,75.33Z" style="fill:#fff"/><path d="M185.14,80.61a5.64,5.64,0,0,1,1-1.9,4.86,4.86,0,0,1,1.69-1.31,5.93,5.93,0,0,1,4.71,0,4.88,4.88,0,0,1,1.68,1.31,5.63,5.63,0,0,1,1,1.9,7.74,7.74,0,0,1,0,4.51,5.53,5.53,0,0,1-1,1.89,4.92,4.92,0,0,1-1.68,1.3,5.94,5.94,0,0,1-4.71,0,4.9,4.9,0,0,1-1.69-1.3,5.55,5.55,0,0,1-1-1.89,7.74,7.74,0,0,1,0-4.51Zm1,4.09a4.9,4.9,0,0,0,.77,1.62,3.86,3.86,0,0,0,1.34,1.14,4.12,4.12,0,0,0,2,.43,4.07,4.07,0,0,0,1.94-.43,3.89,3.89,0,0,0,1.33-1.14,4.91,4.91,0,0,0,.77-1.62,6.92,6.92,0,0,0,0-3.67,4.92,4.92,0,0,0-.77-1.61,3.89,3.89,0,0,0-1.33-1.14,4.07,4.07,0,0,0-1.94-.43,4.12,4.12,0,0,0-2,.43,3.86,3.86,0,0,0-1.34,1.14,4.9,4.9,0,0,0-.77,1.61,6.92,6.92,0,0,0,0,3.67Z" style="fill:#fff"/><path d="M198.05,86.29a2.42,2.42,0,0,0,.79.94,3.32,3.32,0,0,0,1.19.5,6.8,6.8,0,0,0,1.47.15,4.14,4.14,0,0,0,1-.13,3.39,3.39,0,0,0,1-.41,2.5,2.5,0,0,0,.76-.72,1.83,1.83,0,0,0,.3-1.06,1.56,1.56,0,0,0-.22-.83,2,2,0,0,0-.56-.59,3.31,3.31,0,0,0-.76-.39,7.77,7.77,0,0,0-.82-.25l-2.54-.62a7.58,7.58,0,0,1-1-.32,2.76,2.76,0,0,1-.82-.51,2.43,2.43,0,0,1-.57-.78,2.68,2.68,0,0,1-.22-1.14,3.62,3.62,0,0,1,.16-1,2.72,2.72,0,0,1,.6-1.06,3.5,3.5,0,0,1,1.21-.84,4.85,4.85,0,0,1,2-.34,5.78,5.78,0,0,1,1.62.22,4,4,0,0,1,1.34.67,3.23,3.23,0,0,1,1.26,2.66h-1.09a2.64,2.64,0,0,0-.3-1.14,2.56,2.56,0,0,0-.69-.82,3,3,0,0,0-1-.5,4,4,0,0,0-1.16-.17,4.77,4.77,0,0,0-1.08.12,2.71,2.71,0,0,0-.91.38,2,2,0,0,0-.63.7,2.18,2.18,0,0,0-.24,1.07,1.65,1.65,0,0,0,.14.7,1.47,1.47,0,0,0,.38.5,2,2,0,0,0,.55.34,4.29,4.29,0,0,0,.66.21l2.78.69a8.08,8.08,0,0,1,1.14.39,3.8,3.8,0,0,1,.94.58,2.44,2.44,0,0,1,.64.84,2.82,2.82,0,0,1,.23,1.2,4.43,4.43,0,0,1,0,.51,2.6,2.6,0,0,1-.19.68,3.42,3.42,0,0,1-.43.73,2.72,2.72,0,0,1-.77.66,4.43,4.43,0,0,1-1.21.48,7.1,7.1,0,0,1-1.73.18,7.22,7.22,0,0,1-1.87-.23,4,4,0,0,1-1.47-.71,3.13,3.13,0,0,1-.94-1.23,4,4,0,0,1-.28-1.81h1.09A3.22,3.22,0,0,0,198.05,86.29Z" style="fill:#fff"/><path d="M208.13,86.29a2.42,2.42,0,0,0,.79.94,3.32,3.32,0,0,0,1.19.5,6.8,6.8,0,0,0,1.47.15,4.14,4.14,0,0,0,1-.13,3.39,3.39,0,0,0,1-.41,2.5,2.5,0,0,0,.76-.72,1.83,1.83,0,0,0,.3-1.06,1.56,1.56,0,0,0-.22-.83,2,2,0,0,0-.56-.59,3.31,3.31,0,0,0-.76-.39,7.77,7.77,0,0,0-.82-.25l-2.54-.62a7.58,7.58,0,0,1-1-.32,2.76,2.76,0,0,1-.82-.51,2.43,2.43,0,0,1-.57-.78,2.68,2.68,0,0,1-.22-1.14,3.62,3.62,0,0,1,.16-1,2.72,2.72,0,0,1,.6-1.06,3.5,3.5,0,0,1,1.21-.84,4.85,4.85,0,0,1,2-.34,5.78,5.78,0,0,1,1.62.22,4,4,0,0,1,1.34.67,3.23,3.23,0,0,1,1.26,2.66h-1.09a2.64,2.64,0,0,0-.3-1.14,2.56,2.56,0,0,0-.69-.82,3,3,0,0,0-1-.5,4,4,0,0,0-1.16-.17A4.77,4.77,0,0,0,210,78a2.71,2.71,0,0,0-.91.38,2,2,0,0,0-.63.7,2.18,2.18,0,0,0-.24,1.07,1.65,1.65,0,0,0,.14.7,1.47,1.47,0,0,0,.38.5,2,2,0,0,0,.55.34,4.29,4.29,0,0,0,.66.21l2.78.69a8.08,8.08,0,0,1,1.14.39,3.8,3.8,0,0,1,.94.58,2.44,2.44,0,0,1,.64.84,2.82,2.82,0,0,1,.23,1.2,4.43,4.43,0,0,1,0,.51,2.6,2.6,0,0,1-.19.68,3.42,3.42,0,0,1-.43.73,2.72,2.72,0,0,1-.77.66,4.43,4.43,0,0,1-1.21.48,7.1,7.1,0,0,1-1.73.18,7.22,7.22,0,0,1-1.87-.23,4,4,0,0,1-1.47-.71,3.13,3.13,0,0,1-.94-1.23,4,4,0,0,1-.28-1.81h1.09A3.22,3.22,0,0,0,208.13,86.29Z" style="fill:#fff"/><path d="M217.54,86.88h1.34v1.7h-1.34Zm.13-9.73h1.09v3.41l-.24,5.17h-.61l-.24-5.17Z" style="fill:#fff"/><path d="M106.64,107.89a2.42,2.42,0,0,0,.79.94,3.32,3.32,0,0,0,1.19.5,6.8,6.8,0,0,0,1.47.15,4.14,4.14,0,0,0,1-.13,3.39,3.39,0,0,0,1-.41,2.5,2.5,0,0,0,.76-.72,1.83,1.83,0,0,0,.3-1.06,1.56,1.56,0,0,0-.22-.83,2,2,0,0,0-.56-.59,3.31,3.31,0,0,0-.76-.39,7.77,7.77,0,0,0-.82-.25l-2.54-.62a7.58,7.58,0,0,1-1-.32,2.76,2.76,0,0,1-.82-.51,2.43,2.43,0,0,1-.57-.78,2.68,2.68,0,0,1-.22-1.14,3.62,3.62,0,0,1,.16-1,2.72,2.72,0,0,1,.6-1.06,3.5,3.5,0,0,1,1.21-.84,4.85,4.85,0,0,1,2-.34,5.78,5.78,0,0,1,1.62.22,4,4,0,0,1,1.34.67,3.23,3.23,0,0,1,1.26,2.66h-1.09a2.64,2.64,0,0,0-.3-1.14,2.56,2.56,0,0,0-.69-.82,3,3,0,0,0-1-.5,4,4,0,0,0-1.16-.17,4.77,4.77,0,0,0-1.08.12,2.71,2.71,0,0,0-.91.38,2,2,0,0,0-.63.7,2.18,2.18,0,0,0-.24,1.07,1.65,1.65,0,0,0,.14.7,1.47,1.47,0,0,0,.38.5,2,2,0,0,0,.55.34,4.29,4.29,0,0,0,.66.21l2.78.69a8.08,8.08,0,0,1,1.14.39,3.8,3.8,0,0,1,.94.58,2.44,2.44,0,0,1,.64.84,2.82,2.82,0,0,1,.23,1.2,4.43,4.43,0,0,1,0,.51,2.6,2.6,0,0,1-.19.68,3.42,3.42,0,0,1-.43.73,2.72,2.72,0,0,1-.77.66,4.43,4.43,0,0,1-1.21.48,7.1,7.1,0,0,1-1.73.18,7.22,7.22,0,0,1-1.87-.23,4,4,0,0,1-1.47-.71,3.13,3.13,0,0,1-.94-1.23,4,4,0,0,1-.28-1.81h1.09A3.22,3.22,0,0,0,106.64,107.89Z" style="fill:#fff"/><path d="M117.51,98.75l3.79,10,3.94-10h1.6v11.42h-1.09V100.3h0l-3.9,9.87h-1L117,100.3h0v9.87h-1.09V98.75Z" style="fill:#fff"/><path d="M129.86,107.89a2.42,2.42,0,0,0,.79.94,3.32,3.32,0,0,0,1.19.5,6.8,6.8,0,0,0,1.47.15,4.14,4.14,0,0,0,1-.13,3.39,3.39,0,0,0,1-.41,2.5,2.5,0,0,0,.76-.72,1.83,1.83,0,0,0,.3-1.06,1.56,1.56,0,0,0-.22-.83,2,2,0,0,0-.56-.59,3.31,3.31,0,0,0-.76-.39,7.77,7.77,0,0,0-.82-.25l-2.54-.62a7.58,7.58,0,0,1-1-.32,2.76,2.76,0,0,1-.82-.51,2.43,2.43,0,0,1-.57-.78,2.68,2.68,0,0,1-.22-1.14,3.62,3.62,0,0,1,.16-1,2.72,2.72,0,0,1,.6-1.06,3.5,3.5,0,0,1,1.21-.84,4.85,4.85,0,0,1,2-.34,5.78,5.78,0,0,1,1.62.22,4,4,0,0,1,1.34.67,3.23,3.23,0,0,1,1.26,2.66h-1.09a2.64,2.64,0,0,0-.3-1.14,2.56,2.56,0,0,0-.69-.82,3,3,0,0,0-1-.5,4,4,0,0,0-1.16-.17,4.77,4.77,0,0,0-1.08.12,2.71,2.71,0,0,0-.91.38,2,2,0,0,0-.63.7,2.18,2.18,0,0,0-.24,1.07,1.65,1.65,0,0,0,.14.7,1.47,1.47,0,0,0,.38.5,2,2,0,0,0,.55.34,4.29,4.29,0,0,0,.66.21l2.78.69a8.08,8.08,0,0,1,1.14.39,3.8,3.8,0,0,1,.94.58,2.44,2.44,0,0,1,.64.84,2.82,2.82,0,0,1,.23,1.2,4.43,4.43,0,0,1,0,.51,2.6,2.6,0,0,1-.19.68,3.42,3.42,0,0,1-.43.73,2.72,2.72,0,0,1-.77.66,4.43,4.43,0,0,1-1.21.48,7.1,7.1,0,0,1-1.73.18,7.22,7.22,0,0,1-1.87-.23,4,4,0,0,1-1.47-.71,3.13,3.13,0,0,1-.94-1.23,4,4,0,0,1-.28-1.81h1.09A3.22,3.22,0,0,0,129.86,107.89Z" style="fill:#fff"/><path d="M139.17,103.2a2.36,2.36,0,0,1,.7-.86,2.92,2.92,0,0,1,1-.5,5,5,0,0,1,1.31-.16,5.78,5.78,0,0,1,1.09.1,2.63,2.63,0,0,1,1,.39,2.14,2.14,0,0,1,.7.81,2.91,2.91,0,0,1,.27,1.35v4.38a.53.53,0,0,0,.59.61.78.78,0,0,0,.32-.06v.85l-.31,0-.34,0a1.53,1.53,0,0,1-.62-.1.83.83,0,0,1-.36-.3,1.09,1.09,0,0,1-.17-.46,3.82,3.82,0,0,1,0-.58h0a6.72,6.72,0,0,1-.55.71,2.78,2.78,0,0,1-.62.52,2.9,2.9,0,0,1-.78.32,4.32,4.32,0,0,1-1,.11,4.13,4.13,0,0,1-1.08-.14,2.42,2.42,0,0,1-.88-.43,2.07,2.07,0,0,1-.59-.75,2.51,2.51,0,0,1-.22-1.08,2.13,2.13,0,0,1,.38-1.35,2.41,2.41,0,0,1,1-.74,5.82,5.82,0,0,1,1.42-.36l1.61-.2.56-.08a1,1,0,0,0,.4-.17.79.79,0,0,0,.25-.33,1.41,1.41,0,0,0,.09-.54,1.85,1.85,0,0,0-.17-.84,1.33,1.33,0,0,0-.46-.52,1.86,1.86,0,0,0-.69-.26,4.66,4.66,0,0,0-.84-.07,2.55,2.55,0,0,0-1.57.46,1.79,1.79,0,0,0-.64,1.46h-1A3.35,3.35,0,0,1,139.17,103.2Zm5,2.46a.58.58,0,0,1-.37.26,3.77,3.77,0,0,1-.48.11l-1.32.2a7.34,7.34,0,0,0-1.24.26,2.42,2.42,0,0,0-.92.5,1.2,1.2,0,0,0-.36.94,1.47,1.47,0,0,0,.15.68,1.66,1.66,0,0,0,.41.51,1.8,1.8,0,0,0,.59.33,2.18,2.18,0,0,0,.69.11,3.44,3.44,0,0,0,1.1-.18,2.72,2.72,0,0,0,.92-.51,2.44,2.44,0,0,0,.86-1.9v-1.31Z" style="fill:#fff"/><path d="M160.52,110.86a3.16,3.16,0,0,1-.66,1.34,3.92,3.92,0,0,1-1.46,1.05,6.29,6.29,0,0,1-2.56.43,5.93,5.93,0,0,1-1.39-.17,4.42,4.42,0,0,1-1.3-.53,3.18,3.18,0,0,1-1-.93,2.69,2.69,0,0,1-.44-1.36h2.54a1.46,1.46,0,0,0,.7,1,2.52,2.52,0,0,0,1.21.28,1.86,1.86,0,0,0,1.58-.65,2.55,2.55,0,0,0,.48-1.64v-1.22h0a2.53,2.53,0,0,1-1.18,1.09,3.82,3.82,0,0,1-1.61.35,4.06,4.06,0,0,1-1.8-.37,3.41,3.41,0,0,1-1.24-1,4.19,4.19,0,0,1-.71-1.49,7.07,7.07,0,0,1-.23-1.81,5.77,5.77,0,0,1,.26-1.74,4.53,4.53,0,0,1,.76-1.48,3.7,3.7,0,0,1,1.25-1,3.76,3.76,0,0,1,1.72-.38A3.6,3.6,0,0,1,157,101a2.78,2.78,0,0,1,1.16,1.15h0v-1.24h2.43v8.71A6.19,6.19,0,0,1,160.52,110.86Zm-3.5-3.1a2,2,0,0,0,.68-.58,2.55,2.55,0,0,0,.4-.82,3.37,3.37,0,0,0,.14-1,5.27,5.27,0,0,0-.11-1.09,2.72,2.72,0,0,0-.36-.91,1.86,1.86,0,0,0-.67-.63,2.11,2.11,0,0,0-1-.23,1.88,1.88,0,0,0-.93.22,1.94,1.94,0,0,0-.65.58,2.44,2.44,0,0,0-.38.85,4.18,4.18,0,0,0-.12,1,5.05,5.05,0,0,0,.1,1,2.71,2.71,0,0,0,.34.89,2,2,0,0,0,.64.65,1.81,1.81,0,0,0,1,.25A2,2,0,0,0,157,107.76Z" style="fill:#d4af37"/><path d="M169,110.18v-1.3H169a2.88,2.88,0,0,1-1.26,1.17,3.71,3.71,0,0,1-1.58.36,4.47,4.47,0,0,1-1.68-.27,2.42,2.42,0,0,1-1-.76,3,3,0,0,1-.53-1.21,7.46,7.46,0,0,1-.15-1.58v-5.72h2.56v5.26a3.26,3.26,0,0,0,.36,1.72,1.4,1.4,0,0,0,1.28.57,1.77,1.77,0,0,0,1.51-.62,3.45,3.45,0,0,0,.47-2v-4.88h2.56v9.31Z" style="fill:#d4af37"/><path d="M176,97.32v12.85h-2.56V97.32Z" style="fill:#d4af37"/><path d="M184.65,109a2.64,2.64,0,0,1-1.18,1.09,3.93,3.93,0,0,1-1.65.33A4,4,0,0,1,180,110a3.69,3.69,0,0,1-1.3-1.1,5,5,0,0,1-.77-1.59,6.69,6.69,0,0,1-.26-1.87,6.29,6.29,0,0,1,.26-1.81,4.69,4.69,0,0,1,.77-1.54,3.75,3.75,0,0,1,3.09-1.48,3.66,3.66,0,0,1,1.58.35,2.75,2.75,0,0,1,1.18,1h0V97.32h2.56v12.85h-2.43V109Zm-.11-4.6a2.69,2.69,0,0,0-.37-.94,2.07,2.07,0,0,0-.67-.66,2,2,0,0,0-1-.25,2.08,2.08,0,0,0-1.06.25,2,2,0,0,0-.69.67,3,3,0,0,0-.38.95,5.12,5.12,0,0,0-.12,1.11,4.74,4.74,0,0,0,.13,1.08,2.93,2.93,0,0,0,.41,1,2.24,2.24,0,0,0,.7.68,1.9,1.9,0,0,0,1,.26,2,2,0,0,0,1.05-.25,1.93,1.93,0,0,0,.68-.67,3,3,0,0,0,.36-1,5.65,5.65,0,0,0,.11-1.12A5.53,5.53,0,0,0,184.54,104.39Z" style="fill:#d4af37"/><path d="M191.19,107.86a1.49,1.49,0,0,0,.44.49,1.88,1.88,0,0,0,.62.28,3,3,0,0,0,.73.09,2.68,2.68,0,0,0,.57-.06,1.91,1.91,0,0,0,.54-.2,1.22,1.22,0,0,0,.4-.36.94.94,0,0,0,.16-.57q0-.58-.76-.86a15.33,15.33,0,0,0-2.13-.58q-.56-.13-1.09-.3a3.71,3.71,0,0,1-.94-.45,2.18,2.18,0,0,1-.67-.7,2,2,0,0,1-.25-1,2.8,2.8,0,0,1,.35-1.48,2.6,2.6,0,0,1,.93-.91,4.08,4.08,0,0,1,1.3-.47,8,8,0,0,1,1.48-.13,7.39,7.39,0,0,1,1.47.14,3.89,3.89,0,0,1,1.27.49,2.91,2.91,0,0,1,.93.91,3,3,0,0,1,.44,1.43h-2.43a1.12,1.12,0,0,0-.56-1,2.55,2.55,0,0,0-1.19-.26l-.47,0a1.59,1.59,0,0,0-.46.12,1,1,0,0,0-.35.26.69.69,0,0,0-.14.46.7.7,0,0,0,.25.56,1.94,1.94,0,0,0,.66.35,8.29,8.29,0,0,0,.93.24l1.06.23a10.86,10.86,0,0,1,1.09.31,3.6,3.6,0,0,1,.94.48,2.31,2.31,0,0,1,.67.74,2.17,2.17,0,0,1,.25,1.09,2.82,2.82,0,0,1-1.33,2.54,3.93,3.93,0,0,1-1.36.53,8,8,0,0,1-1.56.15,7.77,7.77,0,0,1-1.58-.16,4.2,4.2,0,0,1-1.38-.54,3,3,0,0,1-1.41-2.56H191A1.4,1.4,0,0,0,191.19,107.86Z" style="fill:#d4af37"/><path d="M203.82,100.87v1.71h-1.87v4.61a.87.87,0,0,0,1.08,1.08l.41,0,.38-.05v2a6.2,6.2,0,0,1-.72.07l-.77,0a7.37,7.37,0,0,1-1.12-.08,2.66,2.66,0,0,1-.94-.31,1.67,1.67,0,0,1-.64-.67,2.39,2.39,0,0,1-.23-1.13v-5.49h-1.55v-1.71h1.55V98.08h2.56v2.79Z" style="fill:#d4af37"/><path d="M205.38,102.24a3.06,3.06,0,0,1,1-1,4.39,4.39,0,0,1,1.38-.51,7.86,7.86,0,0,1,1.54-.15,10.53,10.53,0,0,1,1.42.1,4.38,4.38,0,0,1,1.31.39,2.59,2.59,0,0,1,1,.8,2.24,2.24,0,0,1,.38,1.36v4.84a9.55,9.55,0,0,0,.07,1.21,2.15,2.15,0,0,0,.25.86h-2.59a3.53,3.53,0,0,1-.12-.44,3.71,3.71,0,0,1-.06-.46,3.32,3.32,0,0,1-1.44.88,5.77,5.77,0,0,1-1.69.25,4.59,4.59,0,0,1-1.24-.16,2.86,2.86,0,0,1-1-.5,2.35,2.35,0,0,1-.67-.86,2.92,2.92,0,0,1-.24-1.24,2.71,2.71,0,0,1,.28-1.3,2.33,2.33,0,0,1,.72-.82,3.23,3.23,0,0,1,1-.46,11,11,0,0,1,1.14-.24q.58-.09,1.13-.14a6.81,6.81,0,0,0,1-.16,1.72,1.72,0,0,0,.68-.32.69.69,0,0,0,.23-.6,1.36,1.36,0,0,0-.13-.66,1,1,0,0,0-.36-.38,1.43,1.43,0,0,0-.52-.18,4.24,4.24,0,0,0-.64,0,1.94,1.94,0,0,0-1.19.32,1.45,1.45,0,0,0-.5,1.08h-2.56A3,3,0,0,1,205.38,102.24Zm3.22-4.91v2.11h-2.43V97.32Zm1.83,8.52a4.2,4.2,0,0,1-.52.13l-.58.09-.61.09a4.72,4.72,0,0,0-.57.14,1.69,1.69,0,0,0-.49.24,1.16,1.16,0,0,0-.33.39,1.25,1.25,0,0,0-.13.59,1.2,1.2,0,0,0,.13.58,1,1,0,0,0,.34.37,1.46,1.46,0,0,0,.5.19,3.22,3.22,0,0,0,.59.05,2.26,2.26,0,0,0,1.17-.25,1.7,1.7,0,0,0,.61-.6,1.91,1.91,0,0,0,.24-.71,4.81,4.81,0,0,0,0-.58v-1A1.14,1.14,0,0,1,210.43,105.85Zm1.88-8.52v2.11h-2.43V97.32Z" style="fill:#d4af37"/><path d="M217.8,100.87v1.3h.05a2.94,2.94,0,0,1,1.26-1.18,3.65,3.65,0,0,1,1.58-.37,4.35,4.35,0,0,1,1.68.28,2.5,2.5,0,0,1,1,.77,3,3,0,0,1,.53,1.21,7.53,7.53,0,0,1,.15,1.58v5.72h-2.56v-5.26a3.26,3.26,0,0,0-.36-1.72,1.4,1.4,0,0,0-1.28-.57,1.77,1.77,0,0,0-1.51.62,3.45,3.45,0,0,0-.47,2v4.88h-2.56v-9.31Z" style="fill:#d4af37"/><path d="M228.84,97.32v6.89l3.22-3.35h3l-3.51,3.42,3.91,5.89h-3.1L229.83,106l-1,1v3.2h-2.56V97.32Z" style="fill:#d4af37"/><path d="M244.41,110.18v-7.26H241.6V101.2a5.32,5.32,0,0,0,1.14-.09,3,3,0,0,0,1-.37A2.36,2.36,0,0,0,244.88,99h1.81v11.2Z" style="fill:#d4af37"/><path d="M250,101.78a5,5,0,0,1,.89-1.78,3.18,3.18,0,0,1,1.3-1,4.31,4.31,0,0,1,1.58-.29,4.37,4.37,0,0,1,1.59.29,3.24,3.24,0,0,1,1.31,1,4.87,4.87,0,0,1,.9,1.78,9.86,9.86,0,0,1,.33,2.74,10.26,10.26,0,0,1-.33,2.81,4.86,4.86,0,0,1-.9,1.8,3.25,3.25,0,0,1-1.31,1,4.37,4.37,0,0,1-1.59.29,4.31,4.31,0,0,1-1.58-.29,3.19,3.19,0,0,1-1.3-1,5,5,0,0,1-.89-1.8,10.22,10.22,0,0,1-.33-2.81A9.82,9.82,0,0,1,250,101.78Zm2,3.9a6.23,6.23,0,0,0,.2,1.31,2.83,2.83,0,0,0,.54,1.08,1.29,1.29,0,0,0,1.06.45,1.33,1.33,0,0,0,1.08-.45,2.75,2.75,0,0,0,.54-1.08,6.23,6.23,0,0,0,.2-1.31q0-.68,0-1.16c0-.19,0-.42,0-.7a7.88,7.88,0,0,0-.06-.84,7.77,7.77,0,0,0-.16-.86,2.62,2.62,0,0,0-.31-.76,1.71,1.71,0,0,0-.53-.54,1.41,1.41,0,0,0-.78-.21,1.37,1.37,0,0,0-.78.21,1.67,1.67,0,0,0-.51.54,3,3,0,0,0-.31.76,5.87,5.87,0,0,0-.16.86q0,.43-.06.84c0,.27,0,.5,0,.7S251.93,105.23,251.95,105.69Z" style="fill:#d4af37"/><path d="M271.63,98.75v.93h-4v10.5h-1.09V99.68h-4v-.93Z" style="fill:#fff"/><path d="M273.87,98.75v11.42h-1.09V98.75Z" style="fill:#fff"/><path d="M277.34,98.75v10.5h6.4v.93h-7.49V98.75Z" style="fill:#fff"/><path d="M285.93,98.75v10.5h6.4v.93h-7.49V98.75Z" style="fill:#fff"/><path d="M304.75,99.12V100q-.53.54-1.26,1.46a15.15,15.15,0,0,0-1.43,2.19,16.55,16.55,0,0,0-1.22,2.9,13.93,13.93,0,0,0-.62,3.58h-1.09a16.67,16.67,0,0,1,.39-2.69,13.23,13.23,0,0,1,.85-2.47,16.81,16.81,0,0,1,1.38-2.42,26,26,0,0,1,2-2.54h-6.19v-.93Z" style="fill:#fff"/><path d="M308.37,101.06a2.52,2.52,0,0,0,.93-.26,1.73,1.73,0,0,0,.66-.63,3.15,3.15,0,0,0,.38-1.19h.82v11.2h-1v-8.32h-3v-.72Q307.83,101.12,308.37,101.06Z" style="fill:#fff"/><path d="M317.27,101.06a2.52,2.52,0,0,0,.93-.26,1.73,1.73,0,0,0,.66-.63,3.15,3.15,0,0,0,.38-1.19H320v11.2h-1v-8.32h-3v-.72Q316.73,101.12,317.27,101.06Z" style="fill:#fff"/><path d="M324,110.18a3.93,3.93,0,0,1,.29-1.47,4.26,4.26,0,0,1,.72-1.15,6.76,6.76,0,0,1,1-.94q.56-.42,1.15-.82l1.18-.8a7.78,7.78,0,0,0,1-.87,3.48,3.48,0,0,0,.7-1,2.68,2.68,0,0,0,.23-1.16,2.25,2.25,0,0,0-.2-1,2.16,2.16,0,0,0-.54-.72,2.36,2.36,0,0,0-.8-.45,3,3,0,0,0-1-.15,2.51,2.51,0,0,0-1.18.26,2.2,2.2,0,0,0-.79.69,2.89,2.89,0,0,0-.44,1,4.5,4.5,0,0,0-.12,1.18h-1a5.24,5.24,0,0,1,.2-1.59,3.42,3.42,0,0,1,.66-1.26,3,3,0,0,1,1.13-.82,4,4,0,0,1,1.59-.3,4.49,4.49,0,0,1,1.37.2,3.22,3.22,0,0,1,1.1.59,2.68,2.68,0,0,1,.74,1,3.34,3.34,0,0,1,.26,1.38,3.4,3.4,0,0,1-.23,1.28,4,4,0,0,1-.62,1.06,6.21,6.21,0,0,1-.9.89,11,11,0,0,1-1.06.76q-.4.27-.94.6a10,10,0,0,0-1,.73,5.73,5.73,0,0,0-.89.87,2.22,2.22,0,0,0-.48,1h6.22v.93Z" style="fill:#fff"/><path d="M338.76,99.42a3.72,3.72,0,0,1,1.18,1.37,6,6,0,0,1,.58,1.86,13.4,13.4,0,0,1,0,4,6,6,0,0,1-.58,1.86,3.66,3.66,0,0,1-1.18,1.36,4,4,0,0,1-4,0,3.62,3.62,0,0,1-1.19-1.36,6,6,0,0,1-.58-1.86,13.31,13.31,0,0,1,0-4,6,6,0,0,1,.58-1.86,3.68,3.68,0,0,1,1.19-1.37,4,4,0,0,1,4,0Zm-3.53.81a3.15,3.15,0,0,0-.87,1.23,6,6,0,0,0-.39,1.6,13.09,13.09,0,0,0,0,3.18,6.15,6.15,0,0,0,.39,1.6,3.14,3.14,0,0,0,.87,1.24,2.63,2.63,0,0,0,3.07,0,3.15,3.15,0,0,0,.87-1.24,6.19,6.19,0,0,0,.39-1.6,13.22,13.22,0,0,0,0-3.18,6.07,6.07,0,0,0-.39-1.6,3.16,3.16,0,0,0-.87-1.23,2.63,2.63,0,0,0-3.07,0Z" style="fill:#fff"/><path d="M342.47,108.48h1.34v1.7h-1.34Zm.13-9.73h1.09v3.41l-.24,5.17h-.61l-.24-5.17Z" style="fill:#fff"/></svg>