<svg xmlns="http://www.w3.org/2000/svg" viewBox="0 0 492.72 492.72" style=""><title>Resurs 3</title><path style="fill:none;stroke:#009fe3;stroke-miterlimit:10;stroke-width:23px" d="M235.10999999999999,66.36A11.34,11.34 0,1,1 257.78999999999996,66.36A11.34,11.34 0,1,1 235.10999999999999,66.36" class="RgNPapsY_0"></path><path style="fill:none;stroke:#009fe3;stroke-miterlimit:10;stroke-width:23px" d="M234.91,426.36A11.34,11.34 0,1,1 257.59,426.36A11.34,11.34 0,1,1 234.91,426.36" class="RgNPapsY_1"></path><path transform="matrix(0.97, -0.26, 0.26, 0.97, -11.95, 54.2)" style="fill:none;stroke:#009fe3;stroke-miterlimit:10;stroke-width:23px" d="M188.52,72.47A11.34,11.34 0,1,1 211.20000000000002,72.47A11.34,11.34 0,1,1 188.52,72.47" class="RgNPapsY_2"></path><path transform="translate(-98.79 90.11) rotate(-15)" style="fill:none;stroke:#009fe3;stroke-miterlimit:10;stroke-width:23px" d="M281.5,420.25A11.34,11.34 0,1,1 304.17999999999995,420.25A11.34,11.34 0,1,1 281.5,420.25" class="RgNPapsY_3"></path><path transform="translate(-24.25 90.33) rotate(-30)" style="fill:none;stroke:#009fe3;stroke-miterlimit:10;stroke-width:23px" d="M145.1,90.42A11.34,11.34 0,1,1 167.78,90.42A11.34,11.34 0,1,1 145.1,90.42" class="RgNPapsY_4"></path><path transform="translate(-156.1 222.03) rotate(-30)" style="fill:none;stroke:#009fe3;stroke-miterlimit:10;stroke-width:23px" d="M324.93,402.29A11.34,11.34 0,1,1 347.60999999999996,402.29A11.34,11.34 0,1,1 324.93,402.29" class="RgNPapsY_5"></path><path transform="translate(-49.25 119.11) rotate(-45)" style="fill:none;stroke:#009fe3;stroke-miterlimit:10;stroke-width:23px" d="M107.81,119.01A11.34,11.34 0,1,1 130.49,119.01A11.34,11.34 0,1,1 107.81,119.01" class="RgNPapsY_6"></path><path transform="translate(-154.84 373.61) rotate(-45)" style="fill:none;stroke:#009fe3;stroke-miterlimit:10;stroke-width:23px" d="M362.22,373.71A11.34,11.34 0,1,1 384.9,373.71A11.34,11.34 0,1,1 362.22,373.71" class="RgNPapsY_7"></path><path transform="translate(-90.08 156.53) rotate(-60)" style="fill:none;stroke:#009fe3;stroke-miterlimit:10;stroke-width:23px" d="M79.17999999999999,156.27A11.34,11.34 0,1,1 101.86,156.27A11.34,11.34 0,1,1 79.17999999999999,156.27" class="RgNPapsY_8"></path><path transform="translate(-90.28 516.53) rotate(-60)" style="fill:none;stroke:#009fe3;stroke-miterlimit:10;stroke-width:23px" d="M390.85,336.45A11.34,11.34 0,1,1 413.53,336.45A11.34,11.34 0,1,1 390.85,336.45" class="RgNPapsY_9"></path><path transform="translate(-139.12 218.04) rotate(-75)" style="fill:none;stroke:#009fe3;stroke-miterlimit:10;stroke-width:23px" d="M61.17,199.67A11.34,11.34 0,1,1 83.85000000000001,199.67A11.34,11.34 0,1,1 61.17,199.67" class="RgNPapsY_10"></path><path transform="translate(28.38 623.07) rotate(-75)" style="fill:none;stroke:#009fe3;stroke-miterlimit:10;stroke-width:23px" d="M408.85,293.04A11.34,11.34 0,1,1 431.53,293.04A11.34,11.34 0,1,1 408.85,293.04" class="RgNPapsY_11"></path><path style="fill:none;stroke:#009fe3;stroke-miterlimit:10;stroke-width:23px" d="M55.00999999999999,246.26A11.34,11.34 0,1,1 77.69,246.26A11.34,11.34 0,1,1 55.00999999999999,246.26" class="RgNPapsY_12"></path><path style="fill:none;stroke:#009fe3;stroke-miterlimit:10;stroke-width:23px" d="M415.01000000000005,246.46A11.34,11.34 0,1,1 437.69,246.46A11.34,11.34 0,1,1 415.01000000000005,246.46" class="RgNPapsY_13"></path><path transform="translate(-73.33 28.73) rotate(-15)" style="fill:none;stroke:#009fe3;stroke-miterlimit:10;stroke-width:23px" d="M61.11999999999999,292.85A11.34,11.34 0,1,1 83.8,292.85A11.34,11.34 0,1,1 61.11999999999999,292.85" class="RgNPapsY_14"></path><path transform="translate(-37.41 115.58) rotate(-15)" style="fill:none;stroke:#009fe3;stroke-miterlimit:10;stroke-width:23px" d="M408.91,199.87A11.34,11.34 0,1,1 431.59,199.87A11.34,11.34 0,1,1 408.91,199.87" class="RgNPapsY_15"></path><path transform="translate(-156.02 90.26) rotate(-30)" style="fill:none;stroke:#009fe3;stroke-miterlimit:10;stroke-width:23px" d="M79.08,336.27A11.34,11.34 0,1,1 101.76,336.27A11.34,11.34 0,1,1 79.08,336.27" class="RgNPapsY_16"></path><path transform="translate(-24.33 222.1) rotate(-30)" style="fill:none;stroke:#009fe3;stroke-miterlimit:10;stroke-width:23px" d="M390.95000000000005,156.45A11.34,11.34 0,1,1 413.63,156.45A11.34,11.34 0,1,1 390.95000000000005,156.45" class="RgNPapsY_17"></path><path transform="translate(-229.3 193.56) rotate(-45)" style="fill:none;stroke:#009fe3;stroke-miterlimit:10;stroke-width:23px" d="M107.66,373.57A11.34,11.34 0,1,1 130.34,373.57A11.34,11.34 0,1,1 107.66,373.57" class="RgNPapsY_18"></path><path transform="translate(25.2 299.15) rotate(-45)" style="fill:none;stroke:#009fe3;stroke-miterlimit:10;stroke-width:23px" d="M362.36,119.15A11.34,11.34 0,1,1 385.03999999999996,119.15A11.34,11.34 0,1,1 362.36,119.15" class="RgNPapsY_19"></path><path transform="translate(-270.18 336.43) rotate(-60)" style="fill:none;stroke:#009fe3;stroke-miterlimit:10;stroke-width:23px" d="M144.93,402.19A11.34,11.34 0,1,1 167.61,402.19A11.34,11.34 0,1,1 144.93,402.19" class="RgNPapsY_20"></path><path transform="translate(89.82 336.63) rotate(-60)" style="fill:none;stroke:#009fe3;stroke-miterlimit:10;stroke-width:23px" d="M325.1,90.52A11.34,11.34 0,1,1 347.78,90.52A11.34,11.34 0,1,1 325.1,90.52" class="RgNPapsY_21"></path><path transform="translate(-257.89 504.31) rotate(-75)" style="fill:none;stroke:#009fe3;stroke-miterlimit:10;stroke-width:23px" d="M188.32999999999998,420.2A11.34,11.34 0,1,1 211.01,420.2A11.34,11.34 0,1,1 188.32999999999998,420.2" class="RgNPapsY_22"></path><path transform="translate(147.15 336.8) rotate(-75)" style="fill:none;stroke:#009fe3;stroke-miterlimit:10;stroke-width:23px" d="M281.70000000000005,72.52A11.34,11.34 0,1,1 304.38,72.52A11.34,11.34 0,1,1 281.70000000000005,72.52" class="RgNPapsY_23"></path><path style="fill:none;stroke:#009fe3;stroke-miterlimit:10;stroke-width:23px" d="M234.91,126.36A11.34,11.34 0,1,1 257.59,126.36A11.34,11.34 0,1,1 234.91,126.36" class="RgNPapsY_24"></path><path style="fill:none;stroke:#009fe3;stroke-miterlimit:10;stroke-width:23px" d="M234.91,366.36A11.34,11.34 0,1,1 257.59,366.36A11.34,11.34 0,1,1 234.91,366.36" class="RgNPapsY_25"></path><path transform="translate(-46.21 112.3) rotate(-30)" style="fill:none;stroke:#009fe3;stroke-miterlimit:10;stroke-width:23px" d="M175.1,142.39A11.34,11.34 0,1,1 197.78,142.39A11.34,11.34 0,1,1 175.1,142.39" class="RgNPapsY_26"></path><path transform="translate(-134.13 200.07) rotate(-30)" style="fill:none;stroke:#009fe3;stroke-miterlimit:10;stroke-width:23px" d="M294.93,350.33A11.34,11.34 0,1,1 317.60999999999996,350.33A11.34,11.34 0,1,1 294.93,350.33" class="RgNPapsY_27"></path><path transform="matrix(0.5, -0.87, 0.87, 0.5, -90.08, 216.53)" style="fill:none;stroke:#009fe3;stroke-miterlimit:10;stroke-width:23px" d="M131.14,186.27A11.34,11.34 0,1,1 153.82,186.27A11.34,11.34 0,1,1 131.14,186.27" class="RgNPapsY_28"></path><path transform="translate(-90.28 456.53) rotate(-60)" style="fill:none;stroke:#009fe3;stroke-miterlimit:10;stroke-width:23px" d="M338.89000000000004,306.45A11.34,11.34 0,1,1 361.57,306.45A11.34,11.34 0,1,1 338.89000000000004,306.45" class="RgNPapsY_29"></path><path style="fill:none;stroke:#009fe3;stroke-miterlimit:10;stroke-width:23px" d="M115.00999999999999,246.26A11.34,11.34 0,1,1 137.69,246.26A11.34,11.34 0,1,1 115.00999999999999,246.26" class="RgNPapsY_30"></path><path style="fill:none;stroke:#009fe3;stroke-miterlimit:10;stroke-width:23px" d="M355.01000000000005,246.46A11.34,11.34 0,1,1 377.69,246.46A11.34,11.34 0,1,1 355.01000000000005,246.46" class="RgNPapsY_31"></path><path transform="translate(-134.06 112.22) rotate(-30)" style="fill:none;stroke:#009fe3;stroke-miterlimit:10;stroke-width:23px" d="M131.04,306.27A11.34,11.34 0,1,1 153.72,306.27A11.34,11.34 0,1,1 131.04,306.27" class="RgNPapsY_32"></path><path transform="translate(-46.29 200.14) rotate(-30)" style="fill:none;stroke:#009fe3;stroke-miterlimit:10;stroke-width:23px" d="M338.99,186.45A11.34,11.34 0,1,1 361.66999999999996,186.45A11.34,11.34 0,1,1 338.99,186.45" class="RgNPapsY_33"></path><path transform="translate(-210.18 336.43) rotate(-60)" style="fill:none;stroke:#009fe3;stroke-miterlimit:10;stroke-width:23px" d="M174.93,350.23A11.34,11.34 0,1,1 197.61,350.23A11.34,11.34 0,1,1 174.93,350.23" class="RgNPapsY_34"></path><path transform="translate(29.82 336.63) rotate(-60)" style="fill:none;stroke:#009fe3;stroke-miterlimit:10;stroke-width:23px" d="M295.1,142.49A11.34,11.34 0,1,1 317.78,142.49A11.34,11.34 0,1,1 295.1,142.49" class="RgNPapsY_35"></path><path style="fill:none;stroke:#009fe3;stroke-miterlimit:10;stroke-width:23px" d="M234.91,306.36A11.34,11.34 0,1,1 257.59,306.36A11.34,11.34 0,1,1 234.91,306.36" class="RgNPapsY_36"></path><path style="fill:none;stroke:#009fe3;stroke-miterlimit:10;stroke-width:23px" d="M234.91,186.36A11.34,11.34 0,1,1 257.59,186.36A11.34,11.34 0,1,1 234.91,186.36" class="RgNPapsY_37"></path><path transform="translate(-90.23 396.44) rotate(-60)" style="fill:none;stroke:#009fe3;stroke-miterlimit:10;stroke-width:23px" d="M286.88000000000005,276.36A11.34,11.34 0,1,1 309.56,276.36A11.34,11.34 0,1,1 286.88000000000005,276.36" class="RgNPapsY_38"></path><path transform="matrix(0.5, -0.87, 0.87, 0.5, -90.23, 276.44)" style="fill:none;stroke:#009fe3;stroke-miterlimit:10;stroke-width:23px" d="M182.95,216.36A11.34,11.34 0,1,1 205.63,216.36A11.34,11.34 0,1,1 182.95,216.36" class="RgNPapsY_39"></path><path transform="translate(-68.23 178.09) rotate(-30)" style="fill:none;stroke:#009fe3;stroke-miterlimit:10;stroke-width:23px" d="M286.88000000000005,216.36A11.34,11.34 0,1,1 309.56,216.36A11.34,11.34 0,1,1 286.88000000000005,216.36" class="RgNPapsY_40"></path><path transform="translate(-112.15 134.17) rotate(-30)" style="fill:none;stroke:#009fe3;stroke-miterlimit:10;stroke-width:23px" d="M182.95,276.36A11.34,11.34 0,1,1 205.63,276.36A11.34,11.34 0,1,1 182.95,276.36" class="RgNPapsY_41"></path><path style="fill:none;stroke:#009fe3;stroke-miterlimit:10;stroke-width:23px" d="M234.91,246.36A11.34,11.34 0,1,1 257.59,246.36A11.34,11.34 0,1,1 234.91,246.36" class="RgNPapsY_42"></path><path style="fill:none;stroke:#009fe3;stroke-miterlimit:10;stroke-width:25px" d="M12.5,246.36A233.86,233.86 0,1,1 480.22,246.36A233.86,233.86 0,1,1 12.5,246.36" class="RgNPapsY_43"></path><style>.RgNPapsY_0{stroke-dasharray:72 74;stroke-dashoffset:73;animation:RgNPapsY_draw 1166ms ease-in-out 0ms forwards;}.RgNPapsY_1{stroke-dasharray:72 74;stroke-dashoffset:73;animation:RgNPapsY_draw 1166ms ease-in-out 13ms forwards;}.RgNPapsY_2{stroke-dasharray:72 74;stroke-dashoffset:73;animation:RgNPapsY_draw 1166ms ease-in-out 27ms forwards;}.RgNPapsY_3{stroke-dasharray:72 74;stroke-dashoffset:73;animation:RgNPapsY_draw 1166ms ease-in-out 40ms forwards;}.RgNPapsY_4{stroke-dasharray:72 74;stroke-dashoffset:73;animation:RgNPapsY_draw 1166ms ease-in-out 54ms forwards;}.RgNPapsY_5{stroke-dasharray:72 74;stroke-dashoffset:73;animation:RgNPapsY_draw 1166ms ease-in-out 67ms forwards;}.RgNPapsY_6{stroke-dasharray:72 74;stroke-dashoffset:73;animation:RgNPapsY_draw 1166ms ease-in-out 81ms forwards;}.RgNPapsY_7{stroke-dasharray:72 74;stroke-dashoffset:73;animation:RgNPapsY_draw 1166ms ease-in-out 94ms forwards;}.RgNPapsY_8{stroke-dasharray:72 74;stroke-dashoffset:73;animation:RgNPapsY_draw 1166ms ease-in-out 108ms forwards;}.RgNPapsY_9{stroke-dasharray:72 74;stroke-dashoffset:73;animation:RgNPapsY_draw 1166ms ease-in-out 122ms forwards;}.RgNPapsY_10{stroke-dasharray:72 74;stroke-dashoffset:73;animation:RgNPapsY_draw 1166ms ease-in-out 135ms forwards;}.RgNPapsY_11{stroke-dasharray:72 74;stroke-dashoffset:73;animation:RgNPapsY_draw 1166ms ease-in-out 149ms forwards;}.RgNPapsY_12{stroke-dasharray:72 74;stroke-dashoffset:73;animation:RgNPapsY_draw 1166ms ease-in-out 162ms forwards;}.RgNPapsY_13{stroke-dasharray:72 74;stroke-dashoffset:73;animation:RgNPapsY_draw 1166ms ease-in-out 176ms forwards;}.RgNPapsY_14{stroke-dasharray:72 74;stroke-dashoffset:73;animation:RgNPapsY_draw 1166ms ease-in-out 189ms forwards;}.RgNPapsY_15{stroke-dasharray:72 74;stroke-dashoffset:73;animation:RgNPapsY_draw 1166ms ease-in-out 203ms forwards;}.RgNPapsY_16{stroke-dasharray:72 74;stroke-dashoffset:73;animation:RgNPapsY_draw 1166ms ease-in-out 217ms forwards;}.RgNPapsY_17{stroke-dasharray:72 74;stroke-dashoffset:73;animation:RgNPapsY_draw 1166ms ease-in-out 230ms forwards;}.RgNPapsY_18{stroke-dasharray:72 74;stroke-dashoffset:73;animation:RgNPapsY_draw 1166ms ease-in-out 244ms forwards;}.RgNPapsY_19{stroke-dasharray:72 74;stroke-dashoffset:73;animation:RgNPapsY_draw 1166ms ease-in-out 257ms forwards;}.RgNPapsY_20{stroke-dasharray:72 74;stroke-dashoffset:73;animation:RgNPapsY_draw 1166ms ease-in-out 271ms forwards;}.RgNPapsY_21{stroke-dasharray:72 74;stroke-dashoffset:73;animation:RgNPapsY_draw 1166ms ease-in-out 284ms forwards;}.RgNPapsY_22{stroke-dasharray:72 74;stroke-dashoffset:73;animation:RgNPapsY_draw 1166ms ease-in-out 298ms forwards;}.RgNPapsY_23{stroke-dasharray:72 74;stroke-dashoffset:73;animation:RgNPapsY_draw 1166ms ease-in-out 312ms forwards;}.RgNPapsY_24{stroke-dasharray:72 74;stroke-dashoffset:73;animation:RgNPapsY_draw 1166ms ease-in-out 325ms forwards;}.RgNPapsY_25{stroke-dasharray:72 74;stroke-dashoffset:73;animation:RgNPapsY_draw 1166ms ease-in-out 339ms forwards;}.RgNPapsY_26{stroke-dasharray:72 74;stroke-dashoffset:73;animation:RgNPapsY_draw 1166ms ease-in-out 352ms forwards;}.RgNPapsY_27{stroke-dasharray:72 74;stroke-dashoffset:73;animation:RgNPapsY_draw 1166ms ease-in-out 366ms forwards;}.RgNPapsY_28{stroke-dasharray:72 74;stroke-dashoffset:73;animation:RgNPapsY_draw 1166ms ease-in-out 379ms forwards;}.RgNPapsY_29{stroke-dasharray:72 74;stroke-dashoffset:73;animation:RgNPapsY_draw 1166ms ease-in-out 393ms forwards;}.RgNPapsY_30{stroke-dasharray:72 74;stroke-dashoffset:73;animation:RgNPapsY_draw 1166ms ease-in-out 406ms forwards;}.RgNPapsY_31{stroke-dasharray:72 74;stroke-dashoffset:73;animation:RgNPapsY_draw 1166ms ease-in-out 420ms forwards;}.RgNPapsY_32{stroke-dasharray:72 74;stroke-dashoffset:73;animation:RgNPapsY_draw 1166ms ease-in-out 434ms forwards;}.RgNPapsY_33{stroke-dasharray:72 74;stroke-dashoffset:73;animation:RgNPapsY_draw 1166ms ease-in-out 447ms forwards;}.RgNPapsY_34{stroke-dasharray:72 74;stroke-dashoffset:73;animation:RgNPapsY_draw 1166ms ease-in-out 461ms forwards;}.RgNPapsY_35{stroke-dasharray:72 74;stroke-dashoffset:73;animation:RgNPapsY_draw 1166ms ease-in-out 474ms forwards;}.RgNPapsY_36{stroke-dasharray:72 74;stroke-dashoffset:73;animation:RgNPapsY_draw 1166ms ease-in-out 488ms forwards;}.RgNPapsY_37{stroke-dasharray:72 74;stroke-dashoffset:73;animation:RgNPapsY_draw 1166ms ease-in-out 501ms forwards;}.RgNPapsY_38{stroke-dasharray:72 74;stroke-dashoffset:73;animation:RgNPapsY_draw 1166ms ease-in-out 515ms forwards;}.RgNPapsY_39{stroke-dasharray:72 74;stroke-dashoffset:73;animation:RgNPapsY_draw 1166ms ease-in-out 529ms forwards;}.RgNPapsY_40{stroke-dasharray:72 74;stroke-dashoffset:73;animation:RgNPapsY_draw 1166ms ease-in-out 542ms forwards;}.RgNPapsY_41{stroke-dasharray:72 74;stroke-dashoffset:73;animation:RgNPapsY_draw 1166ms ease-in-out 556ms forwards;}.RgNPapsY_42{stroke-dasharray:72 74;stroke-dashoffset:73;animation:RgNPapsY_draw 1166ms ease-in-out 569ms forwards;}.RgNPapsY_43{stroke-dasharray:1471 1473;stroke-dashoffset:1472;animation:RgNPapsY_draw 1166ms ease-in-out 583ms forwards;}@keyframes RgNPapsY_draw{100%{stroke-dashoffset:0;}}@keyframes RgNPapsY_fade{0%{stroke-opacity:1;}93.27731092436974%{stroke-opacity:1;}100%{stroke-opacity:0;}}</style></svg>