<svg xmlns="http://www.w3.org/2000/svg" viewBox="0 0 790.52 730.49"><title>patientcontract</title><path d="M47.91,58.34A48,48,0,0,0,0,106.25v552a48,48,0,0,0,47.91,47.91H452.84a48,48,0,0,0,47.91-47.91v-552a48,48,0,0,0-47.91-47.91Z" style="fill:#3f3d56"/><rect x="24.92" y="92.37" width="450.92" height="579.75" style="fill:#fff"/><rect x="83.86" y="196.29" width="333.02" height="21.88" style="fill:#005bea"/><rect x="83.86" y="254.63" width="333.02" height="21.88" style="fill:#005bea"/><rect x="83.86" y="312.97" width="333.02" height="21.88" style="fill:#005bea"/><rect x="83.86" y="371.31" width="333.02" height="21.88" style="fill:#005bea"/><rect x="83.86" y="429.65" width="333.02" height="21.88" style="fill:#005bea"/><rect x="83.86" y="487.99" width="333.02" height="21.88" style="fill:#005bea"/><rect x="83.86" y="546.33" width="333.02" height="21.88" style="fill:#005bea"/><rect x="127.46" y="82.3" width="335.71" height="431.62" transform="translate(-48.84 58.03) rotate(-10.37)" style="fill:#e6e6e6"/><rect x="147.89" y="161.8" width="247.94" height="16.29" transform="translate(-26.15 51.71) rotate(-10.37)" style="fill:#005bea"/><rect x="155.71" y="204.52" width="247.94" height="16.29" transform="translate(-33.71 53.82) rotate(-10.37)" style="fill:#005bea"/><rect x="163.53" y="247.25" width="247.94" height="16.29" transform="translate(-41.28 55.92) rotate(-10.37)" style="fill:#005bea"/><rect x="171.34" y="289.97" width="247.94" height="16.29" transform="translate(-48.84 58.03) rotate(-10.37)" style="fill:#005bea"/><rect x="179.16" y="332.69" width="247.93" height="16.29" transform="translate(-56.4 60.13) rotate(-10.37)" style="fill:#005bea"/><rect x="186.98" y="375.42" width="247.94" height="16.29" transform="translate(-63.97 62.24) rotate(-10.37)" style="fill:#005bea"/><rect x="194.8" y="418.14" width="247.94" height="16.29" transform="translate(-71.53 64.35) rotate(-10.37)" style="fill:#005bea"/><rect x="572.09" y="527.61" width="94.99" height="122.13" transform="translate(-95.85 121.15) rotate(-10.37)" style="fill:#e6e6e6"/><rect x="577.87" y="550.11" width="70.15" height="4.61" transform="translate(-89.43 119.36) rotate(-10.37)" style="fill:#fff"/><rect x="580.08" y="562.2" width="70.15" height="4.61" transform="translate(-91.57 119.96) rotate(-10.37)" style="fill:#fff"/><rect x="582.3" y="574.29" width="70.15" height="4.61" transform="translate(-93.71 120.55) rotate(-10.37)" style="fill:#fff"/><rect x="584.51" y="586.37" width="70.15" height="4.61" transform="translate(-95.85 121.15) rotate(-10.37)" style="fill:#fff"/><rect x="586.72" y="598.46" width="70.15" height="4.61" transform="translate(-97.99 121.75) rotate(-10.37)" style="fill:#fff"/><rect x="588.93" y="610.55" width="70.15" height="4.61" transform="translate(-100.13 122.34) rotate(-10.37)" style="fill:#fff"/><rect x="591.15" y="622.64" width="70.15" height="4.61" transform="translate(-102.27 122.94) rotate(-10.37)" style="fill:#fff"/><path d="M333.87,30.39H294.13V22.25A22.25,22.25,0,0,0,271.88,0h-43a22.25,22.25,0,0,0-22.25,22.25v8.13H166.88a22.25,22.25,0,0,0-22.25,22.25h0v61.61H356.12V52.64a22.25,22.25,0,0,0-22.25-22.25Z" style="fill:#3f3d56"/><path d="M236.11,630c6.57-4.5,13.32-9.17,21.12-11.22,7.12-1.86,15.29-1.37,20.92,3.84,4.54,4.21,6.46,10.67,3.1,16.2a10.3,10.3,0,0,1-6.82,5,8.22,8.22,0,0,1-7.39-2.89c-1.77-2-2.82-4.83-1.88-7.4s3.62-4.36,6.22-5.28a46,46,0,0,1,9.27-1.91l12.89-1.76,52.77-7.22,58.77-8a1.84,1.84,0,0,0,1.27-2.24,1.87,1.87,0,0,0-2.24-1.27l-116.93,16c-4.23.58-8.52,1-12.7,1.84a21.36,21.36,0,0,0-9.12,3.79c-5.6,4.43-5.2,12.28,0,16.92s12.78,3.89,17.36-1.3a15.74,15.74,0,0,0,1.19-19.29c-5-7.54-14.11-10.43-22.81-9.36-10.07,1.24-18.6,6.89-26.77,12.49-1.92,1.32-.1,4.48,1.84,3.15Z" style="fill:#3f3d56"/><path d="M646.41,494.84,647.62,507s-7.29,26.74,8.51,26.74S659.78,507,659.78,507l1.22-9.72Z" style="fill:#dbb5ad"/><path d="M756.8,454.34l-5.58,10.87s-20.64,18.5-7.37,27.08,17.58-20.48,17.58-20.48l6.3-7.51Z" style="fill:#dbb5ad"/><path d="M665.85,505.78l17,115.46,8.51,82.65s7.29,18.23,31.6,2.43l-3.65-47.4-2.43-42.54s-2.43-41.32-4.86-48.62,1.22-31.6,1.22-31.6L723,496.05Z" style="fill:#2f2e41"/><path d="M693.81,701.46l-9.72,10.94s-14.59-4.86-18.23,4.86,28,12.15,28,12.15,32.82,2.43,32.82,0-.88-21-5.3-22.06S693.81,701.46,693.81,701.46Z" style="fill:#2f2e41"/><path d="M712,499.7l17,121.54,8.51,82.65s7.29,18.23,31.6,2.43l-3.65-47.4-2.43-42.54s-2.43-41.32-4.86-48.62,1.22-31.6,1.22-31.6l-2.43-45Z" style="fill:#2f2e41"/><path d="M740,701.46l-9.72,10.94s-14.59-4.86-18.23,4.86,28,12.15,28,12.15,32.82,2.43,32.82,0-.88-21-5.3-22.06S740,701.46,740,701.46Z" style="fill:#2f2e41"/><circle cx="675.58" cy="282.14" r="25.52" style="fill:#dbb5ad"/><polygon points="694.41 293.69 705.35 311.92 677.4 324.07 673.75 302.19 694.41 293.69" style="fill:#dbb5ad"/><path d="M708.39,310.09s-25.52-2.43-35.25,13.37l-24,18.23a13.83,13.83,0,0,0-5.34,12.82l20.82,157.33L695,510.64l49.83-9.72,14.59-3.65-7.29-64.42s-8.51-25.52,1.22-42.54l-4.86-59.56-34-13.37Z" style="fill:#d3dff9"/><path d="M651.27,346.56l-1.82-3s-2.43,0-2.43,4.86-4.25,110-4.25,110l-1.22,40.11,23.09,2.43,8.51-75.36-3.65-49.83Z" style="fill:#d3dff9"/><path d="M731.49,328.32l17,2.43a113,113,0,0,1,17,23.09c7.29,13.37,29.17,38.89,24.31,58.34s-19.45,54.69-19.45,54.69l-23.09-9.72s18.23-42.54,17-46.19-15.8-25.52-15.8-25.52Z" style="fill:#d3dff9"/><path d="M658,268.16s-20.66-1.22-7.29-14.58c0,0,10.94-4.86,15.8-2.43,0,0,7.29-4.86,7.29-2.43,0,0,25.52-7.29,29.17,18.23s-2.43,37.68-2.43,37.68l-17-1.22s3.65-20.66-9.72-18.23c0,0-10.94,3.65-12.15,0S658,268.16,658,268.16Z" style="fill:#babac6"/><polygon points="667.68 499.09 678.62 426.17 671.32 381.19 673.75 430.11 666.46 499.09 667.68 499.09" style="opacity:0.20000000298023224;isolation:isolate"/></svg>