<svg xmlns="http://www.w3.org/2000/svg" viewBox="0 0 372.96 533.78"><title>Process2</title><path d="M0,428.65V0H341.93c4.14,0,3.66-.41,3.66,3.77q0,139.53,0,279.06c0,1.12,0,2.24,0,3.36-4.21.07-7.93,1.28-10.74,4.62-.92,1.1-1.18,2.06.24,2.92-2.53,2.8-3.6,6.8-7.22,8.71a.74.74,0,0,0-.35,1c1.69,2.51.25,4.94-.15,7.38-.63,3.83-.69,4.06,2.9,5.64a4.34,4.34,0,0,1,2.87,5.11c-.12.94-.35,1.87-.52,2.81l-1.42,1.49c-8.31.47-16.39-1.09-24.44-2.88l0-.47c.66-.58,1.31-1.17,2-1.73,15.54-13.16,20.31-36.1,10.88-54.11-6.38-12.19-15.74-21.16-30-23-10.71-1.36-21.57-.1-32.35-.53-.91,0-1.45.38-1.47,1.44,0,1.72.21,2.65,2.42,2.64,4.7,0,9.41-.44,14.1.21l.28.62,0,10.39c-3.62,1.15-4.8,3.86-4.76,7.38,0,4.06,1.15,8,1,12.1a161.9,161.9,0,0,0,1.81,32.61c.76,4.46,1.39,8.64,5.77,11.31a17.7,17.7,0,0,1,5.33,4.36c-7.92,0-15.84.11-23.75.07-1.68,0-2.3.68-2.37,2.24s1,1.69,2.2,1.68q14.64,0,29.28,0a4.72,4.72,0,0,1,2.63,1c3.69,2.2,7.32,4.55,11.69,5.27a30.14,30.14,0,0,0,5.25,2.83c6.7,3.48,10.87,8.43,10.16,16.52a89.22,89.22,0,0,1-2.31,13.36c-4.88,20-11,39.71-17,59.44l-2.64,0ZM77.21,160.36c-4.88,0-9.75,0-14.62.35-14.31,1.11-25.58,7.4-33.36,19.61a43.37,43.37,0,0,0,32.58,66.89c10.44,1,20.94.07,31.4.4,1.76.06,2.27-.41,2.32-2.2.06-2.06-1.13-2-2.45-2-4.24,0-8.48.08-12.71,0-6.39-.06-12.83.51-19.18-.29a39.44,39.44,0,0,1,2.67-78.58c9.73-.5,19.5-.14,29.25-.15,1.46,0,2.51-.25,2.45-2.08s-1-2.06-2.51-2C87.76,160.4,82.48,160.37,77.21,160.36Zm195.41,4c3.76,0,7.52-.11,11.28,0a33.92,33.92,0,0,0,14.23-2.85c20.09-8.23,31-32.7,24.14-54.25C317,90.5,303.12,78.69,286.52,77.64c-9.64-.61-19.34-.18-29-.21-1.48,0-1.87.89-1.89,2.19,0,1.5.73,1.9,2.09,1.89,6.32-.05,12.63,0,18.95-.08,7.22-.08,14.41-.22,21.1,3.22,20.82,10.68,31.26,38.83,13.45,61.5-7.45,9.48-17,14.93-29.63,14.32-7.82-.38-15.67-.1-23.51-.11-1.19,0-2.44-.26-2.33,1.75.09,1.61.31,2.39,2.25,2.32C262.86,164.27,267.74,164.38,272.62,164.38ZM163.34,306.7c0,6.51,4.73,11.18,11.46,11.27a11.18,11.18,0,0,0,11.41-11.37c0-6.65-4.76-11.32-11.62-11.32C168,295.27,163.36,300,163.34,306.7Zm11.32-92.83c-6.85,0-11.47,4.83-11.41,11.81,0,5.72,5.44,11,11.22,10.93,6.91-.06,11.75-4.83,11.73-11.57C186.19,218.55,181.31,213.83,174.67,213.87Zm87.45,92.92c0-6.83-4.52-11.47-11.33-11.54a11.37,11.37,0,1,0,11.33,11.54Zm-161.79-93a11.21,11.21,0,0,0-11.4,11.15,11.34,11.34,0,1,0,11.4-11.15Zm0-61.66a11.36,11.36,0,0,0-.19-22.72,11.36,11.36,0,0,0,.19,22.72Zm150.1-81.55c7-.06,11.87-4.81,11.78-11.46A11.13,11.13,0,0,0,250.84,48c-6.52,0-11.37,5-11.3,11.71C239.6,65.47,244.78,70.64,250.45,70.59ZM251,213.8a11.37,11.37,0,0,0,0,22.74,11.37,11.37,0,1,0,0-22.74Zm.11-61.66a11.47,11.47,0,0,0,11.28-11.35,11.35,11.35,0,0,0-11.48-11.37,11.24,11.24,0,0,0-11.25,11.31A11.4,11.4,0,0,0,251.12,152.14Zm-64.84-11.38A11.36,11.36,0,0,0,175,129.41a11.11,11.11,0,0,0-11.41,11.09,11.28,11.28,0,0,0,11.16,11.64A11.48,11.48,0,0,0,186.28,140.76ZM174.93,48a11.32,11.32,0,0,0-.05,22.63A11.32,11.32,0,1,0,174.93,48Zm37.72,116.41h4.07l26.83.08c1.24,0,2.41,0,2.29-1.87-.1-1.57-.3-2.26-2.26-2.24-13.18.12-26.36,0-39.54,0-7.27,0-14.54,0-21.8-.06-1.61,0-2.2.58-2.24,2.27s.82,1.82,2.2,1.82C192.36,164.35,202.51,164.38,212.65,164.37Zm0-82.92v.06c10.23,0,20.47,0,30.7,0,1.7,0,2.4-.52,2.42-2.35s-1.11-1.7-2.34-1.7q-22.55,0-45.1,0-8,0-16.07-.08c-1.55,0-2.28.39-2.26,2.2s.72,1.89,2.17,1.88C192.34,81.42,202.5,81.45,212.65,81.45Zm-75.13,78.92v0c-10.16,0-20.32,0-30.48,0-1.35,0-1.92.31-1.71,1.74.17,1.17-.1,2.34,1.84,2.34q30.23-.07,60.47,0c1.48,0,2.51-.24,2.51-2s-.81-2.12-2.4-2.11C157.68,160.4,147.6,160.37,137.52,160.37Zm0,87.23v0h29.73c1.38,0,2.82.1,2.84-2s-1.24-2.2-2.86-2.19c-8.47,0-16.94,0-25.41,0-11.19,0-22.38,0-33.57,0-1.82,0-2.94.43-2.94,2.49s1.53,1.64,2.72,1.65Q122.79,247.62,137.54,247.6Zm75.3-.36h30.48c1.28,0,2.66.37,2.53-1.75-.11-1.84-.87-2.61-2.74-2.36a27.84,27.84,0,0,1-3.59.16q-28.56,0-57.12,0c-.91,0-2.45-.86-2.42,1.44,0,2,.63,2.54,2.62,2.52C192.68,247.18,202.76,247.23,212.84,247.23Zm-.33,79.18q-15.1,0-30.19,0c-1.26,0-2.46-.09-2.44,1.72,0,1.62,1,2,2.36,2.08.64,0,1.28,0,1.92,0h59.43c1.17,0,2.38.09,2.35-1.57a2.12,2.12,0,0,0-2.28-2.24c-.48,0-1,0-1.44,0ZM100.13,179h0c3.35,0,6.7-.09,10,0,2,.08,2.77-.62,2.79-2.57s-1.11-2.2-2.64-2.19c-6.78,0-13.56.08-20.33,0-1.81,0-2.55.44-2.55,2.4s1,2.37,2.66,2.33C93.45,179,96.79,179,100.13,179Zm151,0v0c3.28,0,6.56-.07,9.84,0,1.78.05,2.87-.18,2.82-2.39s-1.13-2.33-2.78-2.32q-10.08,0-20.15,0c-1.58,0-2.66.37-2.66,2.23s.76,2.57,2.63,2.52C244.3,179,247.74,179.07,251.18,179.07Zm-.39-87.29v0c-3.36,0-6.72.09-10.08,0-1.72-.06-2.49.39-2.47,2.24s.81,2.39,2.49,2.38q10.32,0,20.63,0c1.55,0,2.42-.52,2.45-2.19s-.75-2.46-2.47-2.44C257.82,91.81,254.3,91.78,250.78,91.78Zm.1,248.6v0H240.33c-.86,0-1.9-.19-2,1.12s-.1,2.5,1.3,3a6,6,0,0,0,2.11.36c6.64,0,13.27,0,19.91,0,1.73,0,2.15-.9,2.13-2.44s-.54-2.19-2.12-2.17C258.08,340.42,254.48,340.38,250.88,340.38ZM175.35,179v0c3.43,0,6.87-.07,10.3,0,1.73.05,2.44-.45,2.43-2.29s-.53-2.45-2.33-2.44q-10.3.1-20.59,0c-1.72,0-2.42.49-2.45,2.31s.8,2.47,2.59,2.41C168.64,179,172,179,175.35,179Zm.23-87.25c-3.59,0-7.18,0-10.77,0-1.55,0-2.09.79-2.1,2.24s.35,2.35,2,2.35H186c1.74,0,2.06-1.09,2.1-2.54s-.72-2.08-2.2-2.06C182.43,91.82,179,91.78,175.57,91.78Zm0,248.61v0c-3.59,0-7.18,0-10.77,0-1.55,0-2.13.66-2.11,2.17,0,1.36.27,2.4,1.91,2.4h21.29c1.7,0,2.13-1,2.14-2.48s-.67-2.11-2.18-2.08C182.45,340.44,179,340.39,175.59,340.39ZM100.3,262.08c3.43,0,6.85-.06,10.28,0,1.58,0,2.32-.37,2.31-2.12s-.47-2.59-2.28-2.49c-6.92.39-13.85,0-20.77,0-1.79,0-2.36.72-2.36,2.43s.71,2.23,2.31,2.19C93.29,262,96.8,262.07,100.3,262.08Zm75.37-4.4c-3.67,0-7.34,0-11,0-1.68,0-2,.81-1.94,2.24s.18,2.26,1.92,2.24q10.65-.1,21.31,0c1.81,0,2.08-.83,2.09-2.36s-.5-2.16-2.07-2.13C182.53,257.72,179.1,257.68,175.67,257.68ZM251,262.09V262c3.52,0,7-.06,10.56,0,1.51,0,2.16-.35,2.09-2-.06-1.48-.16-2.4-2-2.38-7,.08-13.92.05-20.87,0-1.62,0-2.41.69-2.42,2.25,0,1.74.88,2.27,2.61,2.2C244.26,262,247.63,262.09,251,262.09ZM174.81,330c1.11,0,1.85-.53,1.87-1.72,0-1-.59-1.44-1.5-1.52a1.45,1.45,0,0,0-1.79,1.46C173.33,329.12,173.62,329.94,174.81,330Zm1.79-84.69c0-1.12-.66-1.56-1.65-1.64s-1.59.58-1.58,1.62.33,1.79,1.46,1.79A1.56,1.56,0,0,0,176.6,245.27Zm75.76-166a1.5,1.5,0,0,0-1.81-1.35c-1,.07-1.75.52-1.69,1.6a1.52,1.52,0,0,0,1.69,1.6A1.7,1.7,0,0,0,252.36,79.24Zm-1.54,250.71c1-.08,1.66-.55,1.54-1.65a1.57,1.57,0,0,0-1.71-1.59,1.41,1.41,0,0,0-1.53,1.67C249.17,329.45,249.81,329.91,250.83,329.95ZM102.18,245.44c-.16-1-.63-1.63-1.71-1.58a1.57,1.57,0,0,0-1.64,1.87c0,.94.51,1.48,1.48,1.45A1.77,1.77,0,0,0,102.18,245.44Zm148.54,1.49c1-.06,1.67-.55,1.69-1.61a1.64,1.64,0,0,0-3.29-.08C249.09,246.31,249.71,246.82,250.72,246.93Zm-75.65-82.79c1-.1,1.65-.53,1.66-1.59a1.53,1.53,0,0,0-1.51-1.74,1.56,1.56,0,0,0-1.81,1.69A1.59,1.59,0,0,0,175.07,164.14Zm1.67-84.8a1.66,1.66,0,0,0-3.31.18,1.54,1.54,0,0,0,1.75,1.55C176.24,81,176.71,80.37,176.73,79.34Zm-76.12,84.79a1.57,1.57,0,0,0,1.54-1.74,1.51,1.51,0,0,0-1.66-1.59,1.53,1.53,0,0,0-1.64,1.83C98.94,163.71,99.68,164.06,100.61,164.14Zm151.81-1.88a1.55,1.55,0,0,0-1.73-1.44,1.65,1.65,0,0,0,.13,3.29C251.86,164.07,252.36,163.4,252.42,162.26Z" style="fill:#f2f2f3"/><path d="M299.13,443.05a4.87,4.87,0,0,0-2.42-1.83c-2.27-.92-2.32-2.52-1.72-4.44.85-2.71,1.71-5.41,2.57-8.11,6-19.73,12.09-39.41,17-59.44a89.22,89.22,0,0,0,2.31-13.36c.7-8.09-3.46-13-10.16-16.52a30.12,30.12,0,0,1-5.25-2.83A70,70,0,0,0,306.73,323c8,1.79,16.12,3.35,24.44,2.88-.26,1.25-.57,2.48-.78,3.74-.62,3.63,2.87,7.82,6.54,7.82a19,19,0,0,0,12-4.31c3.2-2.55,6-3,9.19-.53a2.69,2.69,0,0,0,1.16,2.6,13,13,0,0,1,4.11,5.58c-1.47,1.53-2.85,3.17-4.45,4.55-1.83,1.58-4,2.79-5.15,5.07-2.89,2.21-2.79,5.62-3.27,8.68a88.1,88.1,0,0,0-1,17.88c.56,11.38,1.2,22.76,1.59,34.16.35,10.07,0,20.07-.6,30.09-.13,2.31-.23,4.61-.48,6.91a2,2,0,0,1-1.84,2.08c-1.8.32-3.59.67-5.39,1-5.27.64-10.57.44-15.86.46a82.65,82.65,0,0,0-12.48-2.38Z" style="fill:#5fc3df"/><path d="M358.08,332.64c-3.22-2.51-6-2-9.19.53a19,19,0,0,1-12,4.31c-3.67,0-7.17-4.19-6.54-7.82.22-1.25.52-2.49.78-3.74l1.42-1.49a13.16,13.16,0,0,0,6.86-10c.8-5.07,1-10.3,3.54-15a1.52,1.52,0,0,0-.83-2.34c-2.37-1.11-4.55-2.63-7.09-3.36-1.42-.86-1.17-1.83-.24-2.92,2.81-3.35,6.53-4.55,10.74-4.62a33.77,33.77,0,0,1,10.65,4.71c3.45,2.4,5.61,5.62,5.16,9.89-.66,6.18,1.09,12,2,17.94C364.24,324.21,362.21,328.91,358.08,332.64Z" style="fill:#97a3b8"/><path d="M306.73,323a70,70,0,0,1-5.31,13.48c-4.36-.72-8-3.07-11.69-5.27a4.72,4.72,0,0,0-2.63-1c-1.17-2.15-3.38-2.88-5.35-3.95a17.7,17.7,0,0,0-5.33-4.36c-4.38-2.67-5-6.85-5.77-11.31A161.9,161.9,0,0,1,268.85,278c.13-4.11-1-8-1-12.1,0-3.51,1.14-6.23,4.76-7.38,1.27-.25,1.32-1.22,1.28-2.21a19.38,19.38,0,0,1,.54-4.72,1,1,0,0,1,1.13.95c.21,1.25.57,2.49.66,3.75.22,2.94,1.38,5.71,1.28,8.72-.07,2.14-1.35,3.93-1.47,6a49.63,49.63,0,0,0,3,20.17c2.31,6.3,4.24,12.7,4.15,19.51,0,1.76.92,2.34,2.33,2.8a92,92,0,0,1,13,5.44c1.26.63,2.28,1.82,3.87,1.72a5,5,0,0,0,4.31,1.89Z" style="fill:#e3d9d1"/><path d="M77.21,160.37c5.28,0,10.55,0,15.83,0,1.5,0,2.45.28,2.51,2s-1,2.08-2.45,2.08c-9.75,0-19.52-.35-29.25.15a39.44,39.44,0,0,0-2.67,78.58c6.35.8,12.78.22,19.18.29,4.24,0,8.48,0,12.71,0,1.32,0,2.5-.09,2.45,2,0,1.79-.56,2.26-2.32,2.2-10.47-.33-21,.56-31.4-.4a43.37,43.37,0,0,1-32.58-66.89c7.78-12.22,19.05-18.5,33.36-19.61C67.45,160.34,72.33,160.37,77.21,160.37Z" style="fill:#ed6e50"/><path d="M272.62,164.38c-4.88,0-9.76-.11-14.63.06-1.95.07-2.16-.71-2.25-2.32-.11-2,1.14-1.75,2.33-1.75,7.84,0,15.69-.27,23.51.11,12.58.61,22.18-4.84,29.63-14.32,17.81-22.67,7.37-50.82-13.45-61.5-6.69-3.43-13.89-3.3-21.1-3.22-6.32.07-12.63,0-18.95.08-1.36,0-2.12-.39-2.09-1.89,0-1.31.42-2.2,1.89-2.19,9.67,0,19.38-.4,29,.21,16.6,1,30.44,12.86,35.75,29.66,6.82,21.55-4.06,46-24.14,54.25a33.92,33.92,0,0,1-14.23,2.85C280.14,164.27,276.38,164.38,272.62,164.38Z" style="fill:#ed6e50"/><path d="M306.7,322.56a5,5,0,0,1-4.31-1.89c1.7-1.45,3.46-2.85,5.1-4.37,19.54-18.13,13.78-44.83,2.25-57.07-9.44-10-21.06-13-34.18-12.11a1.52,1.52,0,0,0-1.26.59h-1.4l-.63-.16c-4.69-.65-9.4-.23-14.1-.22-2.21,0-2.46-.92-2.42-2.64,0-1.07.56-1.48,1.47-1.44,10.79.42,21.64-.83,32.35.53,14.25,1.81,23.6,10.77,30,23,9.43,18,4.66,40.95-10.88,54.11C308,321.39,307.36,322,306.7,322.56Z" style="fill:#ed6e50"/><path d="M163.34,306.7c0-6.72,4.65-11.43,11.25-11.42,6.86,0,11.65,4.68,11.62,11.32A11.18,11.18,0,0,1,174.8,318C168.07,317.88,163.33,313.22,163.34,306.7Z" style="fill:#60c3df"/><path d="M174.67,213.87c6.65,0,11.52,4.67,11.54,11.17,0,6.74-4.82,11.51-11.73,11.57-5.78,0-11.17-5.2-11.22-10.93C163.2,218.7,167.82,213.92,174.67,213.87Z" style="fill:#60c3df"/><path d="M262.12,306.79a11.31,11.31,0,1,1-11.33-11.54C257.6,295.32,262.16,300,262.12,306.79Z" style="fill:#60c3df"/><path d="M100.33,213.8a11.37,11.37,0,1,1-11.4,11.15A11.31,11.31,0,0,1,100.33,213.8Z" style="fill:#60c3df"/><path d="M100.36,152.13a11.36,11.36,0,1,1,11.25-11.36A11.31,11.31,0,0,1,100.36,152.13Z" style="fill:#60c3df"/><path d="M250.45,70.59c-5.67.05-10.85-5.11-10.91-10.88C239.47,53,244.31,48,250.84,48a11.13,11.13,0,0,1,11.4,11.13C262.32,65.78,257.44,70.52,250.45,70.59Z" style="fill:#60c3df"/><path d="M251,213.8A11.37,11.37,0,1,1,239.67,225,11.29,11.29,0,0,1,251,213.8Z" style="fill:#60c3df"/><path d="M251.12,152.14a11.4,11.4,0,0,1-11.44-11.41,11.24,11.24,0,0,1,11.25-11.31,11.35,11.35,0,0,1,11.48,11.37A11.47,11.47,0,0,1,251.12,152.14Z" style="fill:#60c3df"/><path d="M186.28,140.76a11.48,11.48,0,0,1-11.51,11.38,11.28,11.28,0,0,1-11.16-11.64A11.11,11.11,0,0,1,175,129.41,11.36,11.36,0,0,1,186.28,140.76Z" style="fill:#60c3df"/><path d="M174.93,48a11.32,11.32,0,1,1-.05,22.63A11.32,11.32,0,0,1,174.93,48Z" style="fill:#60c3df"/><path d="M335.06,293.75c2.55.73,4.72,2.25,7.09,3.36a1.52,1.52,0,0,1,.83,2.34c-2.53,4.67-2.74,9.9-3.54,15a13.16,13.16,0,0,1-6.86,10c.18-.94.4-1.86.52-2.81a4.34,4.34,0,0,0-2.87-5.11c-3.59-1.58-3.53-1.8-2.9-5.64.4-2.44,1.84-4.87.15-7.38a.74.74,0,0,1,.35-1C331.46,300.55,332.53,296.55,335.06,293.75Z" style="fill:#e3d9d1"/><path d="M212.65,164.37c-10.14,0-20.29,0-30.43,0-1.38,0-2.24,0-2.2-1.82s.63-2.28,2.24-2.27c7.27,0,14.54.05,21.8.06,13.18,0,26.36.09,39.54,0,2,0,2.16.67,2.26,2.24.12,1.9-1.06,1.87-2.29,1.87l-26.83-.08Z" style="fill:#ed6e50"/><path d="M212.65,81.45c-10.15,0-20.31,0-30.46,0-1.45,0-2.14-.13-2.17-1.88s.71-2.22,2.26-2.2q8,.08,16.07.08,22.55,0,45.1,0c1.22,0,2.36-.27,2.34,1.7s-.72,2.36-2.42,2.35c-10.23,0-20.47,0-30.7,0Z" style="fill:#ed6e50"/><path d="M137.52,160.37c10.08,0,20.16,0,30.24,0,1.59,0,2.4.41,2.4,2.11s-1,2-2.51,2q-30.23-.06-60.47,0c-1.94,0-1.66-1.17-1.84-2.34-.21-1.43.35-1.75,1.71-1.74,10.16.05,20.32,0,30.48,0Z" style="fill:#ed6e50"/><path d="M137.54,247.6q-14.75,0-29.49,0c-1.19,0-2.72.48-2.72-1.65s1.12-2.49,2.94-2.49c11.19.05,22.38,0,33.57,0,8.47,0,16.94,0,25.41,0,1.62,0,2.88.1,2.86,2.19s-1.45,2-2.84,2H137.54Z" style="fill:#ed6e50"/><path d="M212.84,247.23c-10.08,0-20.16-.05-30.24,0-2,0-2.59-.5-2.62-2.52,0-2.3,1.51-1.43,2.42-1.44q28.56-.07,57.12,0a27.84,27.84,0,0,0,3.59-.16c1.87-.24,2.63.53,2.74,2.36.12,2.12-1.26,1.76-2.53,1.75Z" style="fill:#ed6e50"/><path d="M212.51,326.41h29.71c.48,0,1,0,1.44,0a2.12,2.12,0,0,1,2.28,2.24c0,1.66-1.19,1.57-2.35,1.57H184.15c-.64,0-1.28,0-1.92,0-1.31-.08-2.34-.46-2.36-2.08,0-1.82,1.18-1.73,2.44-1.72Q197.41,326.43,212.51,326.41Z" style="fill:#ed6e50"/><path d="M100.13,179c-3.34,0-6.69-.06-10,0-1.71,0-2.66-.28-2.66-2.33s.74-2.42,2.55-2.4c6.78.07,13.55,0,20.33,0,1.54,0,2.66.25,2.64,2.19s-.83,2.64-2.79,2.57c-3.34-.13-6.7,0-10,0Z" style="fill:#6bc3c1"/><path d="M251.18,179.07c-3.44,0-6.88-.07-10.32,0-1.86.05-2.63-.71-2.63-2.52s1.07-2.24,2.66-2.23q10.08.05,20.15,0c1.65,0,2.73.26,2.78,2.32s-1,2.45-2.82,2.39c-3.28-.1-6.56,0-9.84,0Z" style="fill:#6bc3c1"/><path d="M250.78,91.78c3.52,0,7,0,10.56,0,1.72,0,2.5.7,2.47,2.44s-.9,2.2-2.45,2.19q-10.32-.05-20.63,0c-1.68,0-2.47-.58-2.49-2.38s.75-2.3,2.47-2.24c3.35.12,6.72,0,10.08,0Z" style="fill:#6bc3c1"/><path d="M250.88,340.38c3.6,0,7.2,0,10.8,0,1.58,0,2.1.67,2.12,2.17s-.41,2.45-2.13,2.44c-6.64,0-13.27,0-19.91,0a6,6,0,0,1-2.11-.36c-1.4-.55-1.38-1.84-1.3-3s1.12-1.11,2-1.12h10.56Z" style="fill:#6bc3c1"/><path d="M175.35,179c-3.35,0-6.71-.07-10.06,0-1.79.05-2.62-.45-2.59-2.41s.73-2.32,2.45-2.31q10.3.09,20.59,0c1.8,0,2.32.71,2.33,2.44s-.7,2.34-2.43,2.29c-3.43-.1-6.86,0-10.3,0Z" style="fill:#6bc3c1"/><path d="M175.57,91.78c3.43,0,6.86,0,10.29,0,1.48,0,2.25.46,2.2,2.06s-.36,2.54-2.1,2.54h-21.3c-1.61,0-2-.94-2-2.35s.55-2.25,2.1-2.24C168.4,91.8,172,91.78,175.57,91.78Z" style="fill:#6bc3c1"/><path d="M175.59,340.39c3.43,0,6.86,0,10.29,0,1.51,0,2.19.51,2.18,2.08s-.45,2.48-2.14,2.48H164.62c-1.64,0-1.89-1-1.91-2.4,0-1.51.56-2.19,2.11-2.17,3.59,0,7.18,0,10.77,0Z" style="fill:#6bc3c1"/><path d="M100.3,262.07c-3.51,0-7,0-10.51,0-1.6,0-2.31-.5-2.31-2.19s.57-2.43,2.36-2.43c6.92,0,13.85.4,20.77,0,1.81-.1,2.27.81,2.28,2.49s-.73,2.16-2.31,2.12C107.15,262,103.73,262.08,100.3,262.07Z" style="fill:#6bc3c1"/><path d="M281.76,326.3c2,1.07,4.18,1.79,5.35,3.95q-14.64,0-29.28,0c-1.23,0-2.27,0-2.2-1.68s.69-2.24,2.37-2.24C265.92,326.4,273.84,326.33,281.76,326.3Z" style="fill:#ed6e50"/><path d="M175.67,257.68c3.43,0,6.86,0,10.29,0,1.57,0,2.08.59,2.07,2.13s-.28,2.37-2.09,2.36q-10.65-.11-21.31,0c-1.74,0-1.9-.86-1.92-2.24s.26-2.28,1.94-2.24C168.33,257.72,172,257.68,175.67,257.68Z" style="fill:#6bc3c1"/><path d="M251,262.09c-3.36,0-6.72-.1-10.07,0-1.73.07-2.62-.47-2.61-2.2,0-1.56.8-2.26,2.42-2.25,7,0,13.92.07,20.87,0,1.87,0,2,.9,2,2.38.07,1.66-.58,2-2.09,2-3.52-.08-7,0-10.56,0Z" style="fill:#6bc3c1"/><path d="M272.9,247.69h1.4l.11,3.9a19.38,19.38,0,0,0-.54,4.72c0,1,0,2-1.28,2.21q0-5.19,0-10.39Z" style="fill:#60c3df"/><path d="M174.81,330c-1.19,0-1.48-.84-1.42-1.79a1.45,1.45,0,0,1,1.79-1.46c.91.08,1.51.54,1.5,1.52C176.66,329.43,175.92,329.92,174.81,330Z" style="fill:#ed6e50"/><path d="M176.6,245.27a1.56,1.56,0,0,1-1.77,1.77c-1.14,0-1.46-.81-1.46-1.79s.45-1.7,1.58-1.62S176.63,244.14,176.6,245.27Z" style="fill:#ed6e50"/><path d="M252.36,79.24a1.7,1.7,0,0,1-1.81,1.86,1.52,1.52,0,0,1-1.69-1.6c-.06-1.08.73-1.53,1.69-1.6A1.5,1.5,0,0,1,252.36,79.24Z" style="fill:#ed6e50"/><path d="M250.82,329.95c-1,0-1.66-.5-1.7-1.56a1.41,1.41,0,0,1,1.53-1.67,1.57,1.57,0,0,1,1.71,1.59C252.49,329.4,251.84,329.86,250.82,329.95Z" style="fill:#ed6e50"/><path d="M102.18,245.44a1.77,1.77,0,0,1-1.87,1.74c-1,0-1.44-.51-1.48-1.45a1.57,1.57,0,0,1,1.64-1.87C101.56,243.81,102,244.47,102.18,245.44Z" style="fill:#ed6e50"/><path d="M250.72,246.93c-1-.11-1.62-.62-1.6-1.69a1.64,1.64,0,0,1,3.29.08C252.39,246.38,251.73,246.87,250.72,246.93Z" style="fill:#ed6e50"/><path d="M175.07,164.14a1.59,1.59,0,0,1-1.66-1.64,1.56,1.56,0,0,1,1.81-1.69,1.53,1.53,0,0,1,1.51,1.74C176.71,163.61,176,164,175.07,164.14Z" style="fill:#ed6e50"/><path d="M176.73,79.34c0,1-.5,1.69-1.56,1.73a1.54,1.54,0,0,1-1.75-1.55,1.66,1.66,0,0,1,3.31-.18Z" style="fill:#ed6e50"/><path d="M100.61,164.14c-.94-.08-1.67-.42-1.76-1.49a1.53,1.53,0,0,1,1.64-1.83,1.51,1.51,0,0,1,1.66,1.59A1.57,1.57,0,0,1,100.61,164.14Z" style="fill:#ed6e50"/><path d="M252.42,162.26c-.07,1.14-.56,1.81-1.6,1.85a1.65,1.65,0,0,1-.13-3.29A1.55,1.55,0,0,1,252.42,162.26Z" style="fill:#ed6e50"/><path d="M272.9,247.69l-.35.46-.28-.62Z" style="fill:#e3d9d1"/><path d="M299.13,443.05l15.28,6.25c-.49,3.39-2.24,6.28-3.69,9.29a39.34,39.34,0,0,0-3.17,9.95c-.91,4.87.32,9.64-.2,14.5a94.37,94.37,0,0,1-3.73,19.62c-1,2.93-2.14,5.85-2.2,9-.76,1.94-.65,4-1.11,6a6.27,6.27,0,0,0-3.91,1.51A8.54,8.54,0,0,1,289,521c.24-1,1.15-1.5,1.8-2.18a8.22,8.22,0,0,0,2.43-5.59c0-4.87.65-9.7.57-14.58-.13-8.37,1-16.68,1.8-25,.36-3.81,0-7.64.44-11.48.57-5.56,1.87-11,2.7-16.48C298.88,444.78,299,443.92,299.13,443.05Z" style="fill:#e3d9d1"/><path d="M326.89,451.68c5.29,0,10.59.19,15.86-.46a10.78,10.78,0,0,1-.72,4.68c-1.33,3.11-.58,6.3-.08,9.4,1.17,7.3.64,14.54,0,21.82s-2.31,14.41-2.58,21.72c-.05,1.42-.62,2.8-.41,4.25q0,2.69-.07,5.39c-1.92.05-3.83.11-5.51,1.25-.79.53-1.52.13-2.17-.41-.94-.78,0-1.21.32-1.75,1.59-1.76.22-3.62.17-5.43-.59-5.85-2.08-11.57-2.46-17.47a166.67,166.67,0,0,1,0-23.18,44.78,44.78,0,0,0-.23-10.27C328.45,458,326.77,455,326.89,451.68Z" style="fill:#e3d9d1"/><path d="M353.75,350.43c1.14-2.28,3.31-3.48,5.15-5.07,1.6-1.38,3-3,4.45-4.55,4.3,6.58,6.42,14,8.17,21.55.67,2.91.47,5.88.47,8.82,0,10.39,0,20.79,0,31.18a68.78,68.78,0,0,0,.87,10c.4,2.8-.31,5.56-.61,8.32-.18,1.61-1.59,2.78-3.14,3.38s-2.9.11-3.31-1.64c-.46-2-.73-4.06-1.09-6.17-.6.1-.44.71-.67,1s-.49.89-1.09.68-.51-.75-.52-1.22c-.07-3.43-.26-6.89,1.36-10.08,2.16-4.25,1.55-8.68.93-13.12-1.12-8-2.63-15.89-2.25-24a18.55,18.55,0,0,0-4.4-12.79C356.47,354.76,355.17,352.54,353.75,350.43Z" style="fill:#e3d9d1"/><path d="M300.29,517.71c.46-2,.35-4.09,1.11-6a119.6,119.6,0,0,1,15.29-.46c.84,0,1.78-.29,2.5.46-.58,7.37-1.28,14.75.48,22.08-5.75,0-11.49,0-17.24,0A59.11,59.11,0,0,1,290,532.24c-1.17-.26-2.17-1-1.7-2.36s-.57-3.67,2.17-3.8c.85,0,2,.5,2.33-1a27.37,27.37,0,0,1,3.79.21c2.3.44,3.43-.63,4-2.68C301.09,521,300.59,519.34,300.29,517.71Z" style="fill:#f3f5f8"/><path d="M319.68,533.76c-1.76-7.32-1.07-14.7-.48-22.08,4.15.07,8.32-.26,12.45.46,0,1.81,1.41,3.67-.17,5.43a12.21,12.21,0,0,0-5,.51c-1.54.45-1.91,1.64-.49,2.26,3.58,1.57,6.73,4.3,10.93,4.33l-.94,8.1C330.57,533,325.15,533.83,319.68,533.76Z" style="fill:#eaedf2"/><path d="M336,532.78l.94-8.1c3-1.33,2.08-3.88,1.88-6.19q0-2.69.07-5.39c4.41.26,8.82.54,12.94,2.38-.59,4.83-1.23,9.66.48,14.42-4.15,1.41-8.52,1.71-12.8,2.38C338.37,532.45,337.17,532.49,336,532.78Z" style="fill:#e0e4ec"/><path d="M352.33,529.89c-1.71-4.75-1.08-9.59-.48-14.42a23.51,23.51,0,0,1,10.78,3.62c3.52,2.14,3.44,4.76,0,7C359.46,528.12,355.9,529,352.33,529.89Z" style="fill:#d0d7e2"/><path d="M300.29,517.71c.29,1.63.8,3.24.31,4.94-.59,2-1.72,3.12-4,2.68a27.37,27.37,0,0,0-3.79-.21,21.6,21.6,0,0,0-6.14.27,10.44,10.44,0,0,1-5.34-.75c-.6-.22-1.33-.45-1.26-1.2s.76-.69,1.31-.82A56.05,56.05,0,0,1,289,521a8.54,8.54,0,0,0,7.38-1.75A6.27,6.27,0,0,1,300.29,517.71Z" style="fill:#ed6e51"/><path d="M274.41,251.6l-.11-3.9a1.52,1.52,0,0,1,1.26-.59c13.12-.84,24.74,2.08,34.18,12.11,11.53,12.24,17.29,38.94-2.25,57.07-1.64,1.52-3.39,2.92-5.1,4.37-1.59.1-2.61-1.09-3.87-1.72a92,92,0,0,0-13-5.44c-1.42-.46-2.36-1-2.33-2.8.09-6.8-1.84-13.2-4.15-19.51A49.63,49.63,0,0,1,276,271c.12-2.09,1.4-3.87,1.47-6,.1-3-1.06-5.78-1.28-8.72-.09-1.26-.46-2.5-.66-3.75A1,1,0,0,0,274.41,251.6Z" style="fill:#f2f2f3"/><path d="M338.84,518.49c.19,2.31,1.16,4.86-1.88,6.19-4.19,0-7.35-2.76-10.93-4.33-1.42-.62-1.06-1.81.49-2.26a12.21,12.21,0,0,1,5-.51c-.35.54-1.27,1-.32,1.75.65.54,1.38.94,2.17.41C335,518.59,336.92,518.54,338.84,518.49Z" style="fill:#ed6e51"/></svg>