<svg xmlns="http://www.w3.org/2000/svg" viewBox="0 0 350.78 477.52"><title>process3</title><path d="M55,112.41c-4.88,0-9.75,0-14.62.35-14.31,1.11-25.58,7.4-33.36,19.61a43.37,43.37,0,0,0,32.58,66.89c10.44,1,20.94.07,31.4.4,1.76.06,2.27-.41,2.32-2.2.06-2.06-1.13-2-2.45-2-4.24,0-8.48.08-12.71,0-6.39-.06-12.83.51-19.18-.29a39.44,39.44,0,0,1,2.67-78.58c9.73-.5,19.5-.14,29.25-.15,1.46,0,2.51-.25,2.45-2.08s-1-2.06-2.51-2C65.57,112.44,60.29,112.41,55,112.41Zm195.41,4c3.76,0,7.52-.11,11.28,0a33.92,33.92,0,0,0,14.23-2.85c20.09-8.23,31-32.7,24.14-54.25-5.31-16.8-19.15-28.62-35.75-29.66-9.64-.61-19.34-.18-29-.21-1.48,0-1.87.89-1.89,2.19,0,1.5.73,1.9,2.09,1.89,6.32-.05,12.63,0,18.95-.08,7.22-.08,14.41-.22,21.1,3.22,20.82,10.68,31.26,38.83,13.45,61.5-7.45,9.48-17,14.93-29.63,14.32-7.82-.38-15.67-.1-23.51-.11-1.19,0-2.44-.26-2.33,1.75.09,1.61.31,2.39,2.25,2.32C240.67,116.31,245.55,116.43,250.43,116.42ZM141.16,258.75c0,6.51,4.73,11.18,11.46,11.27A11.18,11.18,0,0,0,164,258.65c0-6.65-4.76-11.32-11.62-11.32C145.81,247.32,141.17,252,141.16,258.75Zm11.32-92.83c-6.85,0-11.47,4.83-11.41,11.81,0,5.72,5.44,11,11.22,10.93,6.91-.06,11.75-4.83,11.73-11.57C164,170.59,159.13,165.87,152.48,165.92Zm87.45,92.92c0-6.83-4.52-11.47-11.33-11.54a11.37,11.37,0,1,0,11.33,11.54Zm-161.79-93A11.21,11.21,0,0,0,66.75,177a11.34,11.34,0,1,0,11.4-11.15Zm0-61.66A11.36,11.36,0,0,0,78,81.45a11.36,11.36,0,0,0,.19,22.72Zm150.1-81.55c7-.06,11.87-4.81,11.78-11.46A11.13,11.13,0,0,0,228.65,0c-6.52,0-11.37,5-11.3,11.71C217.41,17.52,222.59,22.68,228.26,22.63Zm.56,143.21a11.37,11.37,0,0,0,0,22.74,11.37,11.37,0,1,0,0-22.74Zm.11-61.66a11.47,11.47,0,0,0,11.28-11.35,11.35,11.35,0,0,0-11.48-11.37,11.24,11.24,0,0,0-11.25,11.31A11.4,11.4,0,0,0,228.93,104.18ZM164.09,92.8a11.36,11.36,0,0,0-11.25-11.35,11.11,11.11,0,0,0-11.41,11.09,11.28,11.28,0,0,0,11.16,11.64A11.48,11.48,0,0,0,164.09,92.8ZM152.75,0a11.14,11.14,0,0,0-11.32,11.18,11.08,11.08,0,0,0,11.26,11.45A11.32,11.32,0,1,0,152.75,0Zm37.72,116.41h4.07l26.83.08c1.24,0,2.41,0,2.29-1.87-.1-1.57-.3-2.26-2.26-2.24-13.18.12-26.36,0-39.54,0-7.27,0-14.54,0-21.8-.06-1.61,0-2.2.58-2.24,2.27s.82,1.82,2.2,1.82C170.18,116.4,180.32,116.42,190.46,116.41Zm0-82.92v.06c10.23,0,20.47,0,30.7,0,1.7,0,2.4-.52,2.42-2.35s-1.11-1.7-2.34-1.7q-22.55,0-45.1,0-8,0-16.07-.08c-1.55,0-2.28.39-2.26,2.2s.72,1.89,2.17,1.88C170.15,33.47,180.31,33.49,190.46,33.49Zm-75.13,78.92v0c-10.16,0-20.32,0-30.48,0-1.35,0-1.92.31-1.71,1.74.17,1.17-.1,2.34,1.84,2.34q30.23-.07,60.47,0c1.48,0,2.51-.24,2.51-2s-.81-2.12-2.4-2.11C135.49,112.44,125.41,112.41,115.33,112.41Zm0,87.23v0h29.73c1.38,0,2.82.1,2.84-2s-1.24-2.2-2.86-2.19c-8.47,0-16.94,0-25.41,0-11.19,0-22.38,0-33.57,0-1.82,0-2.94.43-2.94,2.49s1.53,1.64,2.72,1.65Q100.6,199.66,115.35,199.64Zm75.3-.36h30.48c1.28,0,2.66.37,2.53-1.75-.11-1.84-.87-2.61-2.74-2.36a27.84,27.84,0,0,1-3.59.16q-28.56,0-57.12,0c-.91,0-2.45-.86-2.42,1.44,0,2,.63,2.54,2.62,2.52C170.49,199.22,180.57,199.28,190.65,199.28Zm-.33,79.18q-15.1,0-30.19,0c-1.26,0-2.46-.09-2.44,1.72,0,1.62,1,2,2.36,2.08.64,0,1.28,0,1.92,0H221.4c1.17,0,2.38.09,2.35-1.57a2.12,2.12,0,0,0-2.28-2.24c-.48,0-1,0-1.44,0ZM77.95,131.08h0c3.35,0,6.7-.09,10,0,2,.08,2.77-.62,2.79-2.57s-1.11-2.2-2.64-2.19c-6.78,0-13.56.08-20.33,0-1.81,0-2.55.44-2.55,2.4s1,2.37,2.66,2.33C71.26,131,74.6,131.08,77.95,131.08Zm151,0v0c3.28,0,6.56-.07,9.84,0,1.78.05,2.87-.18,2.82-2.39s-1.13-2.33-2.78-2.32q-10.08,0-20.15,0c-1.58,0-2.66.37-2.66,2.23s.76,2.57,2.63,2.52C222.11,131,225.55,131.12,229,131.12Zm-.39-87.29v0c-3.36,0-6.72.09-10.08,0C216.8,43.75,216,44.2,216,46s.81,2.39,2.49,2.38q10.32,0,20.63,0c1.55,0,2.42-.52,2.45-2.19s-.75-2.46-2.47-2.44C235.63,43.86,232.11,43.82,228.6,43.82Zm.1,248.6v0H218.14c-.86,0-1.9-.19-2,1.12s-.1,2.5,1.3,3a6,6,0,0,0,2.11.36c6.64,0,13.27,0,19.91,0,1.73,0,2.15-.9,2.13-2.44s-.54-2.19-2.12-2.17C235.89,292.47,232.29,292.43,228.7,292.43ZM153.16,131.08v0c3.43,0,6.87-.07,10.3,0,1.73.05,2.44-.45,2.43-2.29s-.53-2.45-2.33-2.44q-10.3.1-20.59,0c-1.72,0-2.42.49-2.45,2.31s.8,2.47,2.59,2.41C146.45,131,149.81,131.08,153.16,131.08Zm.23-87.25c-3.59,0-7.18,0-10.77,0-1.55,0-2.09.79-2.1,2.24s.35,2.35,2,2.35h21.3c1.74,0,2.06-1.09,2.1-2.54s-.72-2.08-2.2-2.06C160.25,43.86,156.82,43.82,153.39,43.83Zm0,248.61v0c-3.59,0-7.18,0-10.77,0-1.55,0-2.13.66-2.11,2.17,0,1.36.27,2.4,1.91,2.4h21.29c1.7,0,2.13-1,2.14-2.48s-.67-2.11-2.18-2.08C160.27,292.48,156.84,292.44,153.41,292.44ZM78.11,214.12c3.43,0,6.85-.06,10.28,0,1.58,0,2.32-.37,2.31-2.12s-.47-2.59-2.28-2.49c-6.92.39-13.85,0-20.77,0-1.79,0-2.36.72-2.36,2.43s.71,2.23,2.31,2.19C71.1,214.07,74.61,214.12,78.11,214.12Zm75.37-4.4c-3.67,0-7.34,0-11,0-1.68,0-2,.81-1.94,2.24s.18,2.26,1.92,2.24q10.65-.1,21.31,0c1.81,0,2.08-.83,2.09-2.36s-.5-2.16-2.07-2.13C160.35,209.77,156.91,209.72,153.48,209.72Zm75.31,4.41v-.05c3.52,0,7-.06,10.56,0,1.51,0,2.16-.35,2.09-2-.06-1.48-.16-2.4-2-2.38-7,.08-13.92.05-20.87,0-1.62,0-2.41.69-2.42,2.25,0,1.74.88,2.27,2.61,2.2C222.08,214,225.44,214.14,228.8,214.14ZM152.63,282c1.11,0,1.85-.53,1.87-1.72,0-1-.59-1.44-1.5-1.52a1.45,1.45,0,0,0-1.79,1.46C151.15,281.17,151.43,282,152.63,282Zm1.79-84.69c0-1.12-.66-1.56-1.65-1.64s-1.59.58-1.58,1.62.33,1.79,1.46,1.79A1.56,1.56,0,0,0,154.42,197.31Zm75.76-166a1.5,1.5,0,0,0-1.81-1.35c-1,.07-1.75.52-1.69,1.6a1.52,1.52,0,0,0,1.69,1.6A1.7,1.7,0,0,0,230.18,31.28ZM228.64,282c1-.08,1.66-.55,1.54-1.65a1.57,1.57,0,0,0-1.71-1.59,1.41,1.41,0,0,0-1.53,1.67C227,281.49,227.62,282,228.64,282ZM80,197.48c-.16-1-.63-1.63-1.71-1.58a1.57,1.57,0,0,0-1.64,1.87c0,.94.51,1.48,1.48,1.45A1.77,1.77,0,0,0,80,197.48ZM228.53,199c1-.06,1.67-.55,1.69-1.61a1.64,1.64,0,0,0-3.29-.08C226.91,198.35,227.52,198.86,228.53,199Zm-75.65-82.79c1-.1,1.65-.53,1.66-1.59a1.53,1.53,0,0,0-1.51-1.74,1.56,1.56,0,0,0-1.81,1.69A1.59,1.59,0,0,0,152.88,116.18Zm1.67-84.8a1.66,1.66,0,0,0-3.31.18A1.54,1.54,0,0,0,153,33.12C154,33.08,154.52,32.42,154.54,31.39ZM78.43,116.18A1.57,1.57,0,0,0,80,114.44a1.51,1.51,0,0,0-1.66-1.59,1.53,1.53,0,0,0-1.64,1.83C76.75,115.76,77.49,116.1,78.43,116.18Zm151.81-1.88a1.55,1.55,0,0,0-1.73-1.44,1.65,1.65,0,0,0,.13,3.29C229.67,116.11,230.17,115.44,230.24,114.3Z" style="fill:#f2f2f3"/><path d="M276.94,395.09a4.87,4.87,0,0,0-2.42-1.83c-2.27-.92-2.32-2.52-1.72-4.44.85-2.71,1.71-5.41,2.57-8.11,6-19.73,12.09-39.41,17-59.44a89.22,89.22,0,0,0,2.31-13.36c.7-8.09-3.46-13-10.16-16.52a30.12,30.12,0,0,1-5.25-2.83,70,70,0,0,0,5.31-13.48c8,1.79,16.12,3.35,24.44,2.88-.26,1.25-.57,2.48-.78,3.74-.62,3.63,2.87,7.82,6.54,7.82a19,19,0,0,0,12-4.31c3.2-2.55,6-3,9.19-.53a2.69,2.69,0,0,0,1.16,2.6,13,13,0,0,1,4.11,5.58c-1.47,1.53-2.85,3.17-4.45,4.55-1.83,1.58-4,2.79-5.15,5.07-2.89,2.21-2.79,5.62-3.27,8.68a88.1,88.1,0,0,0-1,17.88c.56,11.38,1.2,22.76,1.59,34.16.35,10.07,0,20.07-.6,30.09-.13,2.31-.23,4.61-.48,6.91a2,2,0,0,1-1.84,2.08c-1.8.32-3.59.67-5.39,1-5.27.64-10.57.44-15.86.46a82.65,82.65,0,0,0-12.48-2.38Z" style="fill:#fecc52"/><path d="M335.89,284.68c-3.22-2.51-6-2-9.19.53a19,19,0,0,1-12,4.31c-3.67,0-7.17-4.19-6.54-7.82.22-1.25.52-2.49.78-3.74l1.42-1.49a13.16,13.16,0,0,0,6.86-10c.8-5.07,1-10.3,3.54-15a1.52,1.52,0,0,0-.83-2.34c-2.37-1.11-4.55-2.63-7.09-3.36-1.42-.86-1.17-1.83-.24-2.92,2.81-3.35,6.53-4.55,10.74-4.62A33.77,33.77,0,0,1,334,243c3.45,2.4,5.61,5.62,5.16,9.89-.66,6.18,1.09,12,2,17.94C342.06,276.25,340,281,335.89,284.68Z" style="fill:#97a3b8"/><path d="M284.55,275.07a70,70,0,0,1-5.31,13.48c-4.36-.72-8-3.07-11.69-5.27a4.72,4.72,0,0,0-2.63-1c-1.17-2.15-3.38-2.88-5.35-3.95a17.7,17.7,0,0,0-5.33-4.36c-4.38-2.67-5-6.85-5.77-11.31a161.9,161.9,0,0,1-1.81-32.61c.13-4.11-1-8-1-12.1,0-3.51,1.14-6.23,4.76-7.38,1.27-.25,1.32-1.22,1.28-2.21a19.38,19.38,0,0,1,.54-4.72,1,1,0,0,1,1.13.95c.21,1.25.57,2.49.66,3.75.22,2.94,1.38,5.71,1.28,8.72-.07,2.14-1.35,3.93-1.47,6a49.63,49.63,0,0,0,3,20.17c2.31,6.3,4.24,12.7,4.15,19.51,0,1.76.92,2.34,2.33,2.8a92,92,0,0,1,13,5.44c1.26.63,2.28,1.82,3.87,1.72a5,5,0,0,0,4.31,1.89Z" style="fill:#f4caae"/><path d="M55,112.41c5.28,0,10.55,0,15.83,0,1.5,0,2.45.28,2.51,2s-1,2.08-2.45,2.08c-9.75,0-19.52-.35-29.25.15A39.44,39.44,0,0,0,39,195.25c6.35.8,12.78.22,19.18.29,4.24,0,8.48,0,12.71,0,1.32,0,2.5-.09,2.45,2,0,1.79-.56,2.26-2.32,2.2-10.47-.33-21,.56-31.4-.4A43.37,43.37,0,0,1,7,132.37c7.78-12.22,19.05-18.5,33.36-19.61C45.26,112.38,50.14,112.41,55,112.41Z" style="fill:#ed6e50"/><path d="M250.43,116.42c-4.88,0-9.76-.11-14.63.06-1.95.07-2.16-.71-2.25-2.32-.11-2,1.14-1.75,2.33-1.75,7.84,0,15.69-.27,23.51.11,12.58.61,22.18-4.84,29.63-14.32,17.81-22.67,7.37-50.82-13.45-61.5-6.69-3.43-13.89-3.3-21.1-3.22-6.32.07-12.63,0-18.95.08-1.36,0-2.12-.39-2.09-1.89,0-1.31.42-2.2,1.89-2.19,9.67,0,19.38-.4,29,.21,16.6,1,30.44,12.86,35.75,29.66,6.82,21.55-4.06,46-24.14,54.25a33.92,33.92,0,0,1-14.23,2.85C258,116.31,254.19,116.42,250.43,116.42Z" style="fill:#ed6e50"/><path d="M284.51,274.6a5,5,0,0,1-4.31-1.89c1.7-1.45,3.46-2.85,5.1-4.37,19.54-18.13,13.78-44.83,2.25-57.07-9.44-10-21.06-13-34.18-12.11a1.52,1.52,0,0,0-1.26.59h-1.4l-.63-.16c-4.69-.65-9.4-.23-14.1-.22-2.21,0-2.46-.92-2.42-2.64,0-1.07.56-1.48,1.47-1.44,10.79.42,21.64-.83,32.35.53,14.25,1.81,23.6,10.77,30,23,9.43,18,4.66,40.95-10.88,54.11C285.82,273.43,285.17,274,284.51,274.6Z" style="fill:#ed6e50"/><path d="M141.16,258.75c0-6.72,4.65-11.43,11.25-11.42,6.86,0,11.65,4.68,11.62,11.32A11.18,11.18,0,0,1,152.61,270C145.88,269.92,141.14,265.26,141.16,258.75Z" style="fill:#fecc53"/><path d="M152.48,165.91c6.65,0,11.52,4.67,11.54,11.17,0,6.74-4.82,11.51-11.73,11.57-5.78,0-11.17-5.2-11.22-10.93C141,170.74,145.63,166,152.48,165.91Z" style="fill:#fecc53"/><path d="M239.93,258.83a11.31,11.31,0,1,1-11.33-11.54C235.41,247.35,240,252,239.93,258.83Z" style="fill:#fecc53"/><path d="M78.15,165.83A11.37,11.37,0,1,1,66.75,177,11.31,11.31,0,0,1,78.15,165.83Z" style="fill:#fecc53"/><path d="M78.17,104.17A11.36,11.36,0,1,1,89.42,92.82,11.31,11.31,0,0,1,78.17,104.17Z" style="fill:#fecc53"/><path d="M228.26,22.63c-5.67.05-10.85-5.11-10.91-10.88C217.28,5.08,222.12.06,228.64,0A11.13,11.13,0,0,1,240,11.17C240.13,17.82,235.25,22.57,228.26,22.63Z" style="fill:#fecc53"/><path d="M228.82,165.83a11.37,11.37,0,1,1-11.34,11.24A11.29,11.29,0,0,1,228.82,165.83Z" style="fill:#fecc53"/><path d="M228.93,104.17a11.4,11.4,0,0,1-11.44-11.41,11.24,11.24,0,0,1,11.25-11.31,11.35,11.35,0,0,1,11.47,11.37A11.47,11.47,0,0,1,228.93,104.17Z" style="fill:#fecc53"/><path d="M164.09,92.8a11.48,11.48,0,0,1-11.51,11.37,11.28,11.28,0,0,1-11.16-11.64,11.11,11.11,0,0,1,11.41-11.09A11.36,11.36,0,0,1,164.09,92.8Z" style="fill:#fecc53"/><path d="M152.75,0a11.31,11.31,0,1,1-.05,22.63,11.08,11.08,0,0,1-11.26-11.45A11.14,11.14,0,0,1,152.75,0Z" style="fill:#fecc53"/><path d="M312.87,245.79c2.55.73,4.72,2.25,7.09,3.36a1.52,1.52,0,0,1,.83,2.34c-2.53,4.67-2.74,9.9-3.54,15a13.16,13.16,0,0,1-6.86,10c.18-.94.4-1.86.52-2.81a4.34,4.34,0,0,0-2.87-5.11c-3.59-1.58-3.53-1.8-2.9-5.64.4-2.44,1.84-4.87.15-7.38a.74.74,0,0,1,.35-1C309.27,252.6,310.34,248.59,312.87,245.79Z" style="fill:#f4caae"/><path d="M190.46,116.42c-10.14,0-20.29,0-30.43,0-1.38,0-2.24,0-2.2-1.82s.63-2.28,2.24-2.27c7.27,0,14.54.05,21.8.06,13.18,0,26.36.09,39.54,0,2,0,2.16.67,2.26,2.24.12,1.9-1.06,1.87-2.29,1.87l-26.83-.08Z" style="fill:#ed6e50"/><path d="M190.46,33.49c-10.15,0-20.31,0-30.46,0-1.45,0-2.14-.13-2.17-1.88s.71-2.22,2.26-2.2q8,.08,16.07.08,22.55,0,45.1,0c1.22,0,2.36-.27,2.34,1.7s-.72,2.36-2.42,2.35c-10.23,0-20.47,0-30.7,0Z" style="fill:#ed6e50"/><path d="M115.33,112.41c10.08,0,20.16,0,30.24,0,1.59,0,2.4.41,2.4,2.11s-1,2-2.51,2q-30.23-.06-60.47,0c-1.94,0-1.66-1.17-1.84-2.34-.21-1.43.35-1.75,1.71-1.74,10.16.05,20.32,0,30.48,0Z" style="fill:#ed6e50"/><path d="M115.35,199.64q-14.75,0-29.49,0c-1.19,0-2.72.48-2.72-1.65s1.12-2.49,2.94-2.49c11.19.05,22.38,0,33.57,0,8.47,0,16.94,0,25.41,0,1.62,0,2.88.1,2.86,2.19s-1.45,2-2.84,2H115.35Z" style="fill:#ed6e50"/><path d="M190.65,199.28c-10.08,0-20.16-.05-30.24,0-2,0-2.59-.5-2.62-2.52,0-2.3,1.51-1.43,2.42-1.44q28.56-.07,57.12,0a27.84,27.84,0,0,0,3.59-.16c1.87-.24,2.63.53,2.74,2.36.12,2.12-1.26,1.76-2.53,1.75Z" style="fill:#ed6e50"/><path d="M190.32,278.45H220c.48,0,1,0,1.44,0a2.12,2.12,0,0,1,2.28,2.24c0,1.66-1.19,1.57-2.35,1.57H162c-.64,0-1.28,0-1.92,0-1.31-.08-2.34-.46-2.36-2.08,0-1.82,1.18-1.73,2.44-1.72Q175.23,278.47,190.32,278.45Z" style="fill:#ed6e50"/><path d="M78,131.08c-3.34,0-6.69-.06-10,0-1.71,0-2.66-.28-2.66-2.32s.74-2.42,2.55-2.4c6.78.07,13.55,0,20.33,0,1.54,0,2.66.25,2.64,2.19s-.83,2.64-2.79,2.57c-3.34-.13-6.7,0-10,0Z" style="fill:#fecc53"/><path d="M229,131.11c-3.44,0-6.88-.07-10.32,0-1.86.05-2.63-.71-2.63-2.52s1.07-2.24,2.66-2.23q10.08.05,20.15,0c1.65,0,2.73.26,2.78,2.32s-1,2.45-2.82,2.39c-3.28-.1-6.56,0-9.84,0Z" style="fill:#fecc53"/><path d="M228.59,43.82c3.52,0,7,0,10.56,0,1.72,0,2.5.7,2.47,2.44s-.9,2.2-2.45,2.19q-10.32-.05-20.63,0c-1.68,0-2.47-.58-2.49-2.38s.75-2.3,2.47-2.24c3.35.12,6.72,0,10.08,0Z" style="fill:#fecc53"/><path d="M228.7,292.43c3.6,0,7.2,0,10.8,0,1.58,0,2.1.67,2.12,2.17s-.41,2.45-2.13,2.44c-6.64,0-13.27,0-19.91,0a6,6,0,0,1-2.11-.36c-1.4-.55-1.38-1.84-1.3-3s1.12-1.11,2-1.12H228.7Z" style="fill:#fecc53"/><path d="M153.16,131.07c-3.35,0-6.71-.07-10.06,0-1.79.05-2.62-.45-2.59-2.41s.73-2.32,2.45-2.31q10.3.09,20.59,0c1.8,0,2.32.71,2.33,2.44s-.7,2.34-2.43,2.29c-3.43-.1-6.86,0-10.3,0Z" style="fill:#fecc53"/><path d="M153.39,43.82c3.43,0,6.86,0,10.29,0,1.48,0,2.25.46,2.2,2.06s-.36,2.54-2.1,2.54h-21.3c-1.61,0-2-.94-2-2.35s.55-2.25,2.1-2.24C146.21,43.84,149.8,43.82,153.39,43.82Z" style="fill:#fecc53"/><path d="M153.41,292.44c3.43,0,6.86,0,10.29,0,1.51,0,2.19.51,2.18,2.08s-.45,2.48-2.14,2.48H142.43c-1.64,0-1.89-1-1.91-2.4,0-1.51.56-2.19,2.11-2.17,3.59,0,7.18,0,10.77,0Z" style="fill:#fecc53"/><path d="M78.12,214.11c-3.5,0-7,0-10.51,0-1.6,0-2.31-.5-2.31-2.19s.57-2.43,2.36-2.43c6.92,0,13.85.4,20.77,0,1.81-.1,2.27.81,2.28,2.49s-.73,2.16-2.31,2.12C85,214.05,81.54,214.11,78.12,214.11Z" style="fill:#fecc53"/><path d="M259.57,278.34c2,1.07,4.18,1.79,5.35,3.95q-14.64,0-29.28,0c-1.23,0-2.27,0-2.2-1.68s.69-2.24,2.37-2.24C243.73,278.44,251.65,278.37,259.57,278.34Z" style="fill:#ed6e50"/><path d="M153.48,209.71c3.43,0,6.86,0,10.29,0,1.57,0,2.08.59,2.07,2.13s-.28,2.37-2.09,2.36q-10.65-.11-21.3,0c-1.74,0-1.9-.86-1.92-2.24s.26-2.28,1.94-2.24C146.14,209.76,149.81,209.71,153.48,209.71Z" style="fill:#fecc53"/><path d="M228.8,214.13c-3.36,0-6.72-.1-10.07,0-1.73.07-2.62-.47-2.61-2.2,0-1.56.8-2.26,2.42-2.25,7,0,13.92.07,20.87,0,1.87,0,2,.9,2,2.38.07,1.66-.58,2-2.09,2-3.52-.08-7,0-10.56,0Z" style="fill:#fecc53"/><path d="M250.71,199.73h1.4l.11,3.9a19.38,19.38,0,0,0-.54,4.72c0,1,0,2-1.28,2.21q0-5.19,0-10.39Z" style="fill:#fecc53"/><path d="M152.62,282c-1.19,0-1.48-.84-1.42-1.79a1.45,1.45,0,0,1,1.79-1.46c.91.08,1.51.54,1.5,1.52C154.47,281.48,153.74,282,152.62,282Z" style="fill:#ed6e50"/><path d="M154.42,197.31a1.56,1.56,0,0,1-1.77,1.77c-1.14,0-1.46-.81-1.46-1.79s.45-1.7,1.58-1.62S154.44,196.19,154.42,197.31Z" style="fill:#ed6e50"/><path d="M230.18,31.28a1.7,1.7,0,0,1-1.81,1.86,1.52,1.52,0,0,1-1.69-1.6c-.06-1.08.73-1.53,1.69-1.6A1.5,1.5,0,0,1,230.18,31.28Z" style="fill:#ed6e50"/><path d="M228.64,282c-1,0-1.66-.5-1.7-1.56a1.41,1.41,0,0,1,1.53-1.67,1.57,1.57,0,0,1,1.71,1.59C230.3,281.44,229.65,281.91,228.64,282Z" style="fill:#ed6e50"/><path d="M80,197.48a1.77,1.77,0,0,1-1.87,1.74c-1,0-1.44-.51-1.48-1.45a1.57,1.57,0,0,1,1.64-1.87C79.37,195.85,79.83,196.51,80,197.48Z" style="fill:#ed6e50"/><path d="M228.53,199c-1-.11-1.62-.62-1.6-1.69a1.64,1.64,0,0,1,3.29.08C230.2,198.42,229.55,198.91,228.53,199Z" style="fill:#ed6e50"/><path d="M152.88,116.18a1.59,1.59,0,0,1-1.66-1.64,1.56,1.56,0,0,1,1.81-1.69,1.53,1.53,0,0,1,1.51,1.74C154.53,115.66,153.84,116.08,152.88,116.18Z" style="fill:#ed6e50"/><path d="M154.54,31.39c0,1-.5,1.69-1.56,1.73a1.54,1.54,0,0,1-1.75-1.55,1.66,1.66,0,0,1,3.31-.18Z" style="fill:#ed6e50"/><path d="M78.43,116.18c-.94-.08-1.67-.42-1.76-1.49a1.53,1.53,0,0,1,1.64-1.83A1.51,1.51,0,0,1,80,114.44,1.57,1.57,0,0,1,78.43,116.18Z" style="fill:#ed6e50"/><path d="M230.24,114.3c-.07,1.14-.56,1.81-1.6,1.85a1.65,1.65,0,0,1-.13-3.29A1.55,1.55,0,0,1,230.24,114.3Z" style="fill:#ed6e50"/><path d="M250.71,199.73l-.35.46-.28-.62Z" style="fill:#e3d9d1"/><path d="M276.94,395.09l15.28,6.25c-.49,3.39-2.24,6.28-3.69,9.29a39.34,39.34,0,0,0-3.17,9.95c-.91,4.87.32,9.64-.2,14.5a94.37,94.37,0,0,1-3.73,19.62c-1,2.93-2.14,5.85-2.2,9-.76,1.94-.65,4-1.11,6a6.27,6.27,0,0,0-3.91,1.51,8.54,8.54,0,0,1-7.38,1.75c.24-1,1.15-1.5,1.8-2.18a8.22,8.22,0,0,0,2.43-5.59c0-4.87.65-9.7.57-14.58-.13-8.37,1-16.68,1.8-25,.36-3.81,0-7.64.44-11.48.57-5.56,1.87-11,2.7-16.48C276.69,396.82,276.81,396,276.94,395.09Z" style="fill:#f4caae"/><path d="M304.7,403.72c5.29,0,10.59.19,15.86-.46a10.78,10.78,0,0,1-.72,4.68c-1.33,3.11-.58,6.3-.08,9.4,1.17,7.3.64,14.54,0,21.82s-2.31,14.41-2.58,21.72c-.05,1.42-.62,2.8-.41,4.25q0,2.69-.07,5.39c-1.92.05-3.83.11-5.51,1.25-.79.53-1.52.13-2.17-.41-.94-.78,0-1.21.32-1.75,1.59-1.76.22-3.62.17-5.43-.59-5.85-2.08-11.57-2.46-17.47a166.67,166.67,0,0,1,0-23.18,44.78,44.78,0,0,0-.23-10.27C306.27,410,304.59,407.07,304.7,403.72Z" style="fill:#f4caae"/><path d="M331.56,302.47c1.14-2.28,3.31-3.48,5.15-5.07,1.6-1.38,3-3,4.45-4.55,4.3,6.58,6.42,14,8.17,21.55.67,2.91.47,5.88.47,8.82,0,10.39,0,20.79,0,31.18a68.78,68.78,0,0,0,.87,10c.4,2.8-.31,5.56-.61,8.32-.18,1.61-1.59,2.78-3.14,3.38s-2.9.11-3.31-1.64c-.46-2-.73-4.06-1.09-6.17-.6.1-.44.71-.67,1s-.49.89-1.09.68-.51-.75-.52-1.22c-.07-3.43-.26-6.89,1.36-10.08,2.16-4.25,1.55-8.68.93-13.12-1.12-8-2.63-15.89-2.25-24a18.55,18.55,0,0,0-4.4-12.79C334.29,306.8,333,304.59,331.56,302.47Z" style="fill:#f4caae"/><path d="M278.11,469.75c.29,1.63.8,3.24.31,4.94-.59,2-1.72,3.12-4,2.68a27.37,27.37,0,0,0-3.79-.21,21.6,21.6,0,0,0-6.14.27,10.44,10.44,0,0,1-5.34-.75c-.6-.22-1.33-.45-1.26-1.2s.76-.69,1.31-.82a56.05,56.05,0,0,1,7.64-1.65,8.54,8.54,0,0,0,7.38-1.75A6.27,6.27,0,0,1,278.11,469.75Z" style="fill:#ed6e51"/><path d="M316.65,470.53c.19,2.31,1.16,4.86-1.88,6.19-4.19,0-7.35-2.76-10.93-4.33-1.42-.62-1.06-1.81.49-2.26a12.21,12.21,0,0,1,5-.51c-.35.54-1.27,1-.32,1.75.65.54,1.38.94,2.17.41C312.83,470.64,314.73,470.58,316.65,470.53Z" style="fill:#ed6e51"/></svg>