<svg xmlns="http://www.w3.org/2000/svg" viewBox="0 0 930 788"><title>servicedesign</title><path d="M100.5,409.5s2,43,4,46,20,46,20,46l9-28s-14-23-12-36,.74-29,.74-29Z" style="fill:#9f616a"/><path d="M104.5,341.5l-5.27,3.59S95.5,409.5,98.5,413.5s23.86,2,25.43-1.48S104.5,341.5,104.5,341.5Z" style="fill:#fcfcfc;stroke:#000;stroke-miterlimit:10;stroke-width:0.25px"/><circle cx="748.17" cy="49.48" r="14.76" style="fill:#f1f1f1"/><circle cx="661.17" cy="620.48" r="14.76" style="fill:#f1f1f1"/><circle cx="294.17" cy="191.48" r="14.76" style="fill:#f1f1f1"/><ellipse cx="157" cy="765" rx="157" ry="23" style="fill:#005bea"/><path d="M239.94,599l39.41-12.35a144.46,144.46,0,0,0-14.72-47L225.21,552A88.61,88.61,0,0,1,239.94,599Z" style="fill:#005bea"/><circle cx="145.2" cy="266.35" r="36.8" style="fill:#2f2e41"/><polygon points="105.5 727.5 98.5 757.5 115.5 757.5 122.5 723.5 105.5 727.5" style="fill:#9f616a"/><polygon points="187.5 727.5 187.5 755.5 204.5 757.5 204.5 727.5 187.5 727.5" style="fill:#9f616a"/><circle cx="157.5" cy="277.5" r="28" style="fill:#9f616a"/><path d="M134.5,280.5s1,40-6,46,40,1,40,1-10-28-2-34S134.5,280.5,134.5,280.5Z" style="fill:#9f616a"/><path d="M171.5,325.5s-6-11-14-10-34,3-35,5-4,9-6,11-17,5-18,17,36,85,36,85-5,17-4,21-5,16-4,21-15,35-7,74v63s-27,109-19,117,35,3,40,0,26-154,26-154l10-51,1,112s-2,94,5,97,34,4,36-2c1.56-4.68,9.2-129.19,12.49-183.77a203.9,203.9,0,0,0-4.4-56.18c-4.16-18.88-10.2-41.06-17.09-50.06-13-17-21-71-21-71l17-31s-10-10-16-10S171.5,325.5,171.5,325.5Z" style="fill:#fff;stroke:#000;stroke-miterlimit:10;stroke-width:0.25px"/><path d="M186.5,401.5s1,42,7,54,28,62,28,62-1.28,55,9.86,41.52,4.14-45.52,4.14-45.52l-19-74s-10-33-9-43S186.5,401.5,186.5,401.5Z" style="fill:#9f616a"/><path d="M204.5,739.3s1-.8,4,2.2,11,7,10,18-7,13-7,13v-3h-3v5s-5,16-28,6c0,0-1-8,0-13s1-29,4-28,11,2,13,6S205.5,748.1,204.5,739.3Z" style="fill:#fcfcfc;stroke:#000;stroke-miterlimit:10;stroke-width:0.25px"/><path d="M101.5,740.3s-1-.8-4,2.2-11,7-10,18,7,13,7,13v-3h3v5s5,16,28,6c0,0,1-8,0-13s-1-29-4-28-11,2-13,6S100.5,749.1,101.5,740.3Z" style="fill:#fcfcfc;stroke:#000;stroke-miterlimit:10;stroke-width:0.25px"/><path d="M191.5,336.5l14,3s0,22,4,31,11,30,8,31-31,15-33,7S177.5,336.5,191.5,336.5Z" style="fill:#fcfcfc;stroke:#000;stroke-miterlimit:10;stroke-width:0.25px"/><circle cx="105.33" cy="217.9" r="36.8" style="fill:#2f2e41"/><path d="M73.59,248.37A36.8,36.8,0,0,0,130.42,229,36.8,36.8,0,1,1,58.63,214,36.79,36.79,0,0,0,73.59,248.37Z" style="fill:#2f2e41"/><circle cx="135.39" cy="272.49" r="26.99" style="fill:#2f2e41"/><ellipse cx="158.08" cy="262.37" rx="23.92" ry="18.71" style="fill:#2f2e41"/><ellipse cx="164.46" cy="281.53" rx="4.54" ry="8.03" style="fill:#a0616a"/><rect x="385.73" y="36.89" width="429" height="534" transform="translate(136.55 791.36) rotate(-73.29)" style="fill:#005bea;opacity:0.2"/><line x1="611.17" y1="141.89" x2="732.31" y2="190.86" style="fill:none;stroke:#3f3d56;stroke-miterlimit:10;stroke-width:2px"/><polygon points="614.24 151.96 616.06 151.11 611.88 142.18 621.09 138.66 620.37 136.79 609.15 141.08 614.24 151.96" style="fill:#3f3d56"/><polygon points="723.1 195.96 722.38 194.09 731.59 190.57 727.41 181.64 729.23 180.79 734.32 191.67 723.1 195.96" style="fill:#3f3d56"/><circle cx="671.74" cy="166.38" r="11" style="fill:#3f3d56"/><line x1="601.93" y1="481.35" x2="713.54" y2="413.4" style="fill:none;stroke:#3f3d56;stroke-miterlimit:10;stroke-width:2px"/><polygon points="611.85 484.89 612.25 482.93 602.59 480.95 605.27 471.46 603.34 470.92 600.08 482.48 611.85 484.89" style="fill:#3f3d56"/><polygon points="712.13 423.83 710.2 423.29 712.88 413.8 703.22 411.82 703.62 409.86 715.39 412.27 712.13 423.83" style="fill:#3f3d56"/><circle cx="657.74" cy="447.38" r="11" style="fill:#3f3d56"/><line x1="461.72" y1="266.04" x2="461.76" y2="396.71" style="fill:none;stroke:#3f3d56;stroke-miterlimit:10;stroke-width:2px"/><polygon points="453.54 272.67 455 274.04 461.71 266.81 468.43 274.03 469.89 272.67 461.71 263.88 453.54 272.67" style="fill:#3f3d56"/><polygon points="453.57 390.08 455.04 388.72 461.75 395.94 468.47 388.71 469.93 390.08 461.75 398.88 453.57 390.08" style="fill:#3f3d56"/><circle cx="461.74" cy="331.38" r="11" style="fill:#3f3d56"/><rect x="369" width="182" height="226" style="fill:#3f3d56"/><path d="M448.62,84.13h-41.3a144.46,144.46,0,0,1,0-49.25h41.3A88.61,88.61,0,0,0,448.62,84.13Z" style="fill:#ff6584"/><path d="M471.38,109.11h41.3a144.46,144.46,0,0,0,0-49.25h-41.3A88.61,88.61,0,0,1,471.38,109.11Z" style="fill:#005bea"/><path d="M432.38,191.11h41.3a144.46,144.46,0,0,0,0-49.25h-41.3A88.61,88.61,0,0,1,432.38,191.11Z" style="fill:#005bea"/><rect x="748" y="215" width="182" height="226" style="fill:#3f3d56"/><rect x="774" y="263" width="130" height="6" style="fill:#005bea"/><rect x="774" y="284" width="130" height="6" style="fill:#005bea"/><rect x="774" y="305" width="130" height="6" style="fill:#005bea"/><rect x="774" y="326" width="130" height="6" style="fill:#005bea"/><rect x="774" y="347" width="130" height="6" style="fill:#005bea"/><rect x="805" y="369" width="68" height="24" style="fill:#005bea"/><rect x="385" y="447" width="182" height="226" style="fill:#3f3d56"/><rect x="411.3" y="572.81" width="130" height="6" style="fill:#005bea"/><rect x="411.3" y="593.81" width="130" height="6" style="fill:#005bea"/><rect x="411.3" y="614.81" width="130" height="6" style="fill:#005bea"/><rect x="411.3" y="635.81" width="130" height="6" style="fill:#005bea"/><path d="M451.12,527.44h-41.3a144.46,144.46,0,0,1,0-49.25h41.3A88.61,88.61,0,0,0,451.12,527.44Z" style="fill:#005bea;opacity:0.30000001192092896;isolation:isolate"/><rect x="468.3" y="482.81" width="76" height="5" style="fill:#005bea;opacity:0.30000001192092896;isolation:isolate"/><rect x="468.3" y="500.81" width="76" height="5" style="fill:#005bea;opacity:0.30000001192092896;isolation:isolate"/><rect x="468.3" y="518.81" width="76" height="5" style="fill:#005bea;opacity:0.30000001192092896;isolation:isolate"/><rect x="468.3" y="536.81" width="76" height="5" style="fill:#005bea;opacity:0.30000001192092896;isolation:isolate"/><path d="M127.11,475.68a79.83,79.83,0,0,0,32.1,14.09,81.09,81.09,0,0,0,47.11-5.31" style="fill:none;stroke:#000;stroke-miterlimit:10;stroke-width:0.25px"/></svg>