<svg xmlns="http://www.w3.org/2000/svg" viewBox="0 0 930.38 788.38"><title>servicedesign2</title><path d="M100.5,409.88s2,43,4,46,20,46,20,46l9-28s-14-23-12-36,.74-29,.74-29Z" style="fill:#9f616a"/><path d="M104.5,341.88l-5.27,3.59s-3.73,64.41-.73,68.41,23.86,2,25.43-1.48S104.5,341.88,104.5,341.88Z" style="fill:#fcfcfc;stroke:#000;stroke-miterlimit:10;stroke-width:0.25px"/><circle cx="748.17" cy="49.85" r="14.76" style="fill:#f1f1f1"/><circle cx="661.17" cy="620.85" r="14.76" style="fill:#f1f1f1"/><circle cx="294.17" cy="191.85" r="14.76" style="fill:#f1f1f1"/><ellipse cx="157" cy="765.38" rx="157" ry="23" style="fill:#005bea;opacity:0.2"/><path d="M239.94,599.35,279.35,587a144.46,144.46,0,0,0-14.72-47l-39.41,12.35A88.61,88.61,0,0,1,239.94,599.35Z" style="fill:#005bea"/><circle cx="145.2" cy="266.73" r="36.8" style="fill:#2f2e41"/><polygon points="105.5 727.88 98.5 757.88 115.5 757.88 122.5 723.88 105.5 727.88" style="fill:#9f616a"/><polygon points="187.5 727.88 187.5 755.88 204.5 757.88 204.5 727.88 187.5 727.88" style="fill:#9f616a"/><circle cx="157.5" cy="277.88" r="28" style="fill:#9f616a"/><path d="M134.5,280.88s1,40-6,46,40,1,40,1-10-28-2-34S134.5,280.88,134.5,280.88Z" style="fill:#9f616a"/><path d="M171.5,325.88s-6-11-14-10-34,3-35,5-4,9-6,11-17,5-18,17,36,85,36,85-5,17-4,21-5,16-4,21-15,35-7,74v63s-27,109-19,117,35,3,40,0,26-154,26-154l10-51,1,112s-2,94,5,97,34,4,36-2c1.56-4.68,9.2-129.19,12.49-183.77a203.9,203.9,0,0,0-4.4-56.18c-4.16-18.88-10.2-41.06-17.09-50.06-13-17-21-71-21-71l17-31s-10-10-16-10S171.5,325.88,171.5,325.88Z" style="fill:#fff;stroke:#000;stroke-miterlimit:10;stroke-width:0.25px"/><path d="M186.5,401.88s1,42,7,54,28,62,28,62-1.28,55,9.86,41.52,4.14-45.52,4.14-45.52l-19-74s-10-33-9-43S186.5,401.88,186.5,401.88Z" style="fill:#9f616a"/><path d="M204.5,739.67s1-.8,4,2.2,11,7,10,18-7,13-7,13v-3h-3v5s-5,16-28,6c0,0-1-8,0-13s1-29,4-28,11,2,13,6S205.5,748.47,204.5,739.67Z" style="fill:#fcfcfc;stroke:#000;stroke-miterlimit:10;stroke-width:0.25px"/><path d="M101.5,740.67s-1-.8-4,2.2-11,7-10,18,7,13,7,13v-3h3v5s5,16,28,6c0,0,1-8,0-13s-1-29-4-28-11,2-13,6S100.5,749.47,101.5,740.67Z" style="fill:#fcfcfc;stroke:#000;stroke-miterlimit:10;stroke-width:0.25px"/><path d="M191.5,336.88l14,3s0,22,4,31,11,30,8,31-31,15-33,7S177.5,336.88,191.5,336.88Z" style="fill:#fcfcfc;stroke:#000;stroke-miterlimit:10;stroke-width:0.25px"/><circle cx="105.33" cy="218.27" r="36.8" style="fill:#2f2e41"/><path d="M73.59,248.75a36.8,36.8,0,0,0,56.83-19.32,36.8,36.8,0,1,1-71.79-15.09A36.79,36.79,0,0,0,73.59,248.75Z" style="fill:#2f2e41"/><circle cx="135.39" cy="272.86" r="26.99" style="fill:#2f2e41"/><ellipse cx="158.08" cy="262.74" rx="23.92" ry="18.71" style="fill:#2f2e41"/><ellipse cx="164.46" cy="281.91" rx="4.54" ry="8.03" style="fill:#a0616a"/><rect x="385.73" y="37.27" width="429" height="534" transform="translate(136.2 791.63) rotate(-73.29)" style="fill:#005bea;opacity:0.2"/><line x1="611.17" y1="142.27" x2="732.31" y2="191.23" style="fill:none;stroke:#3f3d56;stroke-miterlimit:10;stroke-width:2px"/><polygon points="614.24 152.34 616.06 151.49 611.88 142.56 621.09 139.04 620.37 137.17 609.15 141.46 614.24 152.34" style="fill:#3f3d56"/><polygon points="723.1 196.33 722.38 194.46 731.59 190.95 727.41 182.01 729.23 181.17 734.32 192.05 723.1 196.33" style="fill:#3f3d56"/><circle cx="671.74" cy="166.75" r="11" style="fill:#3f3d56"/><line x1="601.93" y1="481.73" x2="713.54" y2="413.78" style="fill:none;stroke:#3f3d56;stroke-miterlimit:10;stroke-width:2px"/><polygon points="611.85 485.27 612.25 483.31 602.59 481.33 605.27 471.84 603.34 471.29 600.08 482.86 611.85 485.27" style="fill:#3f3d56"/><polygon points="712.13 424.21 710.2 423.67 712.88 414.18 703.22 412.2 703.62 410.24 715.39 412.65 712.13 424.21" style="fill:#3f3d56"/><circle cx="657.74" cy="447.75" r="11" style="fill:#3f3d56"/><line x1="461.72" y1="266.42" x2="461.76" y2="397.08" style="fill:none;stroke:#3f3d56;stroke-miterlimit:10;stroke-width:2px"/><polygon points="453.54 273.05 455 274.41 461.71 267.19 468.43 274.41 469.89 273.04 461.71 264.25 453.54 273.05" style="fill:#3f3d56"/><polygon points="453.57 390.46 455.04 389.09 461.75 396.31 468.47 389.09 469.93 390.45 461.75 399.25 453.57 390.46" style="fill:#3f3d56"/><circle cx="461.74" cy="331.75" r="11" style="fill:#3f3d56"/><rect x="369" y="0.38" width="182" height="226" style="fill:#fcfcfc;stroke:#000;stroke-miterlimit:10;stroke-width:0.75px"/><path d="M448.62,84.51h-41.3a144.46,144.46,0,0,1,0-49.25h41.3A88.61,88.61,0,0,0,448.62,84.51Z" style="fill:#ff6584"/><path d="M471.38,109.49h41.3a144.46,144.46,0,0,0,0-49.25h-41.3A88.61,88.61,0,0,1,471.38,109.49Z" style="fill:#005bea"/><path d="M432.38,191.49h41.3a144.46,144.46,0,0,0,0-49.25h-41.3A88.61,88.61,0,0,1,432.38,191.49Z" style="fill:#005bea"/><rect x="748" y="215.38" width="182" height="226" style="fill:#fcfcfc;stroke:#000;stroke-miterlimit:10;stroke-width:0.75px"/><rect x="774" y="263.38" width="130" height="6" style="fill:#005bea"/><rect x="774" y="284.38" width="130" height="6" style="fill:#005bea"/><rect x="774" y="305.38" width="130" height="6" style="fill:#005bea"/><rect x="774" y="326.38" width="130" height="6" style="fill:#005bea"/><rect x="774" y="347.38" width="130" height="6" style="fill:#005bea"/><rect x="805" y="369.38" width="68" height="24" style="fill:#005bea"/><rect x="385" y="447.38" width="182" height="226" style="fill:#fcfcfc;stroke:#000;stroke-miterlimit:10;stroke-width:0.75px"/><rect x="411.3" y="573.18" width="130" height="6" style="fill:#005bea"/><rect x="411.3" y="594.18" width="130" height="6" style="fill:#005bea"/><rect x="411.3" y="615.18" width="130" height="6" style="fill:#005bea"/><rect x="411.3" y="636.18" width="130" height="6" style="fill:#005bea"/><path d="M451.12,527.82h-41.3a144.46,144.46,0,0,1,0-49.25h41.3A88.61,88.61,0,0,0,451.12,527.82Z" style="fill:#005bea;opacity:0.30000001192092896;isolation:isolate"/><rect x="468.3" y="483.18" width="76" height="5" style="fill:#005bea;opacity:0.30000001192092896;isolation:isolate"/><rect x="468.3" y="501.18" width="76" height="5" style="fill:#005bea;opacity:0.30000001192092896;isolation:isolate"/><rect x="468.3" y="519.18" width="76" height="5" style="fill:#005bea;opacity:0.30000001192092896;isolation:isolate"/><rect x="468.3" y="537.18" width="76" height="5" style="fill:#005bea;opacity:0.30000001192092896;isolation:isolate"/><path d="M127.11,476.05a79.83,79.83,0,0,0,32.1,14.09,81.09,81.09,0,0,0,47.11-5.31" style="fill:none;stroke:#000;stroke-miterlimit:10;stroke-width:0.25px"/></svg>