<svg xmlns="http://www.w3.org/2000/svg" viewBox="0 0 340.16 340.16"><title>Rityta 1</title><path d="M263.8,134.85a37.85,37.85,0,0,0,6.55-12.77,39.22,39.22,0,0,0,1.37-7.24,42.32,42.32,0,0,0,6.25-.49c21-3.29,24.84-11.79,24.84-17.29s-4.77-11.8-14.2-13.36c-7-1.17-17.11,1-25.38,3.43a59.38,59.38,0,0,0-15.38-14c7.62-8.07,21.42-14.2,40.9-14.2,21.37,0,43.54,16.07,43.89,36.68.46,26.89-36.23,40.78-68.83,39.23m-93-39.63h-1.48c-14.35,50.61-63.25,63.28-87.1,43.55,23.52-2.56,47.5-13.42,63.66-32.67,7.36-8.77,11.11-20.58,11.55-27.9a34.2,34.2,0,0,0-.26-6.61,84.86,84.86,0,0,0,12.89-15.93A84.93,84.93,0,0,0,183,71.6a34.19,34.19,0,0,0-.26,6.61c.44,7.32,4.19,19.13,11.55,27.9,16.16,19.25,40.14,30.11,63.66,32.67-23.85,19.73-72.75,7.06-87.1-43.55m-163.29.4C7.88,75,30,58.95,51.42,58.95c19.48,0,33.28,6.13,40.9,14.2a59.34,59.34,0,0,0-15.38,14c-8.27-2.39-18.37-4.59-25.39-3.43-9.42,1.57-14.19,7.81-14.19,13.36s3.79,14,24.84,17.29a42.25,42.25,0,0,0,6.25.49,39.42,39.42,0,0,0,1.37,7.24,38,38,0,0,0,6.54,12.77C43.76,136.4,7.06,122.52,7.53,95.63m98.16-27.9.88-.31c3.08,8.88,12.91,16.44,25.41,16.3a26.48,26.48,0,0,0,4.57-.48c-2,4.55-6.72,9-14.82,11.62-5.5,1.77-14.14.76-21.31-.73a25.1,25.1,0,0,0,.42-3.07c.42-5.9-1.72-12.2-6.42-17.72a72.52,72.52,0,0,1,11.28-5.6m31.93,11.18c-1.43.3-2.9.56-4.47.74-12.58,1.41-21.77-5.13-25-12.8,12.82-4.21,22.29-.89,27,4.28a10.28,10.28,0,0,1,2.5,7.78M98.83,93.77c-3.81-.85-7.09-1.8-9-2.47-2.2-.75-6.54-2.31-11.73-3.85A61.44,61.44,0,0,1,93.15,74.12c3.92,4.51,6,9.54,6.1,14.43a26.08,26.08,0,0,1-.42,5.22M75.38,91.19c4.17,1.43,8.25,2.92,14.14,5a47.35,47.35,0,0,0,8,1.93c-4.83,11.67-19,15.28-28.2,15.53a35.67,35.67,0,0,1,6-22.43m-7,22.45c-.74,0-1.44,0-2.1-.06-18.18-1.12-27.75-8.41-27.58-16.11.19-8.91,10.58-14.3,26.53-9.53,3.52,1.05,6.4,2,9.17,2.92a38.56,38.56,0,0,0-6,22.78M156,79.38c-3.77,28.89-32.66,49.62-71.49,54.76-2.09.28-4.22.48-6.37.63a36.71,36.71,0,0,1-7.95-15.69,35.62,35.62,0,0,1-.75-4.23c12-.2,25.07-5.25,29.68-16.52,10.3,1.31,22.49,0,30.72-5.45,4.35-2.88,7.25-6.24,8.42-10,5.48-1.4,11.52-4.59,17.67-10.11a25.91,25.91,0,0,1,.06,6.65M106.87,61.57c-.58-10.42,9-18.17,22.6-17,14.27,1.19,23.49,13.8,26,25.51a38.73,38.73,0,0,1-16.63,8.56,14.81,14.81,0,0,0-.33-2.76c-2-9.23-13.5-15.32-30.76-10a15.52,15.52,0,0,1-.91-4.32m56.92-40.09c.54-7.58,3-10.77,6.29-10.77s5.75,3.18,6.29,10.77c.73,10.14-1.64,23.06-6.29,30.41-4.66-7.35-7-20.27-6.29-30.41m46.9,23.06c13.64-1.14,23.18,6.61,22.6,17a15.8,15.8,0,0,1-.92,4.32c-17.26-5.37-28.76.73-30.76,10a14.56,14.56,0,0,0-.33,2.76A38.75,38.75,0,0,1,184.66,70c2.53-11.71,11.75-24.32,26-25.51M205,71.13c4.7-5.18,14.17-8.49,27-4.28-3.25,7.67-12.44,14.21-25,12.8-1.57-.18-3-.44-4.47-.74a10.29,10.29,0,0,1,2.5-7.78M250.37,91.3c-2,.66-5.24,1.61-9,2.47a26.26,26.26,0,0,1-.42-5.22c.09-4.89,2.18-9.93,6.1-14.43A61.52,61.52,0,0,1,262.1,87.46c-5.19,1.54-9.53,3.1-11.73,3.85m5.25,42.84c-38.82-5.14-67.72-25.86-71.48-54.76a25.85,25.85,0,0,1,.06-6.65c6.15,5.51,12.18,8.71,17.67,10.11,1.17,3.79,4.08,7.15,8.42,10,8.24,5.48,20.42,6.75,30.72,5.45,4.62,11.27,17.66,16.33,29.68,16.52a35,35,0,0,1-.75,4.23A36.69,36.69,0,0,1,262,134.76q-3.23-.21-6.38-.62m15.18-20.52c-9.24-.25-23.37-3.87-28.2-15.53a47.38,47.38,0,0,0,8-1.93c5.89-2,10-3.54,14.14-5a35.67,35.67,0,0,1,6,22.43m-5-22.77c2.77-.94,5.65-1.87,9.17-2.92,15.95-4.76,26.33.63,26.53,9.53.17,7.7-9.4,15-27.58,16.11-.66,0-1.36.06-2.1.06a38.52,38.52,0,0,0-6-22.78m-31.3-23.13a72.43,72.43,0,0,1,11.28,5.6c-4.69,5.52-6.84,11.81-6.42,17.72a25.1,25.1,0,0,0,.42,3.07c-7.18,1.49-15.81,2.5-21.32.73-8.1-2.62-12.82-7.07-14.82-11.62a26.52,26.52,0,0,0,4.57.48c12.5.15,22.33-7.42,25.41-16.3l.88.31M288,57.64c-19.86,0-33.66,6.35-41.37,14.73a66.32,66.32,0,0,0-11.46-5.56c-.42-.16-.82-.27-1.24-.41a17.38,17.38,0,0,0,.71-5.09c-.19-9.93-7.23-18.28-22.73-18.08C200,43.38,186.71,53.8,183.45,69c-5.15-4.82-8.82-10.45-12.17-15.3C176,45.37,178,34.57,178,24.36c0-8.12-3-18.08-7.88-18.08s-7.89,10-7.89,18.08c0,10.21,1.92,21,6.69,29.31-3.36,4.85-7,10.49-12.17,15.3-3.27-15.18-16.51-25.59-28.42-25.75-15.51-.2-22.55,8.15-22.73,18.08a17.38,17.38,0,0,0,.71,5.09c-.42.14-.82.26-1.24.41a66.38,66.38,0,0,0-11.46,5.56C85.86,64,72.06,57.64,52.2,57.64,30,57.64,6.47,73.71,6.47,96.15c0,21.6,23.1,36.85,47.83,41.66A93.34,93.34,0,0,0,80,139c21.63,21.27,67.9,21,90-41,22.13,62,68.41,62.31,90,41a93.34,93.34,0,0,0,25.74-1.19c24.73-4.8,47.83-20.05,47.83-41.66,0-22.45-23.48-38.52-45.73-38.52" style="fill:#f7a823"/><path d="M34.53,235.87,38,232.08a21.91,21.91,0,0,0,13.53,4.6c11.09,0,18.4-8.48,18.4-20.38,0-10.73-5.14-16.23-15.42-19l-6.4-1.8c-6.77-1.81-10.55-3.61-10.55-9.11,0-6,4.87-10.28,11.81-10.28,7.49,0,12.9,5,15.42,15.24h2.07v-17H65.47L62,178.06a18.28,18.28,0,0,0-12.63-4.33C39.4,173.73,33,180.4,33,190.59c0,9.83,5,15.15,15.6,18.13l5.68,1.62C61.77,212.42,65,215.67,65,221.17c0,7.66-5.68,12.9-13.89,12.9-7.93,0-13.35-5.41-15.87-16.15H32.73v18Zm73.78-.72V232.9H99.56V177.34h8.75V175H79.09v2.35h8.75V232.9H79.09v2.26ZM100,203.67l23.18,29.22H113.9v2.26h28V232.9h-5.32l-27.69-34.73,19.21-20.83h9V175H114.89v2.35h9.38Zm69.53,31.48h28.14V232.9h-7.3l-21.28-59.17h-3L145.37,232.9h-7.21v2.26h19.21V232.9h-9.29L153.48,217h19.75l5.5,15.87h-9.2Zm-15.16-20.48,8.48-24.44h1l8.56,24.44Zm66.84-9.2V177.34h7.4c9.2,0,13,2.43,13,13.53,0,10.82-3.87,14.61-15.15,14.61Zm9.29,29.67V232.9h-9.29V207.64h8c17,0,25.16-5,25.16-16.15s-8-16.5-24-16.5H200.74v2.35h8.84V232.9h-8.84v2.26Zm52.12,0h28.13V232.9h-7.3l-21.29-59.17h-3L258.45,232.9h-7.22v2.26h19.21V232.9h-9.29L266.57,217h19.75l5.5,15.87h-9.2Zm-15.16-20.48,8.48-24.44h1l8.57,24.44Z" style="fill:#1d1d1b"/><path d="M326.56,313.73h-2.09v.41h6.38v-.41h-2.1V294.92a2.73,2.73,0,0,1-2.19.65h-2.09V296h2.09Zm-6.09-6.7a.16.16,0,0,1-.18.18h-4.37v-.73c0-1.67.55-3.22,2.38-3.22s2.17,1.55,2.17,3.22Zm-4.55.6h6.83a.21.21,0,0,0,.23-.23c0-1.1-1.59-4.55-4.68-4.55-2.85,0-4.89,3.27-4.89,5.8,0,3.45,2.14,5.81,5.2,5.81a4.58,4.58,0,0,0,4.6-4h-.42a4.14,4.14,0,0,1-4.18,3.61c-2.46,0-2.73-2.09-2.7-4Zm-13.78-.31c0-1.91,1.49-4.05,3.66-4.05s2.7,1.8,2.7,5.39c0,3.9-.31,5.39-2.88,5.39a3.54,3.54,0,0,1-3.48-3.69Zm-2.19,6.41h-1.81v.41h4v-1.91h.05a3.84,3.84,0,0,0,3.42,2.22c3.27,0,5.39-2.75,5.39-5.81,0-2.56-2.06-5.8-5.21-5.8a4,4,0,0,0-3.61,2.66h-.05V294.92a2.73,2.73,0,0,1-2.19.65h-1.81V296h1.81Zm-5.57-4.06c0,2.28-.1,4.37-3,4.37s-3-2.09-3-4.37v-2c0-2.28.1-4.37,3-4.37s3,2.09,3,4.37Zm-8.58-1a5.55,5.55,0,1,0,5.54-5.8,5.6,5.6,0,0,0-5.54,5.8m-4.11,5.65H282V297.56c0-1.07.21-1.41,1.36-1.41h1.15v-.41H279v.41h1.23c1.15,0,1.36.34,1.36,1.41v11.82h-.05l-9.89-13.65h-5.49v.41h2.51v16.09c0,1.25-.42,1.49-1.62,1.49h-.89v.41h5.59v-.41h-1c-1.2,0-1.62-.24-1.62-1.49V297h.05Zm-27.25-.16h4v-.41h-1.81V294.92a2.73,2.73,0,0,1-2.19.65h-2.09V296h2.09v9.52h-.05a4,4,0,0,0-3.61-2.66c-3.14,0-5.21,3.24-5.21,5.8,0,3.06,2.12,5.81,5.39,5.81a3.89,3.89,0,0,0,3.42-2.22h.05Zm0-3.76a3.55,3.55,0,0,1-3.48,3.67c-2.57,0-2.88-1.49-2.88-5.39,0-3.58.39-5.39,2.7-5.39s3.66,2.15,3.66,4.05ZM240.59,307a.16.16,0,0,1-.18.18H236v-.73c0-1.67.55-3.22,2.39-3.22s2.17,1.55,2.17,3.22Zm-4.56.6h6.83a.21.21,0,0,0,.23-.23c0-1.1-1.59-4.55-4.67-4.55-2.86,0-4.89,3.27-4.89,5.8,0,3.45,2.14,5.81,5.2,5.81a4.58,4.58,0,0,0,4.6-4h-.42a4.14,4.14,0,0,1-4.18,3.61c-2.46,0-2.72-2.09-2.7-4Zm-10.88,6.1H223v.41h6.77v-.41h-2.38v-5.36c0-3.4,1.94-5.1,3-5.1a.58.58,0,0,1,.36.08,1.26,1.26,0,0,0-.58,1.13,1,1,0,0,0,1.15,1.15,1.15,1.15,0,0,0,1.2-1.23,1.59,1.59,0,0,0-1.72-1.54c-2.15,0-3.06,1.9-3.37,3.08h-.05v-3.08a3.05,3.05,0,0,1-2.2.57H223v.41h2.19Zm-8.31,0h-2.36v.41h6.93v-.41H219v-9.89h3v-.41h-3v-4.47c0-2.91.76-3.61,2-3.61.71,0,1.31.31,1.31.7,0,.55-1.41.24-1.41,1.44a1,1,0,0,0,1.1,1,1.2,1.2,0,0,0,1.25-1.23,2.24,2.24,0,0,0-2.35-2.38c-2.62,0-4.11,3.42-4.11,6.7v1.81h-2.36v.41h2.36Zm-7.66,0h-2.09v.41h6.38v-.41h-2.1V294.92a2.73,2.73,0,0,1-2.19.65h-2.09V296h2.09Zm-9.91-6H194l2.56-7.92h.05Zm2,6h-2.56v.41h7.66v-.41H204.2l-6.35-18.42h-.29l-5.62,16.87c-.49,1.47-.83,1.55-1.65,1.55h-.84v.41h5.38v-.41h-1.36c-.84,0-1.15-.29-1.15-.66a5.66,5.66,0,0,1,.39-1.59l1.07-3.3h5.6Zm-31.44,0h-2.06v.41H174v-.41h-2v-7.38c.47-.89,1.59-3.09,3.79-3.09.83,0,1.54.47,1.54,1.91v8.56h-2.07v.41h6.33v-.41h-2.07V305.8c0-1.54-.78-3-3.58-3a4.61,4.61,0,0,0-3.9,2.66H172v-2.66c-.47.57-.94.57-2.2.57h-2.06v.41h2.06Zm-6-6.7a.16.16,0,0,1-.18.18h-4.37v-.73c0-1.67.55-3.22,2.38-3.22s2.17,1.55,2.17,3.22Zm-4.55.6h6.83a.21.21,0,0,0,.23-.23c0-1.1-1.59-4.55-4.68-4.55-2.85,0-4.89,3.27-4.89,5.8,0,3.45,2.14,5.81,5.2,5.81a4.58,4.58,0,0,0,4.6-4h-.42A4.14,4.14,0,0,1,162,314c-2.46,0-2.72-2.09-2.7-4Zm-10.88,6.1h-2.2v.41H153v-.41h-2.38v-5.36c0-3.4,1.94-5.1,3-5.1a.59.59,0,0,1,.37.08,1.26,1.26,0,0,0-.57,1.13,1,1,0,0,0,1.15,1.15,1.15,1.15,0,0,0,1.2-1.23,1.59,1.59,0,0,0-1.72-1.54c-2.15,0-3.06,1.9-3.38,3.08h-.05v-3.08a3,3,0,0,1-2.19.57h-2.2v.41h2.2ZM141,308.41v3.43a2.69,2.69,0,0,1-2.83,2c-1.68,0-1.91-1.1-1.91-2.56,0-2.8,2.38-2.85,4.29-2.85Zm2.19-2.54c0-2-2.35-3-4.34-3-2.62,0-4,1.46-4,2.8,0,.89.42,1.47,1.15,1.47a1.13,1.13,0,0,0,1.2-1.1c0-1.18-.86-.89-.86-1.52,0-.94,1.78-1.23,2.54-1.23,1,0,2.15.29,2.15,1.52V308h-.5c-2.69,0-6.59.73-6.59,3.66,0,1.78,1.23,2.8,3.27,2.8a4.26,4.26,0,0,0,3.79-1.62H141a2.19,2.19,0,0,0,2.3,1.62,2.48,2.48,0,0,0,2.3-1.41l-.29-.21c-.39.55-.76,1-1.36,1s-.79-.66-.79-1.15Zm-22.51,7.85h-2.07v.41h6.25v-.41h-2v-7.38c.47-.89,1.6-3.09,3.79-3.09.84,0,1.54.47,1.54,1.91v8.56h-2.06v.41h6.33v-.41h-2.07V305.8c0-1.54-.78-3-3.58-3a4.61,4.61,0,0,0-3.9,2.66h-.05v-2.66c-.47.57-.94.57-2.19.57h-2.07v.41h2.07Zm-14.54,0h-2.07v.41h6.25v-.41h-2v-7.38c.47-.89,1.6-3.09,3.79-3.09.84,0,1.54.47,1.54,1.91v8.56h-2.07v.41h6.33v-.41h-2.07V305.8c0-1.54-.78-3-3.58-3a4.61,4.61,0,0,0-3.9,2.66h-.05v-2.66c-.47.57-.94.57-2.19.57h-2.07v.41h2.07Zm-14,0H89.77v.41h6.56v-.41h-2v-9.89H99v9.89H97.09v.41h6.2v-.41H101.2V302.85a3,3,0,0,1-2.19.57H94.32v-3.79c0-2.67.6-4.29,3.9-4.29,1.2,0,2.15.47,2.15.84,0,.52-1.44.18-1.44,1.41a1.16,1.16,0,0,0,1.2,1.18,1.27,1.27,0,0,0,1.31-1.41c0-1.91-2-2.43-3.56-2.43-3.87,0-5.75,3.48-5.75,6.78v1.73H89.77v.41h2.36Zm-13.21-6.41c0-1.91,1.49-4.05,3.66-4.05s2.69,1.8,2.69,5.39c0,3.9-.31,5.39-2.88,5.39a3.57,3.57,0,0,1-3.48-3.67Zm-2.19,13.47h-1.8v.42h6v-.42h-2v-8.55H79a3.9,3.9,0,0,0,3.43,2.22c3.27,0,5.39-2.75,5.39-5.81,0-2.56-2.06-5.8-5.2-5.8A4,4,0,0,0,79,305.51h-.05v-2.66a3,3,0,0,1-2.19.57h-1.8v.41h1.8ZM64.37,307.32c0-1.91,1.49-4.05,3.66-4.05s2.69,1.8,2.69,5.39c0,3.9-.31,5.39-2.88,5.39a3.57,3.57,0,0,1-3.48-3.67Zm-2.19,13.47h-1.8v.42h6v-.42h-2v-8.55h.05a3.9,3.9,0,0,0,3.43,2.22,5.51,5.51,0,0,0,5.39-5.81c0-2.56-2.06-5.8-5.2-5.8a4,4,0,0,0-3.61,2.66h-.05v-2.66a3,3,0,0,1-2.19.57h-1.8v.41h1.8Zm-14.07-9.23c0,1.52.94,2.9,3.55,2.9a4.15,4.15,0,0,0,3.66-2.69h.05v2.38h4.29v-.41H57.57V302.85a3,3,0,0,1-2.19.57H53.31v.41h2.07V310c0,1.94-1.62,4-3.45,4a1.62,1.62,0,0,1-1.62-1.83v-9.36a3,3,0,0,1-2.19.57H46v.41h2.09Zm-16.43,3.22h.21l4.26-9.6c.55-1.23.86-1.33,2.06-1.33v-.41H33.67v.41h.91c.45,0,1.18.08,1.18.68a4.39,4.39,0,0,1-.44,1.44l-2.56,5.83-3.3-8H31.4v-.41h-6v.41h1.52Zm-11.3-6.36v3.43a2.69,2.69,0,0,1-2.83,2c-1.68,0-1.91-1.1-1.91-2.56,0-2.8,2.38-2.85,4.29-2.85Zm2.19-2.54c0-2-2.35-3-4.34-3-2.61,0-4,1.46-4,2.8,0,.89.42,1.47,1.15,1.47a1.13,1.13,0,0,0,1.2-1.1c0-1.18-.86-.89-.86-1.52,0-.94,1.78-1.23,2.54-1.23,1,0,2.15.29,2.15,1.52V308h-.5c-2.69,0-6.59.73-6.59,3.66,0,1.78,1.23,2.8,3.27,2.8a4.27,4.27,0,0,0,3.79-1.62h.05a2.19,2.19,0,0,0,2.3,1.62A2.48,2.48,0,0,0,25,313l-.29-.21c-.39.55-.76,1-1.36,1s-.79-.66-.79-1.15Z" style="fill:#1d1d1b"/><path d="M312.1,275.65a.16.16,0,0,1-.18.18h-4.37v-.73c0-1.68.55-3.22,2.38-3.22s2.17,1.54,2.17,3.22Zm-4.55.6h6.83a.21.21,0,0,0,.24-.24c0-1.1-1.59-4.55-4.68-4.55-2.85,0-4.89,3.27-4.89,5.8,0,3.45,2.14,5.81,5.2,5.81a4.58,4.58,0,0,0,4.6-4h-.42a4.14,4.14,0,0,1-4.18,3.61c-2.46,0-2.72-2.09-2.7-3.95Zm-15.63,6.1h-2.07v.41h6.25v-.41h-2V275c.47-.89,1.59-3.09,3.79-3.09.84,0,1.54.47,1.54,1.91v8.55h-2.07v.41h6.33v-.41h-2.06v-7.93c0-1.54-.79-3-3.58-3a4.61,4.61,0,0,0-3.9,2.67h-.05v-2.67c-.47.57-.94.57-2.19.57h-2.07v.42h2.07Zm-14.54,0H275.3v.41h6.25v-.41h-2V275c.47-.89,1.6-3.09,3.79-3.09.84,0,1.54.47,1.54,1.91v8.55h-2.07v.41h6.33v-.41H287.1v-7.93c0-1.54-.78-3-3.58-3a4.61,4.61,0,0,0-3.9,2.67h-.05v-2.67c-.47.57-.94.57-2.19.57H275.3v.42h2.07ZM270,266.75a1.33,1.33,0,1,0,1.33-1.33,1.34,1.34,0,0,0-1.33,1.33m.24,15.59h-2.09v.41h6.37v-.41h-2.09V271.46a3,3,0,0,1-2.19.57h-2.09v.42h2.09Zm-24,.41h6.25v-.41h-2V275c.76-1.86,1.94-3.09,3.51-3.09,1,0,1.7.5,1.7,1.81v8.66h-2.07v.41h6.25v-.41h-2v-7c.53-1.83,1.86-3.48,3.38-3.48,1,0,1.83.42,1.83,2.3v8.16H261v.41h6.33v-.41h-2.07v-7.69c0-1.65-.89-3.16-3.55-3.19a4,4,0,0,0-3.79,2.8h-.05c-.24-2.33-1.91-2.8-3.58-2.8a4.24,4.24,0,0,0-3.77,2.56h-.05v-2.56c-.47.57-.94.57-2.19.57h-2.06v.42h2.06v9.89h-2.06Zm-12.35-.41h-2.09v.41h6.38v-.41h-2.1V263.53a2.74,2.74,0,0,1-2.19.65h-2.09v.42h2.09Zm-7.27,0h-2.1v.41h6.38v-.41H228.8V263.53a2.75,2.75,0,0,1-2.19.65h-2.1v.42h2.1Zm-7.51-15.59a1.33,1.33,0,1,0,1.34-1.33,1.34,1.34,0,0,0-1.34,1.33m.24,15.59h-2.09v.41h6.38v-.41h-2.09V271.46a3,3,0,0,1-2.19.57h-2.09v.42h2.09Zm-8.71-1.6c0,1.73,1.2,2.33,3,2.33a2.86,2.86,0,0,0,2.88-2l-.39-.08a2.29,2.29,0,0,1-2,1.65c-.84,0-1.28-.34-1.28-1.42v-8.79h3.61V272h-3.61v-3.66h-.31c-.44,2.56-1.44,3.71-4.16,3.66v.42h2.28ZM192,282.91h.39c.05-.55,0-1,.31-1,.53,0,1.15,1.13,3.22,1.13a3.72,3.72,0,0,0,3.64-4c0-1.8-.86-3-3-3.08l-.89-.05c-1.73-.1-2.75-.58-2.75-1.94a2.14,2.14,0,0,1,2.41-2.1,2.87,2.87,0,0,1,3,2.85h.33l-.1-3.11h-.36v.2c0,.37,0,.55-.18.55a6.32,6.32,0,0,0-2.64-.92,3.17,3.17,0,0,0-3.27,3.37c0,2.72,1.65,3,3.35,3.14,1.39.16,3,.18,3,2.25a2.38,2.38,0,0,1-2.54,2.43c-2.75,0-3.43-2.35-3.64-3.69h-.34Zm-6.3-16.16a1.33,1.33,0,1,0,1.33-1.33,1.34,1.34,0,0,0-1.33,1.33m.24,15.59h-2.09v.41h6.38v-.41H188.1V271.46a3,3,0,0,1-2.19.57h-2.09v.42h2.09Zm-10.17,0h-2.2v.41h6.77v-.41h-2.38V277c0-3.4,1.94-5.1,3-5.1a.57.57,0,0,1,.37.08,1.25,1.25,0,0,0-.58,1.12c0,.71.29,1.15,1.15,1.15a1.15,1.15,0,0,0,1.2-1.23,1.59,1.59,0,0,0-1.72-1.54c-2.15,0-3.07,1.91-3.38,3.08h-.05v-3.08a3,3,0,0,1-2.19.57h-2.2v.42h2.2Zm-12.82-6.41c0-1.91,1.49-4.05,3.66-4.05s2.7,1.81,2.7,5.39c0,3.9-.31,5.39-2.88,5.39a3.57,3.57,0,0,1-3.48-3.66Zm-2.19,13.47h-1.81v.41h6v-.41h-2v-8.56H163a3.9,3.9,0,0,0,3.43,2.22,5.51,5.51,0,0,0,5.39-5.81c0-2.56-2.06-5.8-5.2-5.8a4,4,0,0,0-3.61,2.67h-.05v-2.67a3,3,0,0,1-2.19.57h-1.81v.42h1.81Zm-10.91-6.49h.39c.05-.55,0-1,.32-1,.52,0,1.15,1.13,3.22,1.13a3.71,3.71,0,0,0,3.63-4c0-1.8-.86-3-3-3.08l-.89-.05c-1.73-.1-2.75-.58-2.75-1.94a2.14,2.14,0,0,1,2.41-2.1,2.87,2.87,0,0,1,3,2.85h.34l-.1-3.11h-.36v.2c0,.37,0,.55-.18.55a6.35,6.35,0,0,0-2.64-.92,3.17,3.17,0,0,0-3.27,3.37c0,2.72,1.64,3,3.35,3.14,1.39.16,3,.18,3,2.25a2.38,2.38,0,0,1-2.54,2.43c-2.75,0-3.43-2.35-3.64-3.69h-.34Zm-13.47-.57h-2.07v.41h6.25v-.41h-2V275c.47-.89,1.6-3.09,3.79-3.09.84,0,1.54.47,1.54,1.91v8.55h-2.07v.41h6.33v-.41h-2.07v-7.93c0-1.54-.79-3-3.58-3a4.61,4.61,0,0,0-3.9,2.67h-.05v-2.67c-.47.57-.94.57-2.19.57h-2.07v.42h2.07Zm-5.91-4.06c0,2.28-.1,4.37-3,4.37s-3-2.09-3-4.37v-2c0-2.28.11-4.37,3-4.37s3,2.09,3,4.37Zm-8.58-1a5.55,5.55,0,1,0,5.54-5.8,5.6,5.6,0,0,0-5.54,5.8m-6-10.51a1.33,1.33,0,1,0,1.33-1.33,1.34,1.34,0,0,0-1.33,1.33m.24,15.59H114v.41h6.38v-.41h-2.09V271.46a3,3,0,0,1-2.19.57H114v.42h2.09Zm-8.71-1.6c0,1.73,1.2,2.33,3,2.33a2.87,2.87,0,0,0,2.88-2l-.39-.08a2.29,2.29,0,0,1-2,1.65c-.84,0-1.28-.34-1.28-1.42v-8.79h3.61V272h-3.61v-3.66h-.31c-.44,2.56-1.43,3.71-4.15,3.66v.42h2.27ZM100,277v3.43a2.69,2.69,0,0,1-2.83,2c-1.67,0-1.91-1.1-1.91-2.56,0-2.8,2.38-2.85,4.29-2.85Zm2.2-2.54c0-2-2.35-3-4.34-3-2.62,0-4,1.46-4,2.8,0,.89.42,1.46,1.15,1.46a1.13,1.13,0,0,0,1.2-1.1c0-1.18-.86-.89-.86-1.52,0-.94,1.78-1.23,2.54-1.23,1,0,2.15.29,2.15,1.52v3.22h-.5c-2.7,0-6.59.73-6.59,3.66,0,1.78,1.23,2.8,3.27,2.8a4.28,4.28,0,0,0,3.79-1.62H100a2.19,2.19,0,0,0,2.3,1.62,2.48,2.48,0,0,0,2.3-1.41l-.29-.21c-.39.55-.76,1-1.36,1s-.78-.65-.78-1.15Zm-17.05,8.89h.21l4.26-9.6c.55-1.23.86-1.33,2.06-1.33V272H87.12v.42H88c.45,0,1.18.08,1.18.68a4.37,4.37,0,0,1-.45,1.44l-2.56,5.83-3.29-8h1.94V272h-6v.42h1.52Zm-9.91-5.1c0,2.28-.1,4.37-3,4.37s-3-2.09-3-4.37v-2c0-2.28.1-4.37,3-4.37s3,2.09,3,4.37Zm-8.58-1a5.55,5.55,0,1,0,5.54-5.8,5.6,5.6,0,0,0-5.54,5.8m-13.13,5.08H51.45v.41H57.7v-.41h-2V275c.47-.89,1.6-3.09,3.79-3.09.84,0,1.54.47,1.54,1.91v8.55H59v.41h6.33v-.41H63.24v-7.93c0-1.54-.78-3-3.58-3a4.61,4.61,0,0,0-3.9,2.67h-.05v-2.67c-.47.57-.94.57-2.19.57H51.45v.42h2.06Zm-14.54,0H36.91v.41h6.25v-.41h-2V275c.47-.89,1.6-3.09,3.79-3.09.84,0,1.54.47,1.54,1.91v8.55H44.44v.41h6.33v-.41H48.7v-7.93c0-1.54-.78-3-3.58-3a4.61,4.61,0,0,0-3.9,2.67h-.05v-2.67c-.47.57-.94.57-2.19.57H36.91v.42H39Zm-8.11,0H28.49v.41h7.42v-.41H33.53V264.76h2.38v-.42H28.49v.42h2.38Z" style="fill:#1d1d1b"/></svg>