<svg xmlns="http://www.w3.org/2000/svg" width="3280.5" height="7728.1" viewBox="0 0 3280.5 7728.1"><g fill="#E9E8E8" fill-opacity="0.25"><path d="M1714 6627c-37.7-20.3-59 131.4-64.7 149.3-7.4 23.7-23.1 64.8-37.3 84.7-12.7 17.8-29.7 26.2-40.4 45.7-22 40.3-40.1 103.8-48.3 151.7-5 29.3-36.2 176.6-2 194 29.6 15 86.4-282.1 102-316 7-15.1 18.3-23.1 24.7-40.7 5.6-15.4 6.8-28.9 9.2-45 4.1-28.1 8.8-51 22.2-76.4 9.4-18 61.3-132.9 34.6-147.3-4.4-2.4 3.8 2.1 0 0zM894.3 6255.3c9.5 1.3 31-30.5 23-38.7-7.5-7.6-35.6 37-23 38.7 1.4.2-1.3-.1 0 0zM2282.7 6322.7c1.1 1.9-14.5-21.3-12.7-20.7 1.5.5-50.7-1.1-45.3-4.8-6.4 4.4 4.9 51.5-20.5 37.2-18-10.2 4.5-52.7-29.8-42.7-14.5 4.2-9.7 27.1-16.7 35.3-12 14.2-19 10.3-28.3 16.3-23.1 14.7-27.8 33.7-41.3 64-15.8 35.2-41.4 54.8-59.4 87.2-19.4 34.9-7.7 50.1 1.3 87.4 8.6 35.8-15.7 53.8-11.9 83.4 2.5 19.4 18.9 47 25.2 66.8 7.8 24.7 24.9 28.5 23.8 47.2-.8 13.6-26.3 42-23.4 61.6 4.9 32.7 33.5 17.3 48.4-6.3 17.9-28.3-6.6-45.5 1.7-71.7-.6 1.9 21.5-22.8 22.8-24.2 10-10.1 21-27.8 32.8-35.8 18.7-12.7 42.1-13.2 47-38.8 3.3-17.1-8.9-20.2-1.3-37.4 4-8.9 23.2-22.4 31.9-27.9 24.8-15.7 56.4-14 25.8-43.8-9.3-9-24.8 1.3-35.1-17.8-5.2-9.7-2.5-41.2-3.6-52.6-4.3-47.1-7.2-65.3 31.7-92 16.6-11.3 53.2-42.4 36.9-69.9-1.3-2.2 1.1 1.8 0 0zM2351.5 6259.8c-71.7-57.9-76.3 70.6-47.1 64.2 9.9-2.2 2.1-28.9 13.2-39.6 4.7-4.5 63.7-.6 33.9-24.6-4.8-3.9 2.8 2.2 0 0zM2315 6044.3c9.4 10.3 35.8 26 37.7-1.7 1.5-22.7-64-27.3-37.7 1.7 2.5 2.8-1.3-1.4 0 0zM1921.3 5770.8c-11-6.7-17.3 32.9-10 41.8 9 10.8 25.7-32.3 10-41.8-1.4-.9 2.4 1.4 0 0zM1803 5501.3c10.7 20.8 30.8.6 16.7-18.3-18-24-26 .2-16.7 18.3 1.5 3-.8-1.5 0 0zM1868 5512c30.6 34.3 21.1-19.9 4-30.7-30-19.1-17.7 15.4-4 30.7 2.8 3.1-1.5-1.6 0 0zM1852.7 5522c-2.5-3.4-10.8-38.4-19-35.7-8.2 2.8 17.3 68.6 32.7 50.7 6.4-7.6-11.9-12.5-13.7-15-1-1.4 1.8 2.5 0 0zM1911.3 5517.3c-11.9-1.3-6.8 17.2.3 18.7 9.4 1.8 9.5-17.6-.3-18.7-1.7-.1 2.1.2 0 0zM2005.5 5484.5c-14.4-6.8-8.5 15.1-9.7 19.6-1.9 6.9 37.8-6.3 9.7-19.6-1.7-.8 2 .9 0 0zM1997.3 5693c-11.7-9.9-16.5 9.5-17 17.3-.9 13.5 38.3.6 17-17.3-2.1-1.8 2.9 2.4 0 0zM2043.7 5709c-11 7.1-14.3 48.3 3.3 32.3 8.8-8 16.8-45.2-3.3-32.3-1.7 1.1 2.7-1.8 0 0zM2070.7 5645.7c-19.1 22.3-15.7 53.6 11 29.5 16.3-14.7 16.9-62-11-29.5-2.4 2.7 2-2.4 0 0zM2086.3 5563.7c12.6 9.2 41.3 1.7 28.3-17-7.2-10.4-59.9-6-28.3 17 2.9 2.1-2.1-1.6 0 0zM2128.7 5537c-13.8 18.9 14.8 10 14.2 9.5 1.1.8-.9-27.8-14.2-9.5-1.4 1.9 1.4-2 0 0zM2152.3 5489.3c-26.6-21.9-3.4 24-2.9 22 1.2-4.4 19.6-8.3 2.9-22-1.9-1.5 2.4 2 0 0zM2162.3 5534.7c-8 17.9 11.9 8.5 15.5 10.7 1.5.8-5.5-33.1-15.5-10.7-1.2 2.7.9-2 0 0zM2154.7 5585c11.1 18.3 22.1-16.8 15.2-12-1.1.7-23.8-2.1-15.2 12 1.1 1.9-1.6-2.5 0 0zM2132.8 5419.8c13.2-30.8-11.1-29.7-25-6.7-4.2 7-4.7 47.6 12.2 39.2 4.2-2.1 10.6-27.5 12.8-32.5.8-2-1.1 2.4 0 0zM2175.7 5368.3c19.9 8.8 17-17.7 13.3-26.3-1.5-3.4-37.5 15.7-13.3 26.3 2.5 1.1-2.2-.9 0 0zM2213.3 5345.7c21.9 16.3 14.2-17.9 14.3-18 1-1.1-33.2 3.8-14.3 18 2.8 2.1-2.2-1.7 0 0zM2260.5 5240c20-.3.4-25.8.3-22.1.1-2.1-19.6 22.3-.3 22.1 1.9 0-3.1 0 0 0zM1876.3 5695.3c-19.1-31.2-22.4 55.8-2.5 50.5 10-2.7 5.2-46 2.5-50.5-1-1.6.9 1.4 0 0zM2148.7 5030c-24.7-8.9-6.1 22.3-6.4 23.9-.5 2.2 42-11.1 6.4-23.9-2.1-.7 2.6.9 0 0zM2600.7 3013.7c21.9-8.7-7.5-18.2-9-20.7-2.8-4.5-20.6 32.4 9 20.7 2.6-1.1-2.7 1 0 0zM2607 3028.7c-30.8-7.9 1.9 27.2 3 16.3.8-7.6 12.9-12.3-3-16.3-2.3-.6 2.7.7 0 0zM1839.5 3905c-21.8 3.4-5.6 33.6 7.8 20.5 9.5-9.3 6-22.7-7.8-20.5-2.2.3 2.9-.5 0 0zM1756 3802.3c1.5 24.8 31.5 45.4 25.3 2.7-4-28.3-27.9-46.7-25.3-2.7.2 3.4-.2-3.2 0 0zM1911.3 3691.3c-25.7-6.8-11.9 40.5-.3 27.3 6.4-7.2 12.6-24 .3-27.3-2-.5 2.3.6 0 0zM1940.3 3640c7.7-19.8-15.1-26.4-24.7-9.5-4.6 8 10.2 46.7 21.4 39.2 3.8-2.6 1.4-24.7 3.3-29.7zM2105 3344.3c-24.9 8.7 5.2 31.8 10 22.7 4.7-9 5.3-28-10-22.7-2.5.9 2.7-.9 0 0zM2075.5 4926.5c-2.4-2.2-5.3-3.3-8.5-3.5-10 6.4 6.8 29.2 11.2 33.3 7.9 7.1 12.7-21.3-2.7-29.8-2-1.1 2.8 1.6 0 0zM2038 4908c6.7 27 41.5-16.9 19-37.2-18.3-16.5-21.4 27.5-19 37.2 1 4.2-.7-3 0 0zM1769.5 4281c-41.6 4.3 32.3 27.7 9 0-3-1-6-1-9 0-2.4.3 2.2-.2 0 0zM685.3 5538.7c-.6 3.4-.7 6.9-.2 10.3 11.8 6.8 16.8-27.5 14.8-33.3-6.3-17.4-23 5.3-14.6 23 1.1 2.3-.9-2.1 0 0zM717.5 5800.3c17.6 11.4 13-21.1 14.3-23.6 1.7-3.2-35.8 9.6-14.3 23.6 2.3 1.4-2.8-1.9 0 0zM753 5835c17.2 7.4 37.9-19.8 16.8-32.8-20.2-12.3-40.9 22.3-16.8 32.8 2.7 1.2-2.2-1 0 0zM568.3 5890.5c16.8 16.6 41.1 6.3 23.8-16.3-15-19.2-45.3-5-23.8 16.3 1.1 1.1-1.6-1.6 0 0zM414.8 5990.3c-11.2-7.1-30.1 31.9-15.1 35.4 8.6 1.9 25.1-29.1 15.1-35.4-2.3-1.5 2.3 1.4 0 0zM65.5 6105.8c22.3-6.5-.4-21-.4-22.3 0-1.4-24.8 29.6.4 22.3 3.3-1-2.7.7 0 0zM132.5 6232c43.9-43.3-31.1-44.5-46.5-21.5-.9 1.4.5 39.6 7.6 44 16.3 10.4 29.2-12.9 38.9-22.5 1.4-1.3-1.7 1.6 0 0zM107.8 6158.8c13.8-3 17.7 14.8 29.8 13.5 17-1.8 24.8-16.8 30.5-30.5 9.1-21.9 11-69.8-17.9-68-10.4.6-68 40.8-74.7 49.2-7.5 9.3-21.3 27.9-6.6 41.3 15.3 14.1 25-2.6 38.9-5.5 3.3-.8-3.1.6 0 0zM1690.3 5439c.2-29-35-19.4-28.3 11.3 8.8 40.5 28.1 16 28.3-11.3.1-3.5 0 2.7 0 0zM1709.3 5487.7c12.5 17.6 74.1 2.9 35-25.4-25.9-18.8-52.4.8-35 25.4 2.2 3-1.6-2.3 0 0zM1568.7 5423c-15.2-7.7-22.5 16.1-6.4 21.5 14 4.7 19.8-14.7 6.4-21.5-2.7-1.4 3.4 1.7 0 0zM2718.3 2141c-19.7-28.7-47.8-1.5-21.7 17.7 17.8 13 34.6 1.1 21.7-17.7-1.5-2.2 1.1 1.5 0 0zM2758.3 2132.7c-16-3.1-14.9 14.5-7.6 21.4 11.3 10.5 31.5-16.8 7.6-21.4-3-.6 3.8.7 0 0zM2805.3 2073.3c-17.4-14.2-9 13.9-10 15.7-.2.4 30.6 1.2 10-15.7-1.6-1.3 1.9 1.5 0 0zM2839.7 2032.3c-.5-3.4-1.5-6.6-3-9.7-16.3-6.8 1.8 31.7 1.3 30 1.1 4.1 16.9-.9 1.7-20.3-1.6-2 1.6 2.1 0 0zM2914.5 1997.8c-28.8 1.7 7.9 23.4 6.3 13-1-5.9 9.2-13.9-6.3-13-2.4.1 2.6-.2 0 0zM2922.8 1976c-13 .7-.6 17 5 15.3 9.4-3 .7-15.6-5-15.3-1.6.1 1.9-.1 0 0zM2926 1947.3c4.3-1.5-17.5 5.5-15 3.8-11.7 8.4 16.5 23.9 23.5 10.3 4.4-8.9 3.7-18.4-8.5-14.1-1.9.6 2.4-.9 0 0zM2910 1939.5c5-1.9 8.1-5.5 9.3-10.8-3.2-11-28.9 13.6-9.3 10.8 1.8-.3-1.9.3 0 0zM2848 1984c-21.6-4.8-4.4 18.5-4.5 18.7-.5 3 28.3-13.4 4.5-18.7-2.8-.6 2 .5 0 0zM2958.3 1869.3c-1.5-2.7-6.4-20.1-12-18.3-15.1 5 4.4 43.5 16.8 33.3 3.5-3-4.1-13.7-4.8-15-.9-1.6.8 1.5 0 0zM3002.5 1878.3c-2.3-1.9-33.1-32.5-20.6-2.6 16.5 39.3 28.6 9 20.6 2.6-1.5-1.3 1.7 1.4 0 0zM3186.8 1836.8c-17.1.3-36.5 29.1-10.1 28.4 12.6-.4 35.2-29 10.1-28.4-3 0 3.1-.1 0 0zM3190 1916.3c-21.4-.9 1.9 26.4 1.8 20.7 0-1.6 12.1-20.1-1.8-20.7-2-.1 1.3.1 0 0z"/><path d="M3278.5 1769c-7.1-37.6-37.3-66.7-49.4-103.4-16-48.4-36.1-53.1-70.5-84.2-18.3-16.5-29.4-42-33.7-66.4-2.4-14 1.2-28.3-2.3-42-3.4-13.4-15.5-19.1-16.3-33.2-1.6-28.1 33.5-47.7 44.3-69.4 16.4-32.9 1.4-63.6 1.1-95.2-.3-24.5 16.7-49.1 9.4-74.5-9-31-46.5-58.4-64.9-84.3-17.3-24.3-33-59.1-37-89.4-2-15.5-1.5-28.2 2.7-43.5 6.6-24.2 15.2-21.6 26.7-37.9 17.5-24.7 11.8-26.7-6.9-55.3-6-9.2-2.7-17.2-13.5-24.7-14.9-10.5-25.1 5.1-39.1-1.9-25.8-12.8-19-38.4-13.2-63.2 4.1-17.4 15.1-14 11.5-35.5-2.2-13-19.2-28.1-24-42-7.4-21.5-15.8-74.2-7.6-96.6 11-30.3 45.7-25 20.1-62.8-8.2-12.1-33-19.9-44-31.6-9.4-10.1-13.2-25.4-22.6-34.8-11.4-11.5-27.6-11.4-36.5-21-10.4-11.3-5.8-28.3-10.9-42.7-16.1-45.6-73.6-93.9-118.3-107.2-11.4-3.4-21.5 2.2-31.2-.3-14.5-3.6-24.4-14.9-38.5-17.5-16.7-3.1-36.9 7.6-53-.5-12.3-6.2-15.8-24.7-26.9-33-11.9-8.8-26-8.3-37.4-17.1-9.8-7.6-13.1-21.1-22.4-29.2-24.6-21.6-42-27.8-63.3-52.2-28.5-32.7-103.6-65.2-111.5-102.8-7.6-36.4 18.4-39.2-22.4-61.2-35.9-19.3-53.4-7.2-91.8-.9-23 3.8-46.2-10.8-48.8 13.4-3 28.2 31 29.8 44.5 44 43.1 45.2 3.6 152.7-27.4 198-24.4 35.6-22.3 23.8 1 54.1 21.4 27.8 17.6 38-6.6 69.4-26.5 34.4-22 22-57.5 2.5-29.9-16.5-64.4-17.5-97-29.5-25.8-9.5-43.6-33.9-68-41-32.8-9.5-58.5 14.4-94.6-1.3-26.7-11.6-51.8-37.4-82.1-8.2-23.9 23.1-8.8 83.8-7.4 114.9 2.8 60.3 22.6 160.3-31.9 209.3-52.3 47-87.6-101.5-146.4-54.7-20.9 16.7-25.5 50.3-48.6 69.2-35.5 29.2-60.2 38.9-73.1 87.1-9.9 36.8-10.7 71.3-28 105.7-17.4 34.6-35 46.6-59.5 70-59.4 56.7-.2 91.8 21.5 148.3 35.1 91.7-10.4 144.5-69.8 206.5-53.9 56.3-61.1 139.7-111.1 199.2-23.5 27.9-27.8 26.7-25.2 63.9 2.3 33.1 16.3 59.8-.3 89.7-11.8 21.3-50.1 45.9-71 58.6-38.3 23.2-64.2 2.6-102 11.2-37.1 8.3-38.7 40.6-32.5 74 4 21.2 18 34.9 23.2 54.6 6.4 24.3-3.3 49.2-9.2 72-9.5 36.7-13.7 73.8-22.1 110.9-9.9 43.3 1.7 82.8-3.3 127.1-4.2 37.3-24.8 49.3-38.6 83.8-13.7 34.3-25.4 67.6-41.9 101.1-35.1 71.5-90.7 126.3-127.7 194.5-16.3 30-15.2 47.8 7 71.2 21.8 23 60.4 20.8 79.2 40.8 20.8 22.2 12.3 88.3 12.1 115.9-.4 43-4.6 69.6-26.8 106.1-21.6 35.5-30.3 35.9-73.5 25.9-42-9.7-82.7-33.8-126.5-33.5-95.6.6-153.3 87.3-200.1 159.7-16.6 25.6-45.1 69.4-52.8 98.6-9.5 35.9 4.5 63.7-17.7 102.7-16.5 29-52.9 60-49.9 95.5 2.8 32.5 28.9 74.1 37.9 106.5 11.1 39.6 1.1 37.6-17.4 76.5-19.8 41.7 7.1 72.6.7 114-6.5 42-13.2 56.2-2.8 100.2 8.6 36.3 22.1 71.1 28.5 107.4 13.2 75.5-20.3 153.1-33.4 228.1-5.6 31.7-24.5 82.2-18.9 113.6 4.8 26.6 49.6 76.6 73.3 89.8 11.9 6.6 28.1 3.2 39.2 11 16.5 11.6 20.8 37.5 30 54 22.7 40.6 39.6 58 28 106.4-8.1 34-24.8 69-40 100.3-22.9 47.1-45.4 22.8-91.2 32.3-72.8 15.1-26.7 112.6-11.9 164.6 22.9 81 85.6 133.2 39.3 220.8-10.9 20.6-24 34.2-26.7 58.4-2.2 20.1 9.4 35.4 9.5 53.7 0 40.4-40.7 67.8-67.8 95.1-11.5 11.6-21.4 26-37.2 32.4-27.3 11-18.6-4.4-41.3-5.3-17.2-.7-24-1.1-33.8 13-14.5 20.9 1.6 17.9 3.1 37.6 2.5 32.9 1.5 65.4-27 85.8-31.3 22.3-53.1 18.9-50.6 67.1 4 78.2 43.9 135.9 16.9 214.5-10.1 29.3-36.3 205.9-96.5 136-22-25.5 3.6-61.9-32.4-85.9-26.5-17.7-41.1-5.4-56.9 19.1-14.4 22.3-17.6 38.6-7.1 63 8 18.6 20.3 25.6 23.5 47.1 3.2 22-7.8 37-12.1 57.1-8.1 37.8 12.4 45.9 12.8 82.9.4 34.2-13.3 63.5-20 93.9-9.6 43.7 1.5 24.3 28.4 26.4 15 1.1 7.7-17.8 23.3-1.3 10.9 11.5-4.2 28.3-.8 37.3 25.9 67.7 43.1-103.2 69.5-53 15.2 29-93 121.2-3.7 68.2 70.5-41.9 62.3 15.1 55.4 67.1-7.6 57.5-26.9 107.2-46.8 158.3-5.2 13.5-14.5 18.7-9.4 34.3 3.5 10.6 22.6 16.2 24.3 22.6 6 22.5-38.3 33.8-19.5 53.5 7 7.4 21.9-12 30.9-4.9 7.4 5.8 2.4 25 4.8 33.4 7.2 24.3 9.1 37.4 11.5 61.3.8 8.3 11.7 17.9 11.5 24.4-.5 11.6-11.4 19.5-12.8 31.6-1.8 15.6.8 48.9 21.7 36.3 11.8-7.1 1.7-51.7 26.4-34.4 15.1 10.6 3.3 27.2 4.3 38.3.2 1.7-7 4.9-6.7 6.8.7 4 9.8 20.2 9.7 19-.1-1.1 6.8 21.4 7.1 22.8 1.5 5.9-6 18.6-3.9 28 4.4 20.3 25.3 44.9 31.4 68.4 7.5 28.6 18 56.5 27.7 83.1 5.5 15.1.6 18.6 11 33.4 12.7 18.1 39.4 23.8 52.3 42.2 18.1 25.8 12 60.9 29 88.1 19.4 31.1 60.1 22 71.8 56.6 4 11.8-4.3 66.7-17.7 73.9-25.6 13.8-36.4-30.4-63.9-5.4-24.7 22.4 77.7 130.8 14.5 133.2-21.2.8-38.8-55-64-37.3-17.1 12.1 9.3 57.9 15.5 73.4 13.1 33 30.8 63.9 47.2 95.2 7.4 14.1 12.4 29.8 19.4 43.4 6 11.6 23.5 24.6 26.9 31.3 10.1 19.7-.8 41.1 7.6 59.3 12.5 27 39.9 21.3 24.5 54-15.5 32.8-29.6 32.9-31.6 73.5-.7 13.7 4 21.4-3.1 34.4-6.2 11.3-26.5 4.8-29.3 21-5.2 29.9 34.7 8.1 46.6 9.1 29.5 2.7 62.1 23 93.3 28.3 31.9 5.4 35.2-.2 67.5-13.7 29.3-12.2 58.2-14.9 90.5-18.3 20.5-2.1 30.7-8.7 50.3 0 13.3 5.9 15.8 19.1 30.6 24 33.8 11.1 51.5-13.9 68.9-36.3 53.7-69.2-25.3-99.6-24.1-171.6.6-34.7 64.8-132 99.6-147.4 35.7-15.8 26.3 15.1 50.4 23.3 12 4 21.9.9 28.3-10.3 13-22.7-12.1-30.6-15.6-45.9-9.4-42.2 4.2-24.6 32.2-26.1 19.7-1 50.5-15.8 67-14.3 19.2 1.8 22.4 5.9 40 7 25.1 1.5 46.7 1.9 69.8 1.2 28.7-.8 54.3-13.1 84.4-9.4 9.6 1.2 28.2 3.7 36.2 10.1 5.1 4.1 14.9 28.1 14.6 28.1 9.8.3 35.4-37 39.7-42.3 19.1-23.6 28-43.7 33.1-73.3 5.6-32.8 8.7-59.5 24.6-90.1 13.3-25.6 15.9-58.2 29.8-81.1 17.9-29.4 36-43.8 49.2-78.2 10.9-28.4 8.4-46 10.6-77.7.9-13.2 7-21 8.1-33.5 1.1-13.1-8.5-20.1-2.5-34.2 11.2-26.1 38.8-9.5 25.9-48.6-8.1-24.6-24.6-27.3-25.1-53.1-.3-14.8 14.2-33.5 18.3-46.7 2.1-6.9 6.7-35.3 9.1-39.5 8.1-13.7 20.9-23 31-41.4 22.2-40.7 9.8-44.9-24.7-70.3-7.5-5.5-20.5 7.1-21.7-9.7-1.1-17.1 17.8-8.3 22-15.7 3.8-6.6 7.3-28.4 9-30.7 1.5-2 23.6-18.2 22-11 5.1-23.1-9.9-38.8-27-57.3-4-4.3-58.2-47.3-41.7-49 21.7-2.2 15.9 15.5 23.7-16.7 1.4-5.7 10.7-2.3 8.3-17-.7-4.4-33.5-16.4-20-28.3 17.2-15.1 43 43.1 55.1 48.1 8.3 3.4 10.9 13.7 21.2 2.7.3-.3-3.6-31.3-4.3-32.4-5.1-8.1-52.7-25.4-34.3-45.3 13.7-14.9 22.3 47.9 33.5 1.9-1.4 5.9-9.2-37.2-7.2-32.5-2.5-5.9-22.1-30.2-19-37 8.4-18.2 23.9 19.6 41 5.5 27.3-22.5-4.7-43.3-12.1-62.1-.5-1.2-7.2-30.2-5.8-28.7-.1-.1-23.5-11.9-22.4-6-4.5-25.1 28.3-33-8-58.2-12.8-8.9-83.1-9.7-54.5-30.3 25.9-18.7 55.6 21.8 78.8 23.6 23.2 1.8 59.3-15.7 50.1-43.1-1.6-4.8-17.3-13.7-21-18.7-2.5-3.5-15.4-25-17-26.3-25.2-20.4-64.7-18-95.7-18-9.1 0-57.5 15.6-66.7 8-23.3-19.4 52-30.6 61.8-30.6 34.1.1 69.8 10.4 102.9 16.5 22.2 4.1 60.4 18.8 55.4-8.3-1.1-5.8 40 4.2 40.8-21.7.3-9.4-23.8-11.9-15.2-27.9 7.4-13.8 36.5 4.1 45.5 3.8 22.8-.6 27.5-9.2 38.6-20.8 2.5-2.6-9.8-10.1-3.5-15.9 2.7-2.5 12-3.8 12.3-4.2 3.3-4.3 18.9-.6 25.2-12.3 3.3-6.1-14.4-30.2-4.6-33.9 16-5.9 18.5 18.8 35.7-9.5 9.4-15.6 3.5-28.1 2.7-44.4-.9-17.3-3-25-.7-41.5 1.3-8.9 4.5-42.4 13.7-46.3-4.9 2.1 32.1 25.4 32 25.3 9.3 18 2 34.5.2 52.5-2.1 21.4-12.3 35.7 8.8 48.8 4.7 2.9 38.5-2 45.3-8.7 11.4-11 8.9-51.8 18.7-67.5 12.4-19.8 31.8-23 51.6-32.2 10-4.7 40.8-14.9 47-24 17.6-26.1-14-19.8-22-35.7-31.6-62.5 24.5-44.2 58.8-55 11-3.5 25.7-7 27.6-19.1.8-5.5-29.2-45.1-36.4-43.2-17 4.4 6.8 28.7-6 36.7-5.8 3.6-14.8-10.3-13.2-10.9 7.6-2.8-23.4-.7-23.2-.8-16.6 3.8-29.7 26.4-45.3 32.7-23.2 9.4-49.6-1.3-72.3 11-27.1 14.7-20.1 31.1-57.3 25.7-10.1-1.5-8-16.2-20-15.4-5.2.3-12.8 17.8-13.3 17.7-16.4-3.5-28.4-26.5-47.7-27.7-38.9-2.4 2.9 20.5-23.7 29.3-33.6 11.1-21.3-19-22.7-31-1.1-9.8 16.7-3.1 9-20-6.7-14.7-16.2-5.8-25.7-8.6-22.4-6.5-37.2 0-58.3-16.9-15-12-32.2-56.5-56.3-43.5-28.4 15.4 8.4 20 13.2 32.6.5 1.3 17.1 25.3-4.7 20.3-20.4-4.6-32.3-38.5-58.6-41.7-13.8-1.7-23.7 8.7-38.1 9-17.8.5-34.5-6.8-52.7-6-15.3.7-102.7 1.8-55.9-16.4 2.9-1.1 23.3 6.5 27.9 6.4 4.8-.1 9.4-8.4 14.3-9.3 16.7-3.2 47.4-.7 61.2-10 24.7-16.8 6.5-34.6 12.8-47 18.8-37 16.5 2.3 29 14.7 42.2 42.1 38.8-26.7 89-13.3 2 .5 6.5 22 17.3 21 16.1-1.5-6.2-22.3 8.3-22.8 20.3-.8 35.9 14.8 51.7 27.2 16 12.6 39.8 47 50.7 14 5.4-16.3-24.2-43.5-12-54.3 14.8-13.2 51.9 56.8 57.3 62-4.7-4.5 42.3 16.2 30.9 17.5 15.4-1.8 10 .7 17.1-25.5 11-40.3-7.9-40.3-31.3-65.7-21.8-23.6-3.3-5.9-10.9-30.1-1.1-3.6 9.4-22.5-.1-28.5-25.2-15.9-16.3 76.7-18 77-19.8 4.2-16.9-38.9-18-47-5-38.8-2.7-23.9 12.8-40.8 19.3-21.1 46.8-26.7 51.2 13.8 1.6 14.8-25 32.8-6.7 44 19.5 12 11.3-21.1 22.7-20 2.2.2 19.2 48.1 20.1 51.8 7.7 31.9-13.7 51.4-12.2 80.7 2.4 46.2 73.2 73.5 93.4 34.7 4.4-8.5-5.2-24.3 4.9-33 18.7-16 12.2 7.3 21.3 7.8 7.5.4 18.2 5.7 25.5 2.9 13.4-5.1 5.8-15.2 8.9-17.8-.9.8 11.2-15.7 11.6-16.3 2.7-3.4 19.1-12.2 25-17.1 16.2-13.5 42.7-34.2 55.3-49.3 15.4-18.4 15.4-39.4 35.2-57.4 14.3-13 28.9-15 42.8-19.3 15.7-4.8 40.9 10.2 36-22.3-2.7-17.9-25.7-18.1-38.6-17-9.9.8-19.6 16.9-29.9 11.5-16.3-8.5 9.3-15.7 12.5-23.5 1.3-3.3 10.9-24.6 9.8-23.1 4.6-6-3.4-22 11.1-20.5 13.2 1.4 7 39.9 28 22.4 30.9-25.7-18.8-34-25.1-38.1-24.4-16.2-30.6-35.4-35.6-62.3-3.7-19.6-13.1-69.5-25.9-21.1-2.6 9.8 9.7 60-12.7 18-8.3-15.6 10.4-39-11.4-50.7-20.9-11.2-14.3 9.5-27.3 13 13.3-3.6-31-32.2-30.4-31.6-12.2-12.5-38.6-34.2-36.2-55.4 4.8-42.3 42.4 53.6 69.7 21 9.9-11.8-33.4-32.5-39-37.3-7-6-6.3-21.8-16.3-27.3-14.4-7.9-30.7 5.6-40 1.7-9.6-4.1-22.2-24.8-29.7-35.6-10.6-15.1-28.1-37.7-36.5-54.3-9.9-19.5-8.7-47.2-39.1-42.4-30 4.7-19.9 41.5-37.6 50-44.3 21.3-21.1-71.1-45-81.4-25.8-11.1-30.4 25.4-57.2 13.3 3.4 1.5-32.7-41.9-33-38 1.5-22.2 27.7-7.2 26.6-37.7-.6-15.8-16.4-9.8-18.6-18.8-3.7-14.8 9.2-31.5 4-46.5-6.4-18.4-36.6-23.5-39.5-39.9-4.3-24.6 20.4-18.2 26-35.1.2-.6-13.7-51.9-14.4-56.3-1.4-9-19.5-52.7-13.1-57.7 12.3-9.7 11.8 7.6 16.9-13.7 1.5-6.1-4.2-26.1-4.2-30.2 0-6.1 11-13.7 8.3-26.2-3.4-15.5-25.6-10.4-28.8-29.4-3.7-21.6 12.8-7.3 15.4-21.2 2.4-12.9-.3-23.3-3.1-35.6-5.3-23.1-18.2-11.4-11.4-39.4 3.2-13.2 11.8-16 13.4-20.5 1.6-4.7-5.8-16.9-3.5-20 1.4-1.9 23-13.4 22.1-7 2.9-21.1-42.2-44.9 8.8-29 21.2 6.6 20.2 33.6 41 39.6 32 9.3 16.6-39.7 6.5-53.9-2-2.8-16 1.4-21.3-6.3 1.1 1.7-7.9-47.5-8-48.5-3.6-30.6-12.2-50 2.5-79.5 7.5-15.1 12.8-17.5 18.7-35.1 6.5-19.5 8.3-41.1 10.3-61 1.2-11.5-4.6-22.1 1-33.6 6.3-12.9 38.8 3.6 26.5-23.6-5.1-11.2-23.3-4.7-30.9-11.6-6.7-6-15.7-25.4-20.6-33.3-14.5-23.6-25.6-41.1-20-71.3 7.2-38.7 15.5-34.2 42.7-13.8 5 3.8 16.5 23.9 27.6 23.1 25-1.9 4.7-16.1 16.7-24.7 15.2-10.8 35.1-3.9 47-15.7 13.7-13.5 6.1-30.7 9.3-45.3 9.2-41.4 18.3-51.6 7.7-90.7-6.6-24.3-13.5-14 1.3-35.3 4.7-6.8 24.5-24.6 31.9-19.6 5.9 4-1.7 31.6 5.1 40.8-4.8-6.5 30.4 13 27 11.4 15.3 7.2 5.9-51.5 4.8-47 1.5-6.2-14.9-13.6 5.9-17.4 13-2.4 10.8 10.1 15.7 10.7 11.8 1.4 11.8 8.7 24.3 4 20.7-7.8 4.4-12.8 9.7-20-5.3 7.3-10.4-13.8-10-16.3.3-2.2 25.2 8.2 24.7-5.3-.6-15.4-40.9 6.2-23.3-26.4 5.4-10 35.2 15.5 31.7-7.4-5.5-35.9-85.9 17.3-61.7-18.1 5.7-8.3 28.9-9.6 36.7-15.7 15.9-12.4 12.5-23.5 21.7-34 4.8-5.5 27.6-8.7 27.8-13 .6-16-17.5-10.9-23.4-18.6-7.5-9.6 36.6-14 38.6-16.4 10.9-13.2-1.5-34.8 12.5-45.6 28-21.7 25.8 5.3 38.5 18 7.8 7.8 8.2 27 25.9 20.8 14.6-5.1-1.6-12.6 3.5-19.8 12.8-18.2 12.1-29.7 21.7-49.7 5.2-10.9 14.5-16.6 19.7-30 4.3-11.2-1-33.1 5.7-42.7 32-46.2 61.2 39 61.4-11.4.1-12.9-45.6-88.9 4.3-57.3 12.7 8 13.1 50.2 31.6 58.4 35.1 15.6 22.7-29.2 24.4-42.1 4.1-31.6 23.6-41.6 44-59-4.5 3.8 17.4-.1 18.4-.5 6.9-3.1-3.3-14.9 6.6-20.4 18.9-10.5 24.4 11.8 39.8-5.6 6-6.8-9.5-31.1 4.2-32.1 17.1-1.3 4.6 23.5 10.7 29 14.7 13.1 5.6-43.8 14.7-46.7 9-2.8 3.7 26.4 10.7 24.3 17.3-5.1 6.5-20.2 13-34.3 6.3-13.8 9.8-21.4 25.2-28 2.2-.9 20.3-.1 18.8 1 5.1 1.7 10.1 1.5 15-.7.1-6.2-.9-12.2-3-18 5.6-8.2 14.6-19.7 19.2-26.6 12.8-19.4 25.8-40.1 30.5-66 5.2-28.7-1.7-61.4 5.6-88.1 6.7-24.4 28.1-45.6 41.3-66.3 10.3-16.1 31.2-39.4 35.7-56 3.5-13.1-11.5-60.1 4.7-70.7 15.2-9.9 3.8 70.2 5.3 71 3.8 1.9 46.2-52.1 47.5-55.4 11.4-28.8-4.9-19.4-20-24.4 4 1.3-32.5-20.7-29.5-11.9-5.8-17.6 15.6-15.5 15.9-16.5 2.1-7 21.2-3.2 8.1-18.6-11.4-13.4-28.8-3.9-42.7-11.2-10.7-5.6-59.4-52.3-61.7-63.3-8.3-39.6 36.4 14.3 42.7 13.2 8.8-1.7 1-44.3-5-50.5-9.4-9.7-33.2-.4-45.5-19-2.2-3.4-12.7-27.3 2.5-23 12 3.4 25 12.9 38-12.3 12.2-23.6-7.8-20.3 1-39.3 7.3-15.9 33.1-27.2 43.7-44.3 12-19.5 17.7-32.6 23.6-50.5 13.8-41.4-13.2-89.2-51.6-117.5-5.2-3.8-58.3 1.7-23-22 30-20.1 28.4 22.4 46.6 14.2 12.8-5.8-13.7-39.9 15.4-51.6 20.9-8.4 46.7 4.2 71.8-9.4 20.7-11.3 23.1-18.6 20.8-36.5-.4-3.4-23.9-5.3-22.3-18.5 2.2-17.5 18.2-6.1 21.3-8 6.7-4.3 12.2-1.3 19.8-7.3 12.1-9.6 6.3-26.8 19.8-31.5 19.6-6.9 42.6 25.8 56.2 14.9 17.3-13.8-21.4-29.1-27.2-37.2-.4-.6-10.3-27.7-10.5-25.8 3.1-29.3 5.9-3.9 18.3-8.3 25.6-9.1-26.7-31.5-26.7-30.3-.2-8.6 17.6-4 20-8 4.8-7.7-9.7-29.1-2.1-42.8 15.5-27.9 20.1-9.4 34.6 1.4 10.1 7.6 4.1 28.7 27.5 24 32.2-6.4 13.5-21.6 12.4-43.5-.6-12.5-17.2-39.8 13.3-27.5 12 4.9 22.1 43.2 37.7 54.3 5.4 3.9 43.6 29.4 45.4 29.3 6.1-.2 35.8-7 32.6-27-2.2-13.9-25.4-14.2 2-26 10.7-4.6 27 5.2 32.6 6.6-1.8-.4-6.3 18.3 3.6 14.9 6-2.1 10.1-12.8 13.2-13.8-3.6 1.2-10.1-12.5-6.3-15 7.4-4.8 13.1 8.5 16.3 7 5.6-2.6 19.6 1 27.3-1.7 5.3-1.8 4.2-17.8 10.6-19.2 24.5-5.5 26.8 16.4 44.5 23.7 27.8 11.5 12.4.1 34.9-12.5 17.1-10 46.2-6 41.6-30.7-1.5-8.2.7 3.5 0 0zM837 6302c-4.1-17.5 16.6-50.3 23.3-70.2 10.2-30.1 4.7-49.3 9.4-79.1 8.7-55.2 48.7-96.6 73.7-145.2 20-38.8 17.9-81.1 48-110.8 14.7-14.5 35.4-22.9 47.3-40 14-20 15.7-52 41.7-59 25.7-6.9 11.5-1.9 13 8 3.1 20.5-11 44.7-13 63.8-.9 8.9 4.8 25.8 2.7 33.6-1.2 4.4-10.8 18.6-10.7 17.4-3.5 38.6 6.6 3.6 19.5 34.4 8.6 20.6-13.4 37.1-26.8 46.9-4 2.9-15.3-3.2-19.7 0-5.9 4.2-7.8 12.8-13 17-6 4.9-22.6 21.3-26.7 27-18.3 25.4-10.2 47.6-15.1 74.4-3.8 20.9-16.3 46-25.4 66-23.3 51.1-63.6 90.3-83.4 144.4-7.4 20.3 1 43.8-28.8 30.4-19.7-9-12.5-44.1-16-59-.6-2.5.6 2.4 0 0zm44-2971c11.4-18.9 41 29.4 46 28 21.8-6.1-31.6-61.3-28-66.5 5.6-8.2 58.5 11.6 65.1 16.3 5.6 4 21.7 23.5 27.6 24.8 37.1 8.2-1.1-17.7 14.3-27.5 8.4-5.3 30.4 27.9 32.1 31.7 1.5 3.4 15.1 48.9 12.9 51.3-16.2 18-33.7-55.6-42.5-31-1.8 5.1 7.9 12 4.5 19-7.2 14.9-13.1 2.5-17 22-4 19.8 10.6 49.8 13 70 1 8.3 7.6 123.7-10.5 113.5-5.1-2.8-39.3-78.9-27-89 8.1-6.7 8.7 19.4 20 17.5 18.6-3.1-13.1-96.7-21-106.5-8.2-10.3-102.8-51.5-89.5-73.6 1.5-2.5-1.6 2.7 0 0zM475.5 5652.3c14.7-11.9 25.2-7.6 36.4-4.5-9.1-2.6 33.5 25.9 29.1 21.7 24.2 23.1 15.7 62.7 41.3 83.9 55.8 46.2 19.2-100.1 11.4-126.5-7.7-25.9-16.2-62-15.6-85.1.2-7.3 4.5-41.9 15.1-42.6 18-1.1-2.3 23.2 10.3 27.1 29.4 9 8.2-22.1 17.8-30 2.8-2.3 28.1-3.7 34.8-4 17.8-.8 30.8-4.8 46.8-8.6 7.8-1.9 16.5-9.1 25.4-9.9 16.5-1.4 3.5 11.9 14.2 14.7 13.3 3.5 14.5-15.4 23 2.1 1.3 2.7-10 17.2-4 27.3-1.6-2.7 20.3-10.7 26.1-9.4 19.7 4.2 3.4 15 26 17.3 4.9.5-1.5-19.3 4.3-21.3 10.9-3.8 28.7 35.7 29.9 44.3 3.8 29.1-22.5 58-31.2 83.4-3.8 11.1-20.9 31.4 3.5 36.7 25.2 5.4 17.1-17.3 18-17.3 12.2-.3 30.9 8.5 15.3 34.5-7.5 12.5-23.7 2.3-29.6 16.2-4.7 11.1 8.3 11.5 8 22.4-.6 18.8-6.9 53.1-17.4 70.1-6.4 10.4-15.5 2.3-21 12.8-7 13.4-4.4 27.3-13.8 41.7-1.6 2.4-28.8 28.3-31.7 29.3-13.2 4.6-19.6-5.4-30.2-3.1-42.2 9.1-73.8 14.8-94.4 56.2-6.2 12.4-12.5 35.6-31.6 38.6-46.5 7.3-7.1-27-8.5-41.8-3-31.5-41-17.6-56.5-2.4-12.5 12.3-9.4 30.4-18.8 40-10.8 11.1-20.8 8.3-33.7 14.9-26.3 13.5-20.9 26.9-38.8 43.9-23.7 22.5-25 15.3-48.2 6-26.7-10.6-65.7.2-51.2-39.9 10.8-29.8 42.2-18.7 61.9-44.3 17.5-22.8 27.9-49.2 17.7-69.3-8.5-16.8-24.5-12.2-29.2-36.8-.9-5 14.5-35.7.3-35-2.4 2.7-4.6 5.6-6.8 8.5-19.3 3.9 14.8-34.8 15.5-38 3.4-16-27-55-16.3-68.5 10-12.5 29.5 46.9 31 52.3 1.3 4.6-14.4 16.9-5.5 23.5 12.6 9.3 21.4-8.2 26.5-15.3 21.4-29.8 12.7-90.3 44.4-115.8 3.5-2.9-.7.5 0 0zm1010-106.8c46.6-7.4-32.3 31.3-44.5 37.5-16 8.1-41.8 8.7-55.7 17.9-11.6 7.7-14.8 24.9-24.8 31.1-27.8 17.1-66.7 4.2-79.5-20.5-5.3-10.3 13.4-11.9-7.3-27-12.5-9.1-17.3-3.3-24.8-5-11.6-2.7-79.9-21.7-72.5-26 20.3-11.8 26.8 9.6 44.2 7.4 20.1-2.5 30-22.8 52.8-24.4 15.5-1.1 28.7 8.3 42.9 12.2 14.9 4.1 14.7 3.2 30.7 4.7 23 2.1 47.9 6.3 71.4 7.1 27.3.9 41.3-10.9 67.1-15 4.1-.7-5.7.9 0 0z"/></g></svg>